<svg xmlns="http://www.w3.org/2000/svg" xmlns:xlink="http://www.w3.org/1999/xlink" width="14.302" height="10.551" viewBox="0 0 14.302 10.551">
  <defs>
    <clipPath id="clip-path">
      <path id="check_24dp_1F1F1F_FILL0_wght400_GRAD0_opsz24" d="M378.479-1738l-5-5,1.25-1.25,3.751,3.751,8.05-8.05,1.25,1.25Z" transform="translate(-203.201 2517.74)" fill="#006eff"/>
    </clipPath>
  </defs>
  <g id="마스크_그룹_11" data-name="마스크 그룹 11" transform="translate(-170.276 -769.187)" clip-path="url(#clip-path)">
    <g id="패스_7717" data-name="패스 7717" transform="translate(169 767.782)" fill="#006eff" opacity="0.5">
      <path d="M 16.3548755645752 14.86025619506836 L 0.5000049471855164 14.86025619506836 L 0.5000049471855164 0.4999961853027344 L 16.3548755645752 0.4999961853027344 L 16.3548755645752 14.86025619506836 Z" stroke="none"/>
      <path d="M 0.999995231628418 0.9999961853027344 L 0.999995231628418 14.36025619506836 L 15.85486507415771 14.36025619506836 L 15.85486507415771 0.9999961853027344 L 0.999995231628418 0.9999961853027344 M 0.3197841644287109 -3.814697265625e-06 L 16.53508567810059 -3.814697265625e-06 C 16.71169471740723 -3.814697265625e-06 16.8548641204834 0.1461162567138672 16.8548641204834 0.3263463973999023 L 16.8548641204834 15.03389644622803 C 16.8548641204834 15.21413612365723 16.71169471740723 15.36025619506836 16.53508567810059 15.36025619506836 L 0.3197841644287109 15.36025619506836 C 0.1431751251220703 15.36025619506836 -5.7220458984375e-06 15.21413612365723 -5.7220458984375e-06 15.03389644622803 L -5.7220458984375e-06 0.3263463973999023 C -5.7220458984375e-06 0.1461162567138672 0.1431751251220703 -3.814697265625e-06 0.3197841644287109 -3.814697265625e-06 Z" stroke="none" fill="#ebebeb"/>
    </g>
  </g>
</svg>
