<svg xmlns="http://www.w3.org/2000/svg" xmlns:xlink="http://www.w3.org/1999/xlink" width="358.24" height="358.24" viewBox="0 0 358.24 358.24">
  <defs>
    <linearGradient id="linear-gradient" x1="0.018" y1="0.089" x2="0.975" y2="0.097" gradientUnits="objectBoundingBox">
      <stop offset="0" stop-color="#006eff"/>
      <stop offset="1" stop-color="#006eff" stop-opacity="0"/>
    </linearGradient>
    <linearGradient id="linear-gradient-2" y1="0.019" x2="0.872" y2="0.98" gradientUnits="objectBoundingBox">
      <stop offset="0" stop-color="#006eff" stop-opacity="0"/>
      <stop offset="1" stop-color="#006eff"/>
    </linearGradient>
    <linearGradient id="linear-gradient-3" x1="1" y1="0" x2="0.145" y2="0.981" xlink:href="#linear-gradient"/>
  </defs>
  <g id="그룹_19055" data-name="그룹 19055" transform="translate(-845.879 -2037.881)">
    <path id="패스_199" data-name="패스 199" d="M152.624,297.752h0c-3.945.092-7.954.026-11.916-.2A147.944,147.944,0,0,1,25.373,231.969a3,3,0,0,1,4.976-3.353,141.993,141.993,0,0,0,110.69,62.951c3.8.212,7.655.275,11.443.187a142.968,142.968,0,0,0,116.258-64.74,3,3,0,0,1,5.02,3.286,148.97,148.97,0,0,1-121.136,67.452" transform="translate(877.371 2068.59)" fill="url(#linear-gradient)"/>
    <path id="패스_200" data-name="패스 200" d="M280.218,216.034a3,3,0,0,1-2.761-4.321,142.1,142.1,0,0,0,14.325-54.959c.212-3.8.275-7.655.187-11.444-1.718-73.984-61.017-135.172-135-139.3L156.706,6a3,3,0,0,1,.3-5.993l.31.018A149.013,149.013,0,0,1,297.967,145.17c.092,3.947.026,7.956-.2,11.917a148.051,148.051,0,0,1-14.928,57.267,3,3,0,0,1-2.626,1.68" transform="translate(877.371 2068.59)" fill="url(#linear-gradient-2)"/>
    <path id="패스_201" data-name="패스 201" d="M18.826,217.8a3,3,0,0,1-2.746-1.642A147.193,147.193,0,0,1,.041,152.4c-.093-3.946-.027-7.956.194-11.916C4.415,65.571,63.931,5.23,138.677.13a3,3,0,1,1,.41,5.986C67.354,11.011,10.236,68.922,6.226,140.823c-.212,3.8-.276,7.654-.188,11.443a141.29,141.29,0,0,0,15.391,61.18,3,3,0,0,1-2.6,4.358" transform="translate(877.371 2068.59)" fill="url(#linear-gradient-3)"/>
    <circle id="타원_261" data-name="타원 261" cx="179.12" cy="179.12" r="179.12" transform="translate(845.879 2037.881)" fill="none" opacity="0"/>
  </g>
</svg>
