<svg id="그룹_2680" data-name="그룹 2680" xmlns="http://www.w3.org/2000/svg" xmlns:xlink="http://www.w3.org/1999/xlink" width="139.484" height="23.941" viewBox="0 0 139.484 23.941">
  <defs>
    <clipPath id="clip-path">
      <rect id="사각형_451" data-name="사각형 451" width="139.484" height="23.942" fill="none"/>
    </clipPath>
  </defs>
  <g id="그룹_2679" data-name="그룹 2679" transform="translate(0 0)" clip-path="url(#clip-path)">
    <path id="패스_745" data-name="패스 745" d="M167.648,9.591A9.6,9.6,0,0,0,166.019,7.6a10.563,10.563,0,0,0-4.632-2.528,11.672,11.672,0,0,0-5.651,0A10.55,10.55,0,0,0,151.1,7.6a9.574,9.574,0,0,0-1.631,1.992,9.784,9.784,0,0,0-1.04,2.355,9.339,9.339,0,0,0-.37,2.632,9.7,9.7,0,0,0,.37,2.684,10.131,10.131,0,0,0,1.039,2.408,9.9,9.9,0,0,0,1.629,2.046,10.4,10.4,0,0,0,2.119,1.579,10.7,10.7,0,0,0,2.514,1.019,11.236,11.236,0,0,0,5.654,0,10.755,10.755,0,0,0,2.513-1.019,10.45,10.45,0,0,0,2.12-1.579,9.91,9.91,0,0,0,1.628-2.046,10.1,10.1,0,0,0,1.04-2.415,9.719,9.719,0,0,0,.37-2.677,9.338,9.338,0,0,0-.37-2.632,9.705,9.705,0,0,0-1.041-2.355M164.516,18.1a8.62,8.62,0,0,1-1.24,2.762,5.81,5.81,0,0,1-1.994,1.795,5.628,5.628,0,0,1-2.721.644,5.533,5.533,0,0,1-4.761-2.438,8.52,8.52,0,0,1-1.22-2.762,14.182,14.182,0,0,1-.415-3.527,13.591,13.591,0,0,1,.415-3.459A8.176,8.176,0,0,1,153.8,8.434,5.63,5.63,0,0,1,155.79,6.7a5.955,5.955,0,0,1,2.771-.619,5.836,5.836,0,0,1,2.725.618,5.7,5.7,0,0,1,1.992,1.737,8.251,8.251,0,0,1,1.238,2.687,13.21,13.21,0,0,1,.428,3.457,13.8,13.8,0,0,1-.428,3.526" transform="translate(-85.535 -2.729)" fill="#424448"/>
    <path id="패스_746" data-name="패스 746" d="M115.706,14.254h-8.938v-8.5H103.2V24.836h3.566V15.892h8.938v8.944h3.566V5.753h-3.566Z" transform="translate(-59.62 -3.324)" fill="#424448"/>
    <path id="패스_747" data-name="패스 747" d="M218.466,16.356a4.892,4.892,0,0,0-1.443-1.017,6.747,6.747,0,0,0-1.3-.449,10.019,10.019,0,0,0,1.18-.7,4.872,4.872,0,0,0,1.093-1.025,3.46,3.46,0,0,0,.585-1.193,5.564,5.564,0,0,0,.168-1.421,3.836,3.836,0,0,0-.525-1.971,4.732,4.732,0,0,0-1.45-1.515,7.292,7.292,0,0,0-2.2-.968,10.8,10.8,0,0,0-2.787-.341h-7.728V24.836h8.919a8.983,8.983,0,0,0,2.756-.4,6.583,6.583,0,0,0,2.125-1.109,5.045,5.045,0,0,0,1.37-1.678,4.608,4.608,0,0,0,.484-2.079,4.792,4.792,0,0,0-.322-1.787,4.409,4.409,0,0,0-.922-1.429M207.622,7.433h2.367a9.79,9.79,0,0,1,2.356.247,4.652,4.652,0,0,1,1.586.7,2.707,2.707,0,0,1,.894,1.059,3.329,3.329,0,0,1,.288,1.4,3.505,3.505,0,0,1-.245,1.325,2.965,2.965,0,0,1-.711,1.042,3.332,3.332,0,0,1-1.164.7,4.681,4.681,0,0,1-1.6.254h-3.774ZM215.6,21.039a2.722,2.722,0,0,1-.9,1.047,4.814,4.814,0,0,1-1.589.7,9.3,9.3,0,0,1-2.314.254h-3.171v-7.3H210.7a8.442,8.442,0,0,1,2.466.311,4.429,4.429,0,0,1,1.6.835,2.953,2.953,0,0,1,.861,1.23,4.523,4.523,0,0,1,.269,1.571,3.141,3.141,0,0,1-.294,1.359" transform="translate(-117.882 -3.324)" fill="#424448"/>
    <path id="패스_748" data-name="패스 748" d="M251.7,5.754l-8.986,19.082h2.046l2.946-6.225h7.716l2.851,6.225h3.664L253.149,5.754Zm-3.241,11.219,3.136-6.646,3.052,6.646Z" transform="translate(-140.213 -3.324)" fill="#424448"/>
    <path id="패스_749" data-name="패스 749" d="M306.717,5.753V19.166L294.688,5.753H292.62V24.836h1.84V10.348l12.645,14.488h1.424V5.753Z" transform="translate(-169.045 -3.324)" fill="#424448"/>
    <path id="사각형_449" data-name="사각형 449" d="M3.543,0H29.376A3.544,3.544,0,0,1,32.92,3.544V7.828a3.544,3.544,0,0,1-3.544,3.544H3.543A3.543,3.543,0,0,1,0,7.829V3.543A3.543,3.543,0,0,1,3.543,0Z" transform="translate(0 0)" fill="#ef5713"/>
    <path id="사각형_450" data-name="사각형 450" d="M3.543,0H29.376A3.544,3.544,0,0,1,32.92,3.544V7.828a3.544,3.544,0,0,1-3.544,3.544H3.543A3.543,3.543,0,0,1,0,7.829V3.543A3.543,3.543,0,0,1,3.543,0Z" transform="translate(0 12.569)" fill="#75777b"/>
  </g>
</svg>
