<svg xmlns="http://www.w3.org/2000/svg" xmlns:xlink="http://www.w3.org/1999/xlink" width="145.222" height="36.881" viewBox="0 0 145.222 36.881">
  <defs>
    <linearGradient id="linear-gradient" x1="-0.033" y1="0.55" x2="0.942" y2="0.496" gradientUnits="objectBoundingBox">
      <stop offset="0" stop-color="#75fadd"/>
      <stop offset="0.27" stop-color="#8db3e5"/>
      <stop offset="0.52" stop-color="#a07cec"/>
      <stop offset="0.73" stop-color="#ae53f0"/>
      <stop offset="0.9" stop-color="#b63bf3"/>
      <stop offset="1" stop-color="#ba32f5"/>
    </linearGradient>
  </defs>
  <g id="Layer_2-2" transform="translate(0 -0.01)">
    <g id="Layer_1-2" transform="translate(0 0.01)">
      <g id="그룹_2710" data-name="그룹 2710" transform="translate(0 0)">
        <path id="패스_811" data-name="패스 811" d="M326.97,45.94l7.921-16.99,7.646,16.99h-2.676l-4.99-11.6-5.288,11.6Z" transform="translate(-278.738 -24.681)" fill="#404040"/>
        <g id="그룹_2708" data-name="그룹 2708" transform="translate(66.777 4.34)">
          <path id="패스_812" data-name="패스 812" d="M452.69,31.83V29.452l10.323-.022v2.4H459.13V46.35h-2.558l.022-14.518h-3.9Z" transform="translate(-452.69 -29.43)" fill="#404040"/>
          <path id="패스_813" data-name="패스 813" d="M556.551,29.43h2.558V46.35h-2.558v-7.9H549.28q0,3.95-.022,7.9H546.7l.022-10.3h9.829Z" transform="translate(-532.832 -29.43)" fill="#404040"/>
          <path id="패스_814" data-name="패스 814" d="M675.9,29.43v2.378l-9.335.046v-2.4Zm-.18,6.462v2.4h-6.575l-.046,5.654h6.8v2.4l-9.335.022V35.915l9.155-.022h0Z" transform="translate(-635.012 -29.43)" fill="#404040"/>
        </g>
        <path id="패스_815" data-name="패스 815" d="M760.98,46.58l.084-9.981,2.376,2.418v7.564h-2.46Zm.041-13.087.021-3.793,11.481,11.773.1-10.627,2.375.062V44.014l.041,3.813L761.02,33.493h0Z" transform="translate(-648.727 -25.32)" fill="#404040"/>
        <path id="패스_816" data-name="패스 816" d="M875.39,45.83l4.588-9.876h6.541l4.439,9.9L888.3,45.83,884.968,38.2l-3.483.063-3.462,7.56H875.39ZM881.8,32.09l1.487-3.27,1.487,3.27Z" transform="translate(-746.26 -24.57)" fill="#404040"/>
        <rect id="사각형_471" data-name="사각형 471" width="97.683" height="0.401" transform="translate(47.538 24.437)" fill="#404040"/>
        <g id="그룹_2709" data-name="그룹 2709" transform="translate(48.661 27.741)">
          <path id="패스_817" data-name="패스 817" d="M330.911,188.538a3.26,3.26,0,0,1,1.77-.468,3.2,3.2,0,0,1,1.363.295,2.939,2.939,0,0,1,1.074.844l-.534.417a2.331,2.331,0,0,0-1.9-.881,2.473,2.473,0,0,0-1.4.355.89.89,0,0,0-.478.773.949.949,0,0,0,.084.417,1.16,1.16,0,0,0,.267.341,4.257,4.257,0,0,0,1.211.687l.982.407a4.483,4.483,0,0,1,1.348.819,1.978,1.978,0,0,1,.422.572,1.568,1.568,0,0,1,.158.695,1.686,1.686,0,0,1-.733,1.394,3.2,3.2,0,0,1-1.841.488,4.009,4.009,0,0,1-1.046-.125,3.856,3.856,0,0,1-.816-.31,3.686,3.686,0,0,1-.59-.379,2.776,2.776,0,0,1-.366-.341l.5-.457a2.394,2.394,0,0,0,.285.267,2.913,2.913,0,0,0,.475.308,3.214,3.214,0,0,0,.677.257,3.421,3.421,0,0,0,.882.1,3.239,3.239,0,0,0,.853-.1,1.867,1.867,0,0,0,.6-.267,1,1,0,0,0,.355-1.254,1.365,1.365,0,0,0-.28-.369,3.846,3.846,0,0,0-1.139-.677l-.977-.407a4.842,4.842,0,0,1-1.409-.814,1.789,1.789,0,0,1-.422-.565,1.587,1.587,0,0,1-.152-.692,1.4,1.4,0,0,1,.218-.76,1.884,1.884,0,0,1,.569-.578Z" transform="translate(-329.88 -188.07)" fill="#404040"/>
          <path id="패스_818" data-name="패스 818" d="M409.145,206a1.653,1.653,0,0,1,.369.789,5.482,5.482,0,0,1,.089,1.028v2.524h-.651v-2.524a4.932,4.932,0,0,0-.059-.836,1.131,1.131,0,0,0-.236-.547,1.161,1.161,0,0,0-.407-.32,1.424,1.424,0,0,0-.586-.1,1.724,1.724,0,0,0-.789.161,1.784,1.784,0,0,0-.524.389v3.779h-.656v-3.806a.721.721,0,0,0-.12-.155,1.179,1.179,0,0,0-.372-.254,1.712,1.712,0,0,0-.684-.14h-.025a1.4,1.4,0,0,0-.6.115,1.5,1.5,0,0,0-.422.285,3.542,3.542,0,0,0-.308.338v3.617h-.656v-4.919h.656v.382a1.392,1.392,0,0,1,.274-.186,2.2,2.2,0,0,1,.463-.183,2.226,2.226,0,0,1,.621-.08,2.347,2.347,0,0,1,.875.162,1.784,1.784,0,0,1,.692.488l0,0a.026.026,0,0,0,0-.01.108.108,0,0,1-.015-.021c-.007-.007-.016-.019-.031-.035a2.284,2.284,0,0,1,.653-.417,2.4,2.4,0,0,1,.963-.173,2,2,0,0,1,.835.165,1.89,1.89,0,0,1,.646.481Z" transform="translate(-391.796 -202.801)" fill="#404040"/>
          <path id="패스_819" data-name="패스 819" d="M490.4,209.728a2.708,2.708,0,0,1-1.785.682,2.592,2.592,0,0,1-.941-.173,2.314,2.314,0,0,1-.783-.5,2.26,2.26,0,0,1-.53-.808,2.78,2.78,0,0,1-.193-1.047,2.811,2.811,0,0,1,.193-1.053,2.218,2.218,0,0,1,.53-.8,2.281,2.281,0,0,1,.783-.5,2.652,2.652,0,0,1,.941-.168,2.6,2.6,0,0,1,.962.183,2.857,2.857,0,0,1,.835.524v-.642h.656v4.92h-.656l-.01-.615h0Zm-.519-3.226a1.911,1.911,0,0,0-2.528,0,1.693,1.693,0,0,0-.382.575,2.424,2.424,0,0,0,0,1.608,1.617,1.617,0,0,0,.382.575,1.893,1.893,0,0,0,2.528,0,1.638,1.638,0,0,0,.382-.575,2.425,2.425,0,0,0,0-1.608A1.672,1.672,0,0,0,489.883,206.5Z" transform="translate(-463.115 -202.81)" fill="#404040"/>
          <path id="패스_820" data-name="패스 820" d="M559.564,205.557v.677a3.264,3.264,0,0,0-.358-.077,2.261,2.261,0,0,0-.3-.021,1.558,1.558,0,0,0-1.149.4,1.281,1.281,0,0,0-.316.5,2.3,2.3,0,0,0-.112.779v2.655h-.651v-4.924h.651V206l-.05.066a.321.321,0,0,0-.035.05s.01,0,.021-.015l.035-.035a1.972,1.972,0,0,1,.7-.438,2.408,2.408,0,0,1,.791-.148v0h.235v0a3.9,3.9,0,0,1,.54.071h0Z" transform="translate(-523.224 -202.912)" fill="#404040"/>
          <path id="패스_821" data-name="패스 821" d="M610.126,196.573h.667v1.359H612v.651h-1.205V201a2.56,2.56,0,0,0,.066.651,1.028,1.028,0,0,0,.173.376.587.587,0,0,0,.519.218.786.786,0,0,0,.382-.077,1.528,1.528,0,0,0,.33-.28l.468.478a2.259,2.259,0,0,1-.524.394,1.369,1.369,0,0,1-.656.15,1.471,1.471,0,0,1-.565-.115,1.157,1.157,0,0,1-.478-.363,2.286,2.286,0,0,1-.382-1.435v-2.416h-.906v-.651h.906v-1.356Z" transform="translate(-568.014 -195.316)" fill="#404040"/>
          <path id="패스_822" data-name="패스 822" d="M667.67,189.072a3.633,3.633,0,0,1,1.229-.745,4.227,4.227,0,0,1,1.468-.257,3.889,3.889,0,0,1,1.323.236,4.787,4.787,0,0,1,1.307.745l-.407.53a4.18,4.18,0,0,0-1.117-.653,3.156,3.156,0,0,0-1.106-.2,3.21,3.21,0,0,0-2.244.829,2.776,2.776,0,0,0-.682.977,3.8,3.8,0,0,0,0,2.685,2.809,2.809,0,0,0,.682.977,3.2,3.2,0,0,0,2.244.829,3.016,3.016,0,0,0,1.208-.232,4.424,4.424,0,0,0,1.015-.614l.407.53a5.215,5.215,0,0,1-.763.5,4.174,4.174,0,0,1-.87.348,3.663,3.663,0,0,1-1,.13,4.227,4.227,0,0,1-1.468-.257,3.656,3.656,0,0,1-1.229-.745,3.52,3.52,0,0,1-.835-1.208,4.339,4.339,0,0,1,0-3.2,3.518,3.518,0,0,1,.835-1.211Z" transform="translate(-616.87 -188.07)" fill="#404040"/>
          <path id="패스_823" data-name="패스 823" d="M746.05,198.492a.4.4,0,0,1,.13-.292.409.409,0,0,1,.292-.13.4.4,0,0,1,.292.13.4.4,0,0,1,0,.587.388.388,0,0,1-.584,0A.418.418,0,0,1,746.05,198.492Zm.1.717h.656v4.919h-.656v-4.92Z" transform="translate(-684.66 -196.595)" fill="#404040"/>
          <path id="패스_824" data-name="패스 824" d="M786.536,196.573h.667v1.359h1.205v.651H787.2V201a2.564,2.564,0,0,0,.066.651,1.029,1.029,0,0,0,.173.376.587.587,0,0,0,.519.218.786.786,0,0,0,.382-.077,1.529,1.529,0,0,0,.33-.28l.468.478a2.257,2.257,0,0,1-.524.394,1.369,1.369,0,0,1-.656.15,1.477,1.477,0,0,1-.565-.115,1.157,1.157,0,0,1-.478-.363,2.285,2.285,0,0,1-.382-1.435v-2.416h-.906v-.651h.906v-1.356Z" transform="translate(-718.402 -195.316)" fill="#404040"/>
          <path id="패스_825" data-name="패스 825" d="M843.52,198.492a.4.4,0,0,1,.13-.292.409.409,0,0,1,.292-.13.4.4,0,0,1,.292.13.4.4,0,0,1,0,.587.388.388,0,0,1-.584,0A.418.418,0,0,1,843.52,198.492Zm.1.717h.656v4.919h-.656v-4.92Z" transform="translate(-767.752 -196.595)" fill="#404040"/>
          <path id="패스_826" data-name="패스 826" d="M885.416,206.026a2.181,2.181,0,0,1,.766-.5,2.536,2.536,0,0,1,.934-.173,2.3,2.3,0,0,1,.9.176,2.129,2.129,0,0,1,.742.506,2.359,2.359,0,0,1,.485.8,2.966,2.966,0,0,1,.175,1.04v.2H885.4a1.691,1.691,0,0,0,.53,1.18,1.86,1.86,0,0,0,1.317.484,2.466,2.466,0,0,0,.836-.13,2.385,2.385,0,0,0,.735-.445l.428.509a3.028,3.028,0,0,1-2,.733,2.768,2.768,0,0,1-.969-.17,2.309,2.309,0,0,1-1.35-1.305,2.712,2.712,0,0,1-.2-1.053,2.536,2.536,0,0,1,.687-1.847h0Zm2.859.463a1.513,1.513,0,0,0-1.159-.474,1.616,1.616,0,0,0-1.683,1.4h3.291a1.683,1.683,0,0,0-.447-.931Z" transform="translate(-802.883 -202.801)" fill="#404040"/>
          <path id="패스_827" data-name="패스 827" d="M951.373,205.585a2.61,2.61,0,0,1,1.3-.305,2.963,2.963,0,0,1,1.047.19,2.265,2.265,0,0,1,.875.583l-.494.447a1.628,1.628,0,0,0-.618-.4,2.2,2.2,0,0,0-.811-.15,1.791,1.791,0,0,0-.962.214.443.443,0,0,0-.274.382.388.388,0,0,0,.046.2.678.678,0,0,0,.173.178,3.337,3.337,0,0,0,.864.417l.717.26a3.231,3.231,0,0,1,.991.513,1.294,1.294,0,0,1,.32.407,1.107,1.107,0,0,1,.122.509.959.959,0,0,1-.175.555,1.437,1.437,0,0,1-.445.417,2.581,2.581,0,0,1-1.353.336,3.265,3.265,0,0,1-1-.137,3.081,3.081,0,0,1-.707-.316,2.655,2.655,0,0,1-.425-.32l.453-.484a1.721,1.721,0,0,0,.31.236,2.5,2.5,0,0,0,.555.245,2.7,2.7,0,0,0,.814.109,1.827,1.827,0,0,0,1.008-.235.734.734,0,0,0,.235-.2.368.368,0,0,0,.066-.207.473.473,0,0,0-.046-.221.662.662,0,0,0-.162-.186,2.505,2.505,0,0,0-.783-.4l-.717-.26a3.769,3.769,0,0,1-1.053-.524,1.27,1.27,0,0,1-.338-.4,1.022,1.022,0,0,1-.13-.5.956.956,0,0,1,.168-.549,1.344,1.344,0,0,1,.432-.407Z" transform="translate(-859.003 -202.741)" fill="#404040"/>
        </g>
        <path id="패스_828" data-name="패스 828" d="M40.284,2.094v-.01l0-.035c-.043-.28-.089-.556-.137-.833a.073.073,0,0,0-.006-.019,1.5,1.5,0,0,0-.044-.159C40.08,1,40.07.956,40.055.917A1.282,1.282,0,0,0,39.99.79C39.968.748,39.948.7,39.922.663S39.874.6,39.849.571s-.066-.087-.1-.125S39.689.4,39.661.373,39.577.3,39.532.265s-.065-.037-.1-.055a1.6,1.6,0,0,0-.149-.081c-.032-.015-.068-.022-.1-.034a1.736,1.736,0,0,0-.17-.053c-.034-.007-.069-.009-.1-.013A1.563,1.563,0,0,0,38.726.01H1.916a1.261,1.261,0,0,0-.183.019c-.035,0-.072.006-.106.013a1.524,1.524,0,0,0-.159.049C1.429.1,1.391.113,1.354.129S1.269.175,1.226.2,1.145.24,1.108.265,1.034.326,1,.355A1.205,1.205,0,0,0,.9.444C.861.478.835.517.8.554A1.191,1.191,0,0,0,.718.662,1.279,1.279,0,0,0,.655.779,1.466,1.466,0,0,0,.586.914C.571.951.562.991.55,1.031A1.286,1.286,0,0,0,.5,1.195C.5,1.2.5,1.206.5,1.214.45,1.49.4,1.767.361,2.049a.267.267,0,0,1,0,.034v.01a32.476,32.476,0,0,0,15.956,32.97,32.117,32.117,0,0,0,3.437,1.71c.034.015.069.021.1.032s.065.022.1.031a1.438,1.438,0,0,0,.367.055h0a1.449,1.449,0,0,0,.369-.055c.034-.009.065-.019.1-.029s.069-.018.1-.032a32.188,32.188,0,0,0,3.434-1.707A32.553,32.553,0,0,0,40.638,6.909,32.642,32.642,0,0,0,40.282,2.1h0ZM32.545,9.858A5.374,5.374,0,0,1,24.451,14.5,31.033,31.033,0,0,1,31.91,7.33a5.373,5.373,0,0,1,.636,2.527h0Zm-.965-5.791-.015.009c-.01.007-.022.012-.032.019a33.912,33.912,0,0,0-10.3,9.9l-.024.037s0,0,0,0c-.307.459-.6.931-.888,1.409-.286-.476-.58-.948-.888-1.406,0,0,0,0,0,0s-.015-.024-.024-.035a33.852,33.852,0,0,0-10.3-9.9c-.01-.007-.022-.012-.032-.019l-.015-.009C8.4,3.664,7.716,3.286,7.027,2.926H33.609c-.689.358-1.367.735-2.028,1.14h0ZM8.728,7.335a31,31,0,0,1,7.457,7.172A5.375,5.375,0,0,1,8.73,7.335h0Zm14.142,25.2c-.829.475-1.686.9-2.55,1.288-.866-.389-1.724-.814-2.553-1.291A29.625,29.625,0,0,1,2.918,6.908c0-.878.043-1.754.119-2.623A30.417,30.417,0,0,1,6.24,5.81,8.291,8.291,0,0,0,17.8,16.94c.428.714.838,1.441,1.207,2.189,0,.01.013.016.018.027a1.407,1.407,0,0,0,.207.3c.016.018.035.032.052.049a1.447,1.447,0,0,0,.226.184.957.957,0,0,0,.091.058c.024.013.044.031.068.043a1.759,1.759,0,0,0,.168.06c.038.013.074.031.114.041a1.465,1.465,0,0,0,.364.05h0a1.463,1.463,0,0,0,.363-.05,1.2,1.2,0,0,0,.115-.041,1.294,1.294,0,0,0,.165-.059c.025-.012.046-.03.069-.043s.062-.037.091-.058a1.447,1.447,0,0,0,.226-.184c.018-.018.035-.031.053-.05a1.435,1.435,0,0,0,.207-.3c.006-.01.013-.016.019-.027.37-.749.782-1.478,1.211-2.193A8.29,8.29,0,0,0,34.4,5.809a30.873,30.873,0,0,1,3.2-1.524c.077.869.119,1.747.119,2.623a29.631,29.631,0,0,1-14.85,25.627h0Z" transform="translate(0 -0.01)" fill="url(#linear-gradient)"/>
      </g>
    </g>
  </g>
</svg>
