<svg id="그룹_2701" data-name="그룹 2701" xmlns="http://www.w3.org/2000/svg" xmlns:xlink="http://www.w3.org/1999/xlink" width="124.142" height="24.489" viewBox="0 0 124.142 24.489">
  <defs>
    <clipPath id="clip-path">
      <rect id="사각형_467" data-name="사각형 467" width="124.142" height="24.489" fill="none"/>
    </clipPath>
  </defs>
  <path id="패스_755" data-name="패스 755" d="M0,1.789V25.551H16.132V21.991H4.218V1.789Z" transform="translate(0 -1.425)" fill="#002a69"/>
  <rect id="사각형_466" data-name="사각형 466" width="4.219" height="23.763" transform="translate(18.85 0.364)" fill="#002a69"/>
  <g id="그룹_2700" data-name="그룹 2700" transform="translate(0 0)">
    <g id="그룹_2699" data-name="그룹 2699" clip-path="url(#clip-path)">
      <path id="패스_756" data-name="패스 756" d="M150.068,2.672,147.792,5.9a8.588,8.588,0,0,0-5.833-2.077c-3.657,0-6.328,1.35-6.328,7.381v2.438c0,5.176,2.736,7.022,6.592,7.022a10.131,10.131,0,0,0,3.889-.692V14.3h-4.977V10.747H150.3V22.313a15.959,15.959,0,0,1-8.272,2.176c-6.031,0-10.612-2.9-10.612-9.985V10.251C131.413,3.132,135.861,0,141.959,0a12.557,12.557,0,0,1,8.109,2.672" transform="translate(-104.687 0)" fill="#002a69"/>
      <path id="패스_757" data-name="패스 757" d="M480.539,38.071l5.735,9.428H481.33l-3.593-6.625L474.113,47.5h-4.68l5.866-9.428-5.635-8.732h4.977l3.395,6.064,3.493-6.064h4.58Z" transform="translate(-373.961 -23.372)" fill="#002a69"/>
      <path id="패스_758" data-name="패스 758" d="M565.865,1.789l-6.7,3.725,2.034,3.41,4.169-2.389V25.546h4.217V1.789Z" transform="translate(-445.448 -1.425)" fill="#002a69"/>
      <path id="패스_759" data-name="패스 759" d="M401.086,44.271a12.75,12.75,0,0,1-7.452,1.944c-4.184,0-8.3-1.978-8.3-8.47v-1.88c0-5.9,3.659-8.466,8.273-8.466s7.943,2.669,7.943,7.974v3h-12c0,2.9,1.417,4.384,4.317,4.384a10.023,10.023,0,0,0,5.5-1.483Zm-3.758-9.029v-.791c0-1.945-.89-3.628-3.79-3.628-2.768,0-3.988,1.683-3.988,3.727v.692Z" transform="translate(-306.964 -21.827)" fill="#002a69"/>
      <path id="패스_760" data-name="패스 760" d="M293.671,1.789H293.4V18.4L284.046,1.789H279.2V25.552h4.218V8.958l9.359,16.594h4.845V1.789Z" transform="translate(-222.419 -1.425)" fill="#002a69"/>
    </g>
  </g>
</svg>
