<svg id="그룹_2657" data-name="그룹 2657" xmlns="http://www.w3.org/2000/svg" xmlns:xlink="http://www.w3.org/1999/xlink" width="148.619" height="21.782" viewBox="0 0 148.619 21.782">
  <defs>
    <clipPath id="clip-path">
      <rect id="사각형_371" data-name="사각형 371" width="148.619" height="21.782" fill="none"/>
    </clipPath>
  </defs>
  <g id="그룹_2521" data-name="그룹 2521" clip-path="url(#clip-path)">
    <path id="패스_473" data-name="패스 473" d="M21.525,13.933h9.216V12H25a4.688,4.688,0,0,0-3.474,1.937" transform="translate(-9.306 -5.186)" fill="#00478f"/>
    <path id="패스_474" data-name="패스 474" d="M4.208,9.984A3.72,3.72,0,0,1,6.145,8.747H8.682s.967-.968,2.739-2.771,3-1.535,3-1.535h7.011V2.273A2.27,2.27,0,0,0,19.165,0H2.272A2.273,2.273,0,0,0,0,2.273V14.138c1.006-.983,3.353-3.272,4.208-4.153" transform="translate(0 0)" fill="#00478f"/>
    <path id="패스_475" data-name="패스 475" d="M6.179,23.287s.817-.85,1.567-1.6a2.286,2.286,0,0,1,1.8-.6H21.436V19.115H9.083a3.649,3.649,0,0,0-2.9,1.3L.033,26.593,0,26.619v.875a2.273,2.273,0,0,0,2.272,2.273H19.165a2.27,2.27,0,0,0,2.271-2.273V23.287Z" transform="translate(0 -8.264)" fill="#00478f"/>
    <path id="패스_476" data-name="패스 476" d="M123.546,2.49V3.958H134.8a.37.37,0,0,1,.31.4v7.546h-1.873V6.09h-2.742v5.76h-2.336V6.006h-2.818v5.9H122.7v1.383h16.362V11.88h-.975V3.613a1.082,1.082,0,0,0-1.129-1.123Z" transform="translate(-53.044 -1.077)" fill="#1a1818"/>
    <path id="패스_477" data-name="패스 477" d="M195.923,1.936V3.341h11.3a.323.323,0,0,1,.237.339V5.859h-3.947V3.971h-3.19V5.81h-5.132V7.36h16.066v-1.5h-.692V2.953s.065-1.017-1.337-1.017Z" transform="translate(-84.384 -0.837)" fill="#1a1818"/>
    <path id="패스_478" data-name="패스 478" d="M203.708,16.21c-2.44,0-4.421-.7-4.421-1.572s1.981-1.575,4.421-1.575,4.422.7,4.422,1.575-1.98,1.572-4.422,1.572m-.054-4.334c-4.149,0-7.515,1.3-7.515,2.9s3.366,2.892,7.515,2.892,7.517-1.295,7.517-2.892-3.366-2.9-7.517-2.9" transform="translate(-84.794 -5.134)" fill="#1a1818"/>
    <path id="패스_479" data-name="패스 479" d="M63.792,6.926H54.777V4.677h9.015Zm-.02-4.576V3.488H54.777V2.251H51.889s-.022,3.442-.022,4.556c0,1.332,1.552,1.259,1.552,1.259H66.682V2.35Z" transform="translate(-22.423 -0.973)" fill="#1a1818"/>
    <path id="패스_480" data-name="패스 480" d="M66.846,14.626h-16.5v1.309h6.685v2.738h3.083V15.935h6.73Z" transform="translate(-21.766 -6.323)" fill="#1a1818"/>
    <path id="패스_481" data-name="패스 481" d="M233.5,2.361h3.085V7.568c.387,1.089.925,3.731,5.065,4.478h.174v1.14a8.2,8.2,0,0,1-6.556-2.518h-.3a7.73,7.73,0,0,1-5.242,2.4V11.951s2.717-.579,3.774-4.31Z" transform="translate(-99.316 -1.021)" fill="#1a1818"/>
    <path id="패스_482" data-name="패스 482" d="M257.177,5.333h-2.245V1.676h-3.019V13.4h3.019V6.716h2.245Z" transform="translate(-108.906 -0.725)" fill="#1a1818"/>
    <path id="패스_483" data-name="패스 483" d="M90.027,2.508h3.105a4.671,4.671,0,0,0,1.81,3.464,7.043,7.043,0,0,0,2.8,1.356V8.539a8.84,8.84,0,0,1-6.191-2.228A8.238,8.238,0,0,1,85.477,8.49V7.209s4.268-.8,4.55-4.7" transform="translate(-36.953 -1.084)" fill="#1a1818"/>
    <path id="패스_484" data-name="패스 484" d="M112.721,4.16h-1.877v-2.2h-3.1V9.1h3.1V5.661h1.877Z" transform="translate(-46.578 -0.846)" fill="#1a1818"/>
    <path id="패스_485" data-name="패스 485" d="M86.854,14.45l3.1-.035v2.859h11.925v1.477H88.763s-1.918-.051-1.918-1.574Z" transform="translate(-37.545 -6.232)" fill="#1a1818"/>
    <path id="패스_486" data-name="패스 486" d="M159.3,1.549h15.176v1.36h-12.09v.678H174.44V4.839H162.349v.534H174.44v1.18H168.33V7.2H175.2V8.3H158.594V7.09h6.586V6.517h-4.294s-1.59-.107-1.59-1.5Z" transform="translate(-68.563 -0.67)" fill="#1a1818"/>
    <path id="패스_487" data-name="패스 487" d="M167.686,17.935c-.363,0-4.574.131-4.532-1.516.04-1.433,4.381-1.284,4.417-1.284,0,0,4.453-.106,4.494,1.412.039,1.452-4.017,1.388-4.379,1.388m-.14-3.74c-.063,0-7.318-.249-7.381,2.146-.073,2.748,6.964,2.536,7.572,2.536s7.382.108,7.32-2.322c-.066-2.538-7.51-2.36-7.51-2.36" transform="translate(-69.242 -6.134)" fill="#1a1818"/>
    <path id="패스_488" data-name="패스 488" d="M51.365,32.492h1.309a.83.83,0,0,0,.57-.169.658.658,0,0,0,.2-.534.494.494,0,0,0-.229-.434.865.865,0,0,0-.489-.126H51.365Zm0-2.045H52.63a.85.85,0,0,0,.494-.126.446.446,0,0,0,.212-.4.44.44,0,0,0-.2-.4,1.052,1.052,0,0,0-.54-.106H51.365ZM50.386,28.6h2.439a1.535,1.535,0,0,1,1.18.42,1.087,1.087,0,0,1,.3.774,1.057,1.057,0,0,1-.221.706,1.149,1.149,0,0,1-.369.269v.006a1.037,1.037,0,0,1,.6.463,1.255,1.255,0,0,1,.159.661,1.267,1.267,0,0,1-.122.54,1.194,1.194,0,0,1-.307.431,1.337,1.337,0,0,1-.494.306,3.615,3.615,0,0,1-1.024.112H50.386Z" transform="translate(-21.783 -12.366)" fill="#1a1818"/>
    <path id="패스_489" data-name="패스 489" d="M62.584,34.17h-.912v-.48h-.01a1.164,1.164,0,0,1-.452.427,1.376,1.376,0,0,1-.661.154,1.224,1.224,0,0,1-.887-.311,1.293,1.293,0,0,1-.341-.969V30.606h.941v2.248a.6.6,0,0,0,.209.518.691.691,0,0,0,.44.119.676.676,0,0,0,.468-.166.766.766,0,0,0,.258-.628V30.606h.947Z" transform="translate(-25.645 -13.232)" fill="#1a1818"/>
    <path id="패스_490" data-name="패스 490" d="M68.918,31.762a.58.58,0,0,0-.142-.322,1.023,1.023,0,0,0-.981-.022.26.26,0,0,0-.1.224c0,.1.077.172.231.227a3.1,3.1,0,0,0,.546.14,3.639,3.639,0,0,1,.972.286.819.819,0,0,1,.5.762,1.037,1.037,0,0,1-.572.981,2.027,2.027,0,0,1-1,.229A2.287,2.287,0,0,1,67.208,34a1.054,1.054,0,0,1-.563-.95h.978a.432.432,0,0,0,.165.37,1.008,1.008,0,0,0,.618.149.756.756,0,0,0,.484-.132.292.292,0,0,0,.127-.23c0-.11-.082-.195-.241-.259a4.8,4.8,0,0,0-.566-.137,3.742,3.742,0,0,1-.954-.28.823.823,0,0,1-.477-.766,1.067,1.067,0,0,1,.3-.776,1.544,1.544,0,0,1,1.15-.391,2.182,2.182,0,0,1,1.037.211,1.088,1.088,0,0,1,.571.949Z" transform="translate(-28.812 -13.23)" fill="#1a1818"/>
    <path id="패스_491" data-name="패스 491" d="M76.071,32.471a.659.659,0,0,1-.21.1,2.918,2.918,0,0,1-.426.09,1.326,1.326,0,0,0-.456.143.419.419,0,0,0-.19.38.4.4,0,0,0,.144.336.471.471,0,0,0,.294.093.915.915,0,0,0,.577-.187.6.6,0,0,0,.267-.5Zm.919,1.018a1.034,1.034,0,0,0,.057.4.293.293,0,0,0,.148.138v.126h-1.01c-.03-.081-.049-.145-.064-.191s-.016-.114-.024-.2a2.145,2.145,0,0,1-.427.329,1.482,1.482,0,0,1-.737.181,1.135,1.135,0,0,1-.749-.248.93.93,0,0,1-.343-.775,1.034,1.034,0,0,1,.3-.778,1.252,1.252,0,0,1,.743-.335l.854-.119a.782.782,0,0,0,.221-.076.224.224,0,0,0,.114-.192.342.342,0,0,0-.223-.347.978.978,0,0,0-.395-.06.588.588,0,0,0-.464.162.529.529,0,0,0-.122.323h-.907a1.212,1.212,0,0,1,.559-1.009,2.11,2.11,0,0,1,1.043-.211,2.082,2.082,0,0,1,.9.18.87.87,0,0,1,.526.831Z" transform="translate(-31.922 -13.23)" fill="#1a1818"/>
    <path id="패스_492" data-name="패스 492" d="M84.538,34.152H83.6v-2.1a.911.911,0,0,0-.09-.435.543.543,0,0,0-.521-.244.739.739,0,0,0-.539.2.807.807,0,0,0-.216.6v1.977h-.941V30.7H82.2v.508h.008a1.407,1.407,0,0,1,.336-.381,1.223,1.223,0,0,1,.745-.225,1.309,1.309,0,0,1,.89.293,1.092,1.092,0,0,1,.362.874Z" transform="translate(-35.143 -13.229)" fill="#1a1818"/>
    <path id="패스_493" data-name="패스 493" d="M94.824,33.287H93.805V29.434H92.3V28.6h4.019v.829h-1.5Z" transform="translate(-39.905 -12.366)" fill="#1a1818"/>
    <path id="패스_494" data-name="패스 494" d="M100.931,30.7h.908v.6h.005a1.664,1.664,0,0,1,.358-.491,1,1,0,0,1,.66-.211l.184.016v.937a.705.705,0,0,0-.139-.026h-.123a.92.92,0,0,0-.749.27.866.866,0,0,0-.158.561v1.793h-.946Z" transform="translate(-43.634 -13.229)" fill="#1a1818"/>
    <path id="패스_495" data-name="패스 495" d="M108.061,32.471a.656.656,0,0,1-.212.1,2.86,2.86,0,0,1-.422.09,1.364,1.364,0,0,0-.459.143.423.423,0,0,0-.19.38.4.4,0,0,0,.145.336.461.461,0,0,0,.291.093.913.913,0,0,0,.577-.187.6.6,0,0,0,.27-.5Zm.919,1.018a1.021,1.021,0,0,0,.057.4.3.3,0,0,0,.145.138v.126h-1.011c-.027-.081-.05-.145-.062-.191s-.016-.114-.024-.2a2.4,2.4,0,0,1-.425.329,1.5,1.5,0,0,1-.738.181,1.14,1.14,0,0,1-.749-.248.927.927,0,0,1-.345-.775,1.039,1.039,0,0,1,.3-.778,1.247,1.247,0,0,1,.744-.335l.85-.119a.763.763,0,0,0,.225-.076.221.221,0,0,0,.115-.192.343.343,0,0,0-.223-.347.983.983,0,0,0-.4-.06.588.588,0,0,0-.464.162.511.511,0,0,0-.12.323h-.909a1.217,1.217,0,0,1,.559-1.009,2.113,2.113,0,0,1,1.045-.211,2.078,2.078,0,0,1,.9.18.87.87,0,0,1,.526.831Z" transform="translate(-45.751 -13.23)" fill="#1a1818"/>
    <path id="패스_496" data-name="패스 496" d="M116.527,34.152h-.94v-2.1a1.034,1.034,0,0,0-.09-.435.546.546,0,0,0-.521-.244.743.743,0,0,0-.542.2.809.809,0,0,0-.216.6v1.977h-.941V30.7h.91v.508h.005a1.377,1.377,0,0,1,.339-.381,1.219,1.219,0,0,1,.743-.225,1.311,1.311,0,0,1,.891.293,1.091,1.091,0,0,1,.362.874Z" transform="translate(-48.972 -13.229)" fill="#1a1818"/>
    <path id="패스_497" data-name="패스 497" d="M122.874,31.762a.6.6,0,0,0-.141-.322.745.745,0,0,0-.5-.136.755.755,0,0,0-.482.115.268.268,0,0,0-.1.224c0,.1.078.172.231.227a3.079,3.079,0,0,0,.545.14,3.656,3.656,0,0,1,.974.286.821.821,0,0,1,.5.762,1.038,1.038,0,0,1-.571.981,2.024,2.024,0,0,1-1,.229A2.29,2.29,0,0,1,121.165,34a1.06,1.06,0,0,1-.566-.95h.98a.433.433,0,0,0,.166.37,1,1,0,0,0,.617.149.746.746,0,0,0,.483-.132.286.286,0,0,0,.125-.23c0-.11-.079-.195-.243-.259a4.45,4.45,0,0,0-.565-.137,3.779,3.779,0,0,1-.952-.28.824.824,0,0,1-.477-.766,1.066,1.066,0,0,1,.305-.776,1.539,1.539,0,0,1,1.15-.391,2.2,2.2,0,0,1,1.037.211,1.1,1.1,0,0,1,.572.949Z" transform="translate(-52.137 -13.23)" fill="#1a1818"/>
    <path id="패스_498" data-name="패스 498" d="M129.22,33.2a.728.728,0,0,0,.635.31.667.667,0,0,0,.617-.377,1.33,1.33,0,0,0,.166-.676,1.348,1.348,0,0,0-.179-.744.774.774,0,0,0-1.27.019,1.573,1.573,0,0,0-.159.766,1.207,1.207,0,0,0,.19.7m-.19-2.009h.006a1.5,1.5,0,0,1,.366-.4,1.274,1.274,0,0,1,.712-.2,1.358,1.358,0,0,1,1.043.446,1.883,1.883,0,0,1,.454,1.345,2.206,2.206,0,0,1-.362,1.3,1.326,1.326,0,0,1-1.152.578,1.168,1.168,0,0,1-.713-.2,1.3,1.3,0,0,1-.311-.341h-.006v1.287h-.941V30.7h.9Z" transform="translate(-55.391 -13.229)" fill="#1a1818"/>
    <path id="패스_499" data-name="패스 499" d="M137.915,31.733a.716.716,0,0,0-.667-.358.731.731,0,0,0-.686.358,1.472,1.472,0,0,0-.147.706,1.45,1.45,0,0,0,.147.687.73.73,0,0,0,.686.362.715.715,0,0,0,.667-.362,1.377,1.377,0,0,0,.152-.687,1.424,1.424,0,0,0-.152-.706m.565,2.088a1.756,1.756,0,0,1-1.232.448,1.811,1.811,0,0,1-1.261-.448,2.019,2.019,0,0,1,0-2.774,1.813,1.813,0,0,1,1.261-.446,1.757,1.757,0,0,1,1.232.446,2.016,2.016,0,0,1,0,2.774" transform="translate(-58.551 -13.23)" fill="#1a1818"/>
    <path id="패스_500" data-name="패스 500" d="M143.421,30.7h.909v.6h.007a1.634,1.634,0,0,1,.357-.491,1.013,1.013,0,0,1,.662-.211l.183.016v.937a.717.717,0,0,0-.138-.026h-.125a.921.921,0,0,0-.749.27.88.88,0,0,0-.156.561v1.793h-.951Z" transform="translate(-62.003 -13.229)" fill="#1a1818"/>
    <path id="패스_501" data-name="패스 501" d="M149.414,29.979H150v.652h-.585v1.985c0,.114.016.187.051.213a.543.543,0,0,0,.342.068l.192-.014v.682l-.186.007-.26.017h-.115a1.161,1.161,0,0,1-.8-.21.707.707,0,0,1-.179-.543V30.631h-.477v-.652h.477v-.946h.955Z" transform="translate(-63.975 -12.552)" fill="#1a1818"/>
    <path id="패스_502" data-name="패스 502" d="M155.324,32.471a.644.644,0,0,1-.208.1,3.033,3.033,0,0,1-.429.09,1.326,1.326,0,0,0-.455.143.424.424,0,0,0-.191.38.4.4,0,0,0,.146.336.464.464,0,0,0,.29.093.925.925,0,0,0,.581-.187.6.6,0,0,0,.266-.5Zm.919,1.018a1.092,1.092,0,0,0,.057.4.3.3,0,0,0,.147.138v.126h-1.01c-.028-.081-.051-.145-.062-.191s-.018-.114-.026-.2a2.2,2.2,0,0,1-.427.329,1.474,1.474,0,0,1-.735.181,1.146,1.146,0,0,1-.751-.248.934.934,0,0,1-.344-.775,1.042,1.042,0,0,1,.3-.778,1.262,1.262,0,0,1,.746-.335l.85-.119a.763.763,0,0,0,.223-.076.222.222,0,0,0,.115-.192.341.341,0,0,0-.224-.347.967.967,0,0,0-.393-.06.585.585,0,0,0-.465.162.543.543,0,0,0-.121.323h-.907a1.213,1.213,0,0,1,.559-1.009,2.115,2.115,0,0,1,1.044-.211,2.065,2.065,0,0,1,.9.18.873.873,0,0,1,.526.831Z" transform="translate(-66.184 -13.23)" fill="#1a1818"/>
    <path id="패스_503" data-name="패스 503" d="M161.349,29.979h.585v.652h-.585v1.985c0,.114.015.187.049.213a.558.558,0,0,0,.345.068l.191-.014v.682l-.188.007-.258.017h-.115a1.161,1.161,0,0,1-.8-.21.707.707,0,0,1-.18-.543V30.631h-.477v-.652h.477v-.946h.957Z" transform="translate(-69.134 -12.552)" fill="#1a1818"/>
    <path id="패스_504" data-name="패스 504" d="M165.668,29.865h.948v3.424h-.948Zm.948-.406h-.948V28.6h.948Z" transform="translate(-71.621 -12.366)" fill="#1a1818"/>
    <path id="패스_505" data-name="패스 505" d="M171.809,31.733a.713.713,0,0,0-.668-.358.733.733,0,0,0-.686.358,1.473,1.473,0,0,0-.145.706,1.45,1.45,0,0,0,.145.687.732.732,0,0,0,.686.362.712.712,0,0,0,.668-.362,1.371,1.371,0,0,0,.154-.687,1.417,1.417,0,0,0-.154-.706m.565,2.088a1.752,1.752,0,0,1-1.233.448,1.807,1.807,0,0,1-1.257-.448,2.02,2.02,0,0,1,0-2.774,1.808,1.808,0,0,1,1.257-.446,1.753,1.753,0,0,1,1.233.446,2.014,2.014,0,0,1,0,2.774" transform="translate(-73.205 -13.23)" fill="#1a1818"/>
    <path id="패스_506" data-name="패스 506" d="M180.5,34.152h-.941v-2.1a.979.979,0,0,0-.089-.435.548.548,0,0,0-.521-.244.747.747,0,0,0-.542.2.816.816,0,0,0-.216.6v1.977h-.941V30.7h.908v.508h.007a1.347,1.347,0,0,1,.337-.381,1.22,1.22,0,0,1,.747-.225,1.3,1.3,0,0,1,.886.293,1.092,1.092,0,0,1,.364.874Z" transform="translate(-76.627 -13.229)" fill="#1a1818"/>
    <path id="패스_507" data-name="패스 507" d="M191.8,30.075a1.279,1.279,0,0,0-.248-.508,1.046,1.046,0,0,0-.808-.3,1.1,1.1,0,0,0-.8.311,1.774,1.774,0,0,0-.417,1.3,1.961,1.961,0,0,0,.279,1.1,1.043,1.043,0,0,0,.933.485,1.021,1.021,0,0,0,.687-.227,1.136,1.136,0,0,0,.368-.656h1.021a2.193,2.193,0,0,1-.679,1.247,2.053,2.053,0,0,1-1.423.493,2.08,2.08,0,0,1-1.595-.631,2.555,2.555,0,0,1-.623-1.835,2.508,2.508,0,0,1,.643-1.822,2.1,2.1,0,0,1,1.583-.62,2.147,2.147,0,0,1,1.567.566,1.71,1.71,0,0,1,.527,1.094Z" transform="translate(-81.491 -12.284)" fill="#1a1818"/>
    <path id="패스_508" data-name="패스 508" d="M199.969,31.733a.714.714,0,0,0-.666-.358.734.734,0,0,0-.686.358,1.44,1.44,0,0,0-.146.706,1.417,1.417,0,0,0,.146.687.733.733,0,0,0,.686.362.713.713,0,0,0,.666-.362,1.354,1.354,0,0,0,.152-.687,1.4,1.4,0,0,0-.152-.706m.564,2.088a1.751,1.751,0,0,1-1.231.448,1.8,1.8,0,0,1-1.259-.448,2.017,2.017,0,0,1,0-2.774A1.8,1.8,0,0,1,199.3,30.6a1.752,1.752,0,0,1,1.231.446,2.014,2.014,0,0,1,0,2.774" transform="translate(-85.379 -13.23)" fill="#1a1818"/>
    <path id="패스_509" data-name="패스 509" d="M205.477,30.7h.911v.6h.006a1.588,1.588,0,0,1,.353-.491,1.009,1.009,0,0,1,.662-.211l.184.016v.937a.706.706,0,0,0-.139-.026h-.12a.922.922,0,0,0-.75.27.883.883,0,0,0-.161.561v1.793h-.945Z" transform="translate(-88.831 -13.229)" fill="#1a1818"/>
    <path id="패스_510" data-name="패스 510" d="M226.451,30.7h.911v.6h.006a1.635,1.635,0,0,1,.354-.491,1.009,1.009,0,0,1,.661-.211l.186.016v.937a.757.757,0,0,0-.141-.026h-.121a.925.925,0,0,0-.75.27.883.883,0,0,0-.159.561v1.793h-.948Z" transform="translate(-97.899 -13.229)" fill="#1a1818"/>
    <path id="패스_511" data-name="패스 511" d="M211.8,33.2a.726.726,0,0,0,.636.31.671.671,0,0,0,.618-.377,1.347,1.347,0,0,0,.165-.676,1.368,1.368,0,0,0-.178-.744.776.776,0,0,0-1.273.019,1.536,1.536,0,0,0-.158.766,1.211,1.211,0,0,0,.19.7m-.192-2.009h0a1.569,1.569,0,0,1,.37-.4,1.267,1.267,0,0,1,.712-.2,1.357,1.357,0,0,1,1.044.446,1.887,1.887,0,0,1,.451,1.345,2.162,2.162,0,0,1-.363,1.3,1.315,1.315,0,0,1-1.148.578,1.168,1.168,0,0,1-.714-.2,1.244,1.244,0,0,1-.31-.341h-.009v1.287h-.94V30.7h.9Z" transform="translate(-91.091 -13.229)" fill="#1a1818"/>
    <path id="패스_512" data-name="패스 512" d="M220.49,31.733a.71.71,0,0,0-.666-.358.733.733,0,0,0-.686.358,1.434,1.434,0,0,0-.146.706,1.411,1.411,0,0,0,.146.687.732.732,0,0,0,.686.362.709.709,0,0,0,.666-.362,1.359,1.359,0,0,0,.154-.687,1.405,1.405,0,0,0-.154-.706m.568,2.088a1.761,1.761,0,0,1-1.235.448,1.807,1.807,0,0,1-1.259-.448,2.014,2.014,0,0,1,0-2.774,1.808,1.808,0,0,1,1.259-.446,1.762,1.762,0,0,1,1.235.446,2.02,2.02,0,0,1,0,2.774" transform="translate(-94.25 -13.23)" fill="#1a1818"/>
    <path id="패스_513" data-name="패스 513" d="M234.15,32.471a.657.657,0,0,1-.209.1,2.939,2.939,0,0,1-.427.09,1.33,1.33,0,0,0-.455.143.417.417,0,0,0-.191.38.406.406,0,0,0,.143.336.474.474,0,0,0,.293.093.921.921,0,0,0,.579-.187.6.6,0,0,0,.267-.5Zm.921,1.018a1.023,1.023,0,0,0,.057.4.283.283,0,0,0,.145.138v.126h-1.009a1.7,1.7,0,0,1-.064-.191,1.78,1.78,0,0,1-.025-.2,2.148,2.148,0,0,1-.428.329,1.48,1.48,0,0,1-.737.181,1.142,1.142,0,0,1-.748-.248.927.927,0,0,1-.343-.775,1.044,1.044,0,0,1,.3-.778,1.253,1.253,0,0,1,.743-.335l.853-.119a.8.8,0,0,0,.224-.076.223.223,0,0,0,.114-.192.343.343,0,0,0-.223-.347.977.977,0,0,0-.4-.06.585.585,0,0,0-.463.162.525.525,0,0,0-.121.323h-.908a1.232,1.232,0,0,1,.56-1.009,2.1,2.1,0,0,1,1.041-.211,2.072,2.072,0,0,1,.9.18.872.872,0,0,1,.529.831Z" transform="translate(-100.262 -13.23)" fill="#1a1818"/>
    <path id="패스_514" data-name="패스 514" d="M240.174,29.979h.585v.652h-.585v1.985c0,.114.017.187.052.213a.554.554,0,0,0,.343.068l.191-.014v.682l-.185.007-.26.017H240.2a1.171,1.171,0,0,1-.8-.21.713.713,0,0,1-.177-.543V30.631h-.479v-.652h.479v-.946h.953Z" transform="translate(-103.213 -12.552)" fill="#1a1818"/>
    <path id="패스_515" data-name="패스 515" d="M244.495,29.865h.947v3.424h-.947Zm.947-.406h-.947V28.6h.947Z" transform="translate(-105.699 -12.366)" fill="#1a1818"/>
    <path id="패스_516" data-name="패스 516" d="M250.634,31.733a.717.717,0,0,0-.667-.358.735.735,0,0,0-.689.358,1.445,1.445,0,0,0-.148.706,1.422,1.422,0,0,0,.148.687.735.735,0,0,0,.689.362.717.717,0,0,0,.667-.362,1.4,1.4,0,0,0,.152-.687,1.442,1.442,0,0,0-.152-.706m.565,2.088a1.765,1.765,0,0,1-1.234.448,1.814,1.814,0,0,1-1.26-.448,2.014,2.014,0,0,1,0-2.774,1.816,1.816,0,0,1,1.26-.446,1.766,1.766,0,0,1,1.234.446,2.02,2.02,0,0,1,0,2.774" transform="translate(-107.28 -13.23)" fill="#1a1818"/>
    <path id="패스_517" data-name="패스 517" d="M259.323,34.152h-.942v-2.1a.977.977,0,0,0-.09-.435.542.542,0,0,0-.519-.244.743.743,0,0,0-.542.2.808.808,0,0,0-.217.6v1.977h-.942V30.7h.911v.508h.006a1.332,1.332,0,0,1,.338-.381,1.213,1.213,0,0,1,.744-.225,1.315,1.315,0,0,1,.89.293,1.1,1.1,0,0,1,.362.874Z" transform="translate(-110.704 -13.229)" fill="#1a1818"/>
  </g>
</svg>
