<svg xmlns="http://www.w3.org/2000/svg" width="80.006" height="33.771" viewBox="0 0 80.006 33.771">
  <g id="그룹_994" data-name="그룹 994" transform="translate(0 0)">
    <g id="그룹_978" data-name="그룹 978" transform="translate(0 0)" opacity="0.3">
      <path id="패스_260" data-name="패스 260" d="M27.736-8.61a11.151,11.151,0,0,1-4.9,3.223,20.537,20.537,0,0,1-7.024,1.146,13.914,13.914,0,0,1-7.1-1.767A11.784,11.784,0,0,1,4-11.137a18.051,18.051,0,0,1-1.7-7.9v-2.12a19.17,19.17,0,0,1,1.574-8.084,11.643,11.643,0,0,1,4.54-5.225,13.077,13.077,0,0,1,6.949-1.81q5.546,0,8.673,2.645a11.3,11.3,0,0,1,3.7,7.7H21.483a6.217,6.217,0,0,0-1.9-3.919A6.053,6.053,0,0,0,15.551-31.1a5.7,5.7,0,0,0-4.99,2.463Q8.848-26.17,8.826-21.309v1.992q0,4.9,1.863,7.41A6.38,6.38,0,0,0,16.15-9.4q3.619,0,5.161-1.542V-16.32H15.465v-4.733H27.736Zm3.833-7.859A13.742,13.742,0,0,1,32.9-22.615a9.72,9.72,0,0,1,3.823-4.176,11.152,11.152,0,0,1,5.793-1.478,10.551,10.551,0,0,1,7.656,2.87A11.517,11.517,0,0,1,53.476-17.6l.043,1.585a12.111,12.111,0,0,1-2.977,8.555,10.347,10.347,0,0,1-7.988,3.223,10.4,10.4,0,0,1-8-3.212q-2.987-3.212-2.987-8.737Zm6.189.439A8.661,8.661,0,0,0,39-10.979a4.1,4.1,0,0,0,3.555,1.748,4.107,4.107,0,0,0,3.512-1.727q1.263-1.727,1.263-5.523A8.574,8.574,0,0,0,46.067-21.5a4.107,4.107,0,0,0-3.555-1.78A4.04,4.04,0,0,0,39-21.51,9.637,9.637,0,0,0,37.758-16.03Zm26.1,11.36h-6.21V-37.563h6.21Zm6.789,0V-23.3H67.2v-4.54h3.448v-1.97a8,8,0,0,1,2.238-6.05,8.667,8.667,0,0,1,6.264-2.152,14.468,14.468,0,0,1,3.148.428l-.064,4.8a7.89,7.89,0,0,0-1.884-.193q-3.491,0-3.491,3.276v1.863h4.6v4.54h-4.6V-4.67Z" transform="translate(-2.295 38.013)" fill="#fff"/>
    </g>
  </g>
</svg>
