<svg id="그룹_2673" data-name="그룹 2673" xmlns="http://www.w3.org/2000/svg" xmlns:xlink="http://www.w3.org/1999/xlink" width="119.145" height="32.837" viewBox="0 0 119.145 32.837">
  <defs>
    <clipPath id="clip-path">
      <rect id="사각형_438" data-name="사각형 438" width="119.145" height="32.837" fill="none"/>
    </clipPath>
  </defs>
  <g id="그룹_2672" data-name="그룹 2672" transform="translate(0 0)" clip-path="url(#clip-path)">
    <path id="패스_730" data-name="패스 730" d="M16.432,32.837A16.419,16.419,0,1,0,0,16.423,16.424,16.424,0,0,0,16.432,32.837" transform="translate(0 0)" fill="#c00c3f"/>
    <path id="패스_731" data-name="패스 731" d="M17.375,10.816V25.223h4.579v-1.3H18.694V10.816Zm-4.587,3.931A1.97,1.97,0,1,0,10.82,12.78a1.971,1.971,0,0,0,1.968,1.968" transform="translate(-1.603 -1.601)" fill="#fff"/>
    <path id="패스_732" data-name="패스 732" d="M17.557,3.144q-.327-.015-.654-.019A13.752,13.752,0,1,0,30.651,16.878v-.611H20.829v1.265h8.513c0,.028,0,.162-.005.2A12.464,12.464,0,0,1,8.085,25.689,12.462,12.462,0,0,1,16.9,4.415c.143,0,.494,0,.654.009V3.144Z" transform="translate(-0.466 -0.463)" fill="#fff"/>
    <path id="패스_733" data-name="패스 733" d="M52.241,5.564H47.305V26.937H62.469v-4.16H52.241ZM73.331,18.792h4.021V22.53a11.389,11.389,0,0,1-3.562.564c-4.444,0-5.925-2.258-5.925-6.84,0-4.373,1.41-6.949,5.854-6.949a5.714,5.714,0,0,1,5.042,2.257L81.83,8.739c-1.87-2.678-5.15-3.49-8.218-3.49-6.914,0-10.544,3.775-10.544,10.968,0,7.159,3.279,11.038,10.509,11.038,3.315,0,6.559-.846,8.322-2.079V14.805H73.331v3.987M120.866,5.531V.146h-3.973V5.531h-5.252v3.8h5.252V14.65h3.973V9.329h5.287v-3.8ZM103.4,5.554V17.9c0,3.413-1.694,5.091-4.561,5.091s-4.561-1.678-4.561-5.091V5.554H89.437v12.42c0,6.74,3.585,9.27,9.232,9.27h.348c5.648,0,9.234-2.531,9.234-9.27V5.554Z" transform="translate(-7.008 -0.022)" fill="#6d6e71"/>
  </g>
</svg>
