<svg id="그룹_2509" data-name="그룹 2509" xmlns="http://www.w3.org/2000/svg" xmlns:xlink="http://www.w3.org/1999/xlink" width="127.122" height="27.117" viewBox="0 0 127.122 27.117">
  <defs>
    <clipPath id="clip-path">
      <rect id="사각형_330" data-name="사각형 330" width="127.122" height="27.117" fill="none"/>
    </clipPath>
  </defs>
  <g id="그룹_2508" data-name="그룹 2508" transform="translate(0 0)" clip-path="url(#clip-path)">
    <path id="패스_412" data-name="패스 412" d="M13.962,13.6,12.75.238A5.6,5.6,0,0,0,9.245,7.245,5.611,5.611,0,0,0,1.393,8.582Z" transform="translate(-0.55 -0.094)" fill="#00942c"/>
    <path id="패스_413" data-name="패스 413" d="M13.058,22.361,0,19.3a5.6,5.6,0,0,0,5.545,5.535,5.611,5.611,0,0,0-1.206,7.873Z" transform="translate(0 -7.624)" fill="#00942c"/>
    <path id="패스_414" data-name="패스 414" d="M18.879,25.395,11.989,36.9a5.606,5.606,0,0,0,6.96-3.6,5.614,5.614,0,0,0,7.132,3.546Z" transform="translate(-4.736 -10.031)" fill="#00942c"/>
    <path id="패스_415" data-name="패스 415" d="M24.368,13.5,36.707,8.244a5.6,5.6,0,0,0-7.746-1.183A5.612,5.612,0,0,0,25.276,0Z" transform="translate(-9.626 0)" fill="#00942c"/>
    <path id="패스_416" data-name="패스 416" d="M24.982,22.034l8.823,10.1a5.6,5.6,0,0,0-1.277-7.73A5.615,5.615,0,0,0,38.1,18.712Z" transform="translate(-9.868 -7.391)" fill="#00942c"/>
    <path id="패스_417" data-name="패스 417" d="M57.994,5.706h7.532v2.18H60.554v8.163h6.6V5.363h2.709v4.972h1.3V5.363h2.709V21.392H71.166v-8.83h-1.3v8.83H67.158V18.312H57.994Z" transform="translate(-22.909 -2.118)" fill="#002172"/>
    <path id="패스_418" data-name="패스 418" d="M88.705,5.362V7.589h5.306l-5.306,5.352,1.865,1.652,3.859-3.971,3.822,3.971,1.892-1.652L95.06,7.589h5.083V5.362Z" transform="translate(-35.04 -2.118)" fill="#002172"/>
    <path id="패스_419" data-name="패스 419" d="M91.42,22.229v5.825h14.433V25.647H93.943V22.229Z" transform="translate(-36.112 -8.781)" fill="#002172"/>
    <path id="패스_420" data-name="패스 420" d="M106.2,8.5v2.045h2.783v6.127h2.708V4.749h-2.708V8.5Z" transform="translate(-41.951 -1.876)" fill="#002172"/>
    <path id="패스_421" data-name="패스 421" d="M120.5,5.12V7.347h8.757v3.2h-3V8.5h-2.71v2.045h-3.5V12.7h13.626v1.039h2.746V9.619h2.226V7.347h-2.226v-2.6h-2.746v5.8h-1.744V5.12Z" transform="translate(-47.42 -1.876)" fill="#002172"/>
    <path id="패스_422" data-name="패스 422" d="M129.916,18.852c-4.116,0-7.451,1.762-7.451,3.936s3.335,3.935,7.451,3.935,7.451-1.762,7.451-3.935-3.335-3.936-7.451-3.936m0,5.825c-2.522,0-4.566-.845-4.566-1.889s2.044-1.889,4.566-1.889,4.565.845,4.565,1.889-2.044,1.889-4.565,1.889" transform="translate(-48.376 -7.447)" fill="#002172"/>
    <path id="패스_423" data-name="패스 423" d="M167.011,4.757v1.79h-3.957A6.559,6.559,0,0,0,158.7,5c-3.217,0-5.825,2.067-5.825,4.617s2.607,4.618,5.825,4.618a6.461,6.461,0,0,0,4.574-1.761h3.737v1.716h2.523V4.757ZM158.7,12.08c-1.739,0-3.148-1.1-3.148-2.467s1.41-2.467,3.148-2.467,3.148,1.1,3.148,2.467-1.41,2.467-3.148,2.467m8.311-1.673h-2.574a3.653,3.653,0,0,0-.05-1.79h2.624Z" transform="translate(-60.388 -1.879)" fill="#002172"/>
    <path id="패스_424" data-name="패스 424" d="M155.512,21.922v2.116h12.541v3.868h2.523V21.922Z" transform="translate(-61.43 -8.659)" fill="#002172"/>
    <path id="패스_425" data-name="패스 425" d="M189.931,6.421l-6.085,10.2,2.264,1.261,3.821-6.271,3.97,6.271,2.339-1.261Z" transform="translate(-72.622 -2.536)" fill="#002172"/>
    <rect id="사각형_327" data-name="사각형 327" width="2.523" height="16.034" transform="translate(124.598 3.212)" fill="#002172"/>
    <path id="패스_426" data-name="패스 426" d="M58.954,39.9V36.876h1a1.158,1.158,0,0,1,.986.405,1.857,1.857,0,0,1,.306,1.137,2.178,2.178,0,0,1-.042.411,1.6,1.6,0,0,1-.24.612,1.02,1.02,0,0,1-.536.4,1.584,1.584,0,0,1-.469.057Zm-.577.454h1.685a1.553,1.553,0,0,0,1.515-.894,2.547,2.547,0,0,0,.25-1.136,2.049,2.049,0,0,0-.423-1.335,1.634,1.634,0,0,0-1.336-.578H58.377Z" transform="translate(-23.06 -14.384)" fill="#002876"/>
    <path id="패스_427" data-name="패스 427" d="M65.909,38.739,66.585,37l.65,1.74Zm-1.214,1.617h.586l.459-1.182H67.4l.442,1.182h.626l-1.531-3.942h-.646Z" transform="translate(-25.556 -14.384)" fill="#002876"/>
    <path id="패스_428" data-name="패스 428" d="M71.758,36.413H74.84V36.9H72.316v1.2H74.65v.454H72.316v1.342h2.562v.463H71.758Z" transform="translate(-28.345 -14.384)" fill="#002876"/>
    <path id="패스_429" data-name="패스 429" d="M79.913,39.18a1.564,1.564,0,0,1-.158.773,1.177,1.177,0,0,1-1.115.506,1.361,1.361,0,0,1-.811-.24.985.985,0,0,1-.336-.857v-.283h.539v.287a.7.7,0,0,0,.152.493.613.613,0,0,0,.474.166.586.586,0,0,0,.592-.295,1.786,1.786,0,0,0,.086-.681V36.413h.577Z" transform="translate(-30.611 -14.384)" fill="#002876"/>
    <path id="패스_430" data-name="패스 430" d="M82.916,36.413H86V36.9H83.474v1.2h2.335v.454H83.474v1.342h2.562v.463H82.916Z" transform="translate(-32.753 -14.384)" fill="#002876"/>
    <path id="패스_431" data-name="패스 431" d="M90.948,39.928a1.379,1.379,0,0,1-1.152-.45,1.732,1.732,0,0,1-.355-1.108,1.7,1.7,0,0,1,.414-1.244,1.436,1.436,0,0,1,1.07-.421,1.372,1.372,0,0,1,1.066.426,1.6,1.6,0,0,1,.39,1.123,2.053,2.053,0,0,1-.338,1.168,1.221,1.221,0,0,1-1.094.506m-.054-3.687a1.892,1.892,0,0,0-1.614.727,2.206,2.206,0,0,0-.425,1.364,2.161,2.161,0,0,0,.5,1.46,1.987,1.987,0,0,0,1.531.6,1.96,1.96,0,0,0,1.605-.684,2.232,2.232,0,0,0,.48-1.463,2.067,2.067,0,0,0-.419-1.335,2,2,0,0,0-1.654-.667" transform="translate(-35.099 -14.316)" fill="#002876"/>
    <path id="패스_432" data-name="패스 432" d="M96.684,36.413h.676l2.1,3.186V36.413h.548v3.942h-.645l-2.134-3.182v3.182h-.548Z" transform="translate(-38.192 -14.384)" fill="#002876"/>
    <path id="패스_433" data-name="패스 433" d="M108.807,36.413h.822l1.215,3.335,1.2-3.335h.816v3.942h-.548V38.029c0-.08,0-.214.009-.4s.01-.385.01-.6l-1.211,3.324h-.566l-1.22-3.324v.122q0,.143.01.441c.005.2.009.344.009.436v2.326h-.548Z" transform="translate(-42.981 -14.384)" fill="#002876"/>
    <path id="패스_434" data-name="패스 434" d="M116.922,36.413H120V36.9H117.48v1.2h2.335v.454H117.48v1.342h2.562v.463h-3.119Z" transform="translate(-46.186 -14.384)" fill="#002876"/>
    <path id="패스_435" data-name="패스 435" d="M126.038,36.413v.463H124.62v3.479h-.577V36.877h-1.418v-.463Z" transform="translate(-48.439 -14.384)" fill="#002876"/>
    <path id="패스_436" data-name="패스 436" d="M129.766,38.219V36.876h1.343a1.053,1.053,0,0,1,.45.08.574.574,0,0,1,.315.572.6.6,0,0,1-.225.54,1.092,1.092,0,0,1-.612.15Zm-.577,2.136h.577V38.663h1.246a1.2,1.2,0,0,1,.492.075.547.547,0,0,1,.294.518l.048.656a2.156,2.156,0,0,0,.026.313.457.457,0,0,0,.042.129h.707V40.27a.333.333,0,0,1-.186-.241,1.552,1.552,0,0,1-.041-.336l-.019-.531a.69.69,0,0,0-.513-.744,1.123,1.123,0,0,0,.44-.364.989.989,0,0,0,.157-.578.929.929,0,0,0-.581-.931,2,2,0,0,0-.779-.132h-1.911Z" transform="translate(-51.032 -14.384)" fill="#002876"/>
    <path id="패스_437" data-name="패스 437" d="M137.727,39.928a1.377,1.377,0,0,1-1.152-.45,1.729,1.729,0,0,1-.356-1.108,1.7,1.7,0,0,1,.414-1.244,1.434,1.434,0,0,1,1.07-.421,1.369,1.369,0,0,1,1.065.426,1.6,1.6,0,0,1,.39,1.123,2.053,2.053,0,0,1-.338,1.168,1.22,1.22,0,0,1-1.094.506m-.055-3.687a1.89,1.89,0,0,0-1.613.727,2.206,2.206,0,0,0-.425,1.364,2.161,2.161,0,0,0,.5,1.46,1.988,1.988,0,0,0,1.531.6,1.959,1.959,0,0,0,1.605-.684,2.228,2.228,0,0,0,.48-1.463,2.064,2.064,0,0,0-.419-1.335,2,2,0,0,0-1.654-.667" transform="translate(-53.577 -14.316)" fill="#002876"/>
    <path id="패스_438" data-name="패스 438" d="M146.108,37.547a.59.59,0,0,1-.237.539,1.118,1.118,0,0,1-.616.152h-1.123V36.876h1.123a1.289,1.289,0,0,1,.513.083.584.584,0,0,1,.34.587m-2.552,2.808h.577V38.691h1.31a1.21,1.21,0,0,0,.941-.342,1.156,1.156,0,0,0,.311-.806,1.037,1.037,0,0,0-.348-.832,1.344,1.344,0,0,0-.907-.3h-1.883Z" transform="translate(-56.707 -14.384)" fill="#002876"/>
    <path id="패스_439" data-name="패스 439" d="M151.587,39.928a1.381,1.381,0,0,1-1.152-.45,1.735,1.735,0,0,1-.355-1.108,1.706,1.706,0,0,1,.414-1.244,1.435,1.435,0,0,1,1.07-.421,1.37,1.37,0,0,1,1.065.426,1.6,1.6,0,0,1,.39,1.123,2.057,2.057,0,0,1-.338,1.168,1.221,1.221,0,0,1-1.094.506m-.055-3.687a1.891,1.891,0,0,0-1.614.727,2.21,2.21,0,0,0-.425,1.364,2.164,2.164,0,0,0,.5,1.46,1.989,1.989,0,0,0,1.531.6,1.96,1.96,0,0,0,1.605-.684,2.231,2.231,0,0,0,.48-1.463,2.061,2.061,0,0,0-.42-1.335,2,2,0,0,0-1.654-.667" transform="translate(-59.053 -14.316)" fill="#002876"/>
    <path id="패스_440" data-name="패스 440" d="M157.338,36.413h.577v3.479h2.109v.463h-2.686Z" transform="translate(-62.151 -14.384)" fill="#002876"/>
    <rect id="사각형_328" data-name="사각형 328" width="0.577" height="3.942" transform="translate(98.524 22.029)" fill="#002876"/>
    <path id="패스_441" data-name="패스 441" d="M168.06,36.413v.463h-1.418v3.479h-.577V36.877h-1.418v-.463Z" transform="translate(-65.038 -14.384)" fill="#002876"/>
    <path id="패스_442" data-name="패스 442" d="M171,38.739l.675-1.74.65,1.74Zm-1.214,1.617h.586l.459-1.182h1.658l.441,1.182h.627l-1.531-3.942h-.646Z" transform="translate(-67.069 -14.384)" fill="#002876"/>
    <path id="패스_443" data-name="패스 443" d="M176.758,36.413h.676l2.1,3.186V36.413h.548v3.942h-.644l-2.135-3.182v3.182h-.548Z" transform="translate(-69.822 -14.384)" fill="#002876"/>
    <path id="패스_444" data-name="패스 444" d="M191.766,36.634a1.362,1.362,0,0,1,.486.894h-.558a1.072,1.072,0,0,0-.371-.6,1.239,1.239,0,0,0-.783-.22,1.285,1.285,0,0,0-.992.41,1.8,1.8,0,0,0-.378,1.255,1.766,1.766,0,0,0,.341,1.126,1.217,1.217,0,0,0,1.017.432,1.092,1.092,0,0,0,.947-.456,1.671,1.671,0,0,0,.257-.632h.558a1.734,1.734,0,0,1-.489,1.045,1.8,1.8,0,0,1-1.342.505,1.834,1.834,0,0,1-1.223-.417,2.439,2.439,0,0,1-.162-3.127,1.836,1.836,0,0,1,1.459-.606,1.782,1.782,0,0,1,1.232.392" transform="translate(-74.494 -14.316)" fill="#002876"/>
    <rect id="사각형_329" data-name="사각형 329" width="0.577" height="3.942" transform="translate(118.603 22.029)" fill="#002876"/>
    <path id="패스_445" data-name="패스 445" d="M201.249,36.413v.463h-1.418v3.479h-.577V36.877h-1.418v-.463Z" transform="translate(-78.149 -14.384)" fill="#002876"/>
    <path id="패스_446" data-name="패스 446" d="M203.729,36.413h.672l1.215,1.895,1.212-1.895h.672l-1.6,2.355v1.587h-.577V38.768Z" transform="translate(-80.476 -14.384)" fill="#002876"/>
  </g>
</svg>
