<svg id="그룹_2712" data-name="그룹 2712" xmlns="http://www.w3.org/2000/svg" xmlns:xlink="http://www.w3.org/1999/xlink" width="78.125" height="68.001" viewBox="0 0 78.125 68.001">
  <defs>
    <clipPath id="clip-path">
      <rect id="사각형_472" data-name="사각형 472" width="78.125" height="68.001" fill="none"/>
    </clipPath>
  </defs>
  <g id="그룹_2711" data-name="그룹 2711" clip-path="url(#clip-path)">
    <path id="패스_829" data-name="패스 829" d="M314.924,32.5a11.442,11.442,0,0,1,.227-1.567,13.7,13.7,0,0,0,.124-1.753V25.2a5.277,5.277,0,0,0-.082-.969c-.021-.082-.021-.165-.041-.268a.935.935,0,0,1-.041-.165,1.635,1.635,0,0,0-.082-.186,1.262,1.262,0,0,0-.1-.165l-.041-.1V23.32h-.021l-.124.062a.53.53,0,0,0-.1.041l-.041.021h-.021c.144-.021-.351.062.33-.062v-.1a10.647,10.647,0,0,1-.062-1.443,5.835,5.835,0,0,0-.144-1.65c-.021-.082-.041-.144-.062-.206s-.041-.1-.082-.227a.894.894,0,0,0-.082-.144c-.021-.041-.062-.062-.082-.1a.735.735,0,0,0-.227-.206.516.516,0,0,0-.144-.082c-.021,0-.041-.021-.082-.021l-.041-.021c-.247-.186.33.247.268.206a.349.349,0,0,0-.041-.1c-.021-.082-.041-.186-.062-.289a3.771,3.771,0,0,1-.041-.68c0-.268,0-.495-.021-.784A8.716,8.716,0,0,0,313.728,16a6.364,6.364,0,0,0-.536-1.4l-1.216-2.309a7.562,7.562,0,0,1-.66-2,3.942,3.942,0,0,1-.062-.454,2.906,2.906,0,0,1-.021-.433l-.041-.8-.062-1.546-.1-2.247-.1-2.474L310.862.845V.536a.383.383,0,0,0-.041-.144c-.021-.041-.041-.062-.062-.1a.654.654,0,0,0-.1-.124l-.082-.041a.961.961,0,0,0-.33-.1A1,1,0,0,0,310,0h-.247a.513.513,0,0,0-.165.021A1.018,1.018,0,0,0,309.4.1c-.041.021-.062.062-.082.082a.741.741,0,0,0-.1.186.423.423,0,0,0,0,.227l.021.062.021.021.021.062a.5.5,0,0,0,.165.186l.041.021.021.021h0c.062.124.1.082.124.1h.062c.371.433-.495-.6-.412-.474V.784l-.35,5.979-.144,3.052a6.594,6.594,0,0,1-.289,1.381,6.372,6.372,0,0,1-.515,1.278l-1.113,2.082a4.738,4.738,0,0,0-.33.763c-.165.474-.268.866-.33,1.093a4.328,4.328,0,0,0-.124.99,3.622,3.622,0,0,0,.062.845c.041.247.082.474.1.742a2.37,2.37,0,0,1,.021.392.774.774,0,0,1-.021.206v.062c.041-.041.021,0,.021-.021l-.021.021-.041.021c-.041.021.041-.021.021,0,.021-.021-.041.021,0,.021h.062l.021-.021V19.65l.041-.041.124-.186a3.171,3.171,0,0,0,.165-.392,5.4,5.4,0,0,0,.186-.784c.041-.268.062-.515.1-.763.041-.268.1-.536.186-.866a9.677,9.677,0,0,1,.289-.99,4.369,4.369,0,0,1,.289-.639l1.093-2.082a7.274,7.274,0,0,0,.577-1.443,7.535,7.535,0,0,0,.309-1.567l.144-3.093.268-5.918V.722c.082.1-.784-.928-.412-.495V.289c0,.062-.021.144-.021.206a.186.186,0,0,1-.021.1c.062-.165-.144.454.124-.371.041.021.062.041.062.021l.021-.021.041-.021h-.021l-.1.144a2,2,0,0,1-.144.186c-.041.021-.021,0,0,.041a.475.475,0,0,1,.082.227.4.4,0,0,1,.021.144h.165a.351.351,0,0,1,.144.021l.062.021.041-.1c.021-.041.021-.062.041-.1.021-.021.021-.062.041-.082l.041-.041.021-.021c.35.021-.474-.021-.392-.021V.66h.351l-.33.021h-.021c-.577.1,2.515-.082,0,0V.928l.062,1.485.1,2.474.1,2.227L310.2,8.66l.041.8c0,.144.021.289.021.474a4.456,4.456,0,0,0,.082.515,8.847,8.847,0,0,0,.722,2.247l1.217,2.309a5.485,5.485,0,0,1,.454,1.237,6.129,6.129,0,0,1,.247,1.34c.021.206,0,.474.021.722a5.554,5.554,0,0,0,.062.825,3.3,3.3,0,0,0,.1.433,2.151,2.151,0,0,0,.1.247v.021c-.062-.041.515.392.268.206h.041l.041.041.041.041.041.124a.525.525,0,0,1,.041.144,5.552,5.552,0,0,1,.1.66,4.458,4.458,0,0,1,0,.742,10.922,10.922,0,0,0,.082,1.608v.1c0,.021.021.082.021.1a.348.348,0,0,1,.041.1l.062.1a2.36,2.36,0,0,0,.144.227c.021,0,.041.144.062.268a5.621,5.621,0,0,1,.062.845v3.959a10.75,10.75,0,0,0,.124,1.753,8.7,8.7,0,0,0,.474,1.629" transform="translate(-242.965)" fill="#ee3124"/>
    <path id="패스_830" data-name="패스 830" d="M325.033,1.454l.433.062v.021c0,.021,0,.021-.041.1l-.082.082a.382.382,0,0,1-.289.1.272.272,0,0,1-.268-.165.276.276,0,0,1-.021-.1c.021-.082.062-.082.1-.082a.186.186,0,0,0,.1-.021h.062c0-.021-.1-.021-.268-.021-.041,0-.082-.021-.144-.021H324.6V1.392l.433.062a1.978,1.978,0,0,0,.433.062v-.1a.577.577,0,0,0-.021-.124c-.021-.021-.021-.062-.062-.124a.211.211,0,0,0-.124-.1A.44.44,0,0,0,325.012,1a.393.393,0,0,0-.309.165.189.189,0,0,0-.062.1c-.041.082-.021.082-.041.1v.021a2.334,2.334,0,0,1,.433.062" transform="translate(-257.671 -0.794)" fill="#ee3124"/>
    <path id="패스_831" data-name="패스 831" d="M209.2,315.032v-.165c.474-.041.474-.082.474-.68l-.021-2.309h-.021l-1.381,3.134h-.124l-1.278-3.052h-.021l-.082,1.629c-.021.474-.021.722-.021.948.021.268.144.309.536.35v.165H205.9v-.165c.33-.041.454-.1.474-.35.041-.186.062-.454.124-1.052l.082-1.2c.041-.722.021-.763-.495-.825V311.3h.99l1.278,2.825,1.3-2.825h1.01v.165c-.495.041-.536.062-.515.639l.082,2.082c.021.6.041.639.536.68v.165Z" transform="translate(-163.446 -247.114)" fill="#323e48"/>
    <path id="패스_832" data-name="패스 832" d="M238.709,314.635v-.165c.371-.041.412-.1.33-.33-.062-.206-.186-.515-.309-.845h-1.2c-.082.247-.165.474-.247.722-.124.351-.062.412.371.454v.165H236.4v-.165c.371-.062.454-.1.639-.6l1.2-3.01.206-.062c.351.99.742,2.082,1.113,3.072.186.495.268.557.639.6v.165Zm-.536-3.031h0c-.206.474-.371.969-.536,1.423h1.031Z" transform="translate(-187.657 -246.717)" fill="#323e48"/>
    <path id="패스_833" data-name="패스 833" d="M264.645,314.1c-.041.206-.165.742-.206.928H261.8v-.165c.495-.041.536-.082.536-.557v-2.289c0-.495-.041-.516-.495-.557V311.3h1.546v.165c-.454.041-.516.062-.516.557v2.268c0,.309.021.412.124.474a1.316,1.316,0,0,0,.536.062c.309,0,.495-.021.639-.186a2.067,2.067,0,0,0,.309-.577Z" transform="translate(-207.82 -247.114)" fill="#323e48"/>
    <path id="패스_834" data-name="패스 834" d="M284.709,314.635v-.165c.371-.041.412-.1.33-.33-.062-.206-.186-.515-.309-.845h-1.2c-.082.247-.165.474-.247.722-.124.351-.062.412.371.454v.165H282.4v-.165c.371-.062.454-.1.639-.6l1.2-3.01.206-.062c.351.99.742,2.082,1.113,3.072.186.495.268.557.639.6v.165Zm-.557-3.031h0c-.206.474-.371.969-.536,1.423h1.031Z" transform="translate(-224.173 -246.717)" fill="#323e48"/>
    <path id="패스_835" data-name="패스 835" d="M308.505,311.206c-.392.041-.474.124-.68.454-.247.412-.454.722-.722,1.237a.6.6,0,0,0-.1.371v.784c0,.495.041.536.577.557v.165h-1.67v-.165c.515-.041.557-.082.557-.557v-.742a.661.661,0,0,0-.1-.35c-.206-.351-.412-.722-.722-1.278-.227-.392-.289-.454-.639-.495v-.165h1.423v.165c-.412.062-.392.124-.289.309.227.454.516.907.763,1.34a12.836,12.836,0,0,0,.66-1.3c.124-.268.1-.33-.33-.371V311h1.3v.206Z" transform="translate(-242.113 -246.876)" fill="#323e48"/>
    <path id="패스_836" data-name="패스 836" d="M330.179,311.769c-.1-.371-.268-.763-.763-.763a.594.594,0,0,0-.619.619c0,.412.268.6.722.825.474.247,1.01.515,1.01,1.155a1.175,1.175,0,0,1-1.3,1.113,1.988,1.988,0,0,1-.557-.082,1.586,1.586,0,0,1-.309-.124c-.041-.124-.124-.619-.165-.907l.165-.041c.1.351.371.948.948.948a.623.623,0,0,0,.66-.68c0-.412-.309-.619-.722-.845s-.969-.515-.969-1.134A1.091,1.091,0,0,1,329.5,310.8a3.472,3.472,0,0,1,.742.124c.021.206.062.433.1.8Z" transform="translate(-260.529 -246.717)" fill="#323e48"/>
    <path id="패스_837" data-name="패스 837" d="M346.8,315.032v-.165c.474-.041.516-.062.516-.557v-2.289c0-.495-.041-.516-.516-.557V311.3h1.567v.165c-.474.041-.515.062-.515.557v2.289c0,.495.041.515.515.557v.165Z" transform="translate(-275.294 -247.114)" fill="#323e48"/>
    <path id="패스_838" data-name="패스 838" d="M362.83,314.635v-.165c.371-.041.412-.1.33-.33-.062-.206-.186-.515-.309-.845h-1.216c-.082.247-.165.474-.247.722-.124.351-.062.412.371.454v.165H360.5v-.165c.371-.062.454-.1.639-.6l1.2-3.01.206-.062c.351.99.742,2.082,1.113,3.072.186.495.268.557.639.6v.165Zm-.557-3.031h0c-.206.474-.371.969-.536,1.423h1.031Z" transform="translate(-286.169 -246.717)" fill="#323e48"/>
    <path id="패스_839" data-name="패스 839" d="M0,258.244v-.495c1.2-.1,1.34-.206,1.34-1.526v-6.1c0-1.32-.144-1.423-1.34-1.526V248.1H4.474v.495c-1.2.1-1.32.206-1.32,1.526v6.1c0,1.32.124,1.423,1.32,1.526v.495Z" transform="translate(0 -196.945)" fill="#323e48"/>
    <path id="패스_840" data-name="패스 840" d="M33.989,260.712c-.639.041-.887.206-.948.722a15.566,15.566,0,0,0-.1,1.959v4.66H32.38l-4.866-5.835h-.041v2.619a14.728,14.728,0,0,0,.1,1.918c.062.515.247.742,1.134.783v.412H25.824v-.412c.66-.041.928-.227.969-.742a14.451,14.451,0,0,0,.124-1.938v-2.433c0-.763-.021-.99-.227-1.258a1.178,1.178,0,0,0-.99-.412V260.3h2.165l4.474,5.155h.041v-2.062a14.866,14.866,0,0,0-.1-1.938c-.062-.495-.289-.7-1.155-.742V260.3h2.866Z" transform="translate(-20.401 -206.629)" fill="#323e48"/>
    <path id="패스_841" data-name="패스 841" d="M75.741,260.812c-.763.082-.969.227-1.443,1.34-.392.907-1.443,3.567-2.371,5.979H71.35c-.8-2.144-1.9-4.969-2.371-6.186-.371-.907-.557-1.072-1.278-1.134V260.4h3.485v.412c-.845.124-.845.268-.68.763.33.928,1.258,3.32,1.691,4.412h.041c.639-1.711,1.155-3.072,1.464-4.082.268-.8.268-.969-.7-1.093V260.4h2.742v.412" transform="translate(-53.741 -206.709)" fill="#323e48"/>
    <path id="패스_842" data-name="패스 842" d="M114.992,265.891c-.082.536-.309,1.588-.412,1.938H108.6v-.412c.99-.082,1.113-.144,1.113-1.155v-4.495c0-1.01-.124-1.072-.948-1.155V260.2h5.526c.021.206.062,1.031.124,1.753l-.433.062a2.308,2.308,0,0,0-.474-1.01c-.206-.206-.515-.289-1.175-.289h-.557c-.433,0-.474.021-.474.412V263.6h.784c.99,0,1.155-.062,1.3-.887h.412v2.351h-.412c-.144-.845-.309-.887-1.3-.887H111.3v2.041c0,.557.041.845.289.969a2.859,2.859,0,0,0,1.052.124,1.616,1.616,0,0,0,1.278-.371,4.162,4.162,0,0,0,.66-1.155Z" transform="translate(-86.208 -206.55)" fill="#323e48"/>
    <path id="패스_843" data-name="패스 843" d="M146.709,261.5c-.227-.742-.68-1.608-1.629-1.608a1.1,1.1,0,0,0-1.134,1.155c0,.639.412,1.01,1.443,1.526,1.237.6,2.083,1.258,2.083,2.412,0,1.34-1.134,2.371-2.845,2.371a4.148,4.148,0,0,1-1.175-.165,3.872,3.872,0,0,1-.7-.268,11.73,11.73,0,0,1-.351-1.979l.412-.144c.227.742.928,2.082,2.062,2.082a1.132,1.132,0,0,0,1.175-1.237c0-.7-.515-1.134-1.4-1.588-1.2-.619-2.041-1.237-2.041-2.371,0-1.3,1.01-2.289,2.68-2.289a4.827,4.827,0,0,1,1.629.309c.041.433.124.969.227,1.691Z" transform="translate(-113.039 -205.915)" fill="#323e48"/>
    <path id="패스_844" data-name="패스 844" d="M176.374,261.109a2.715,2.715,0,0,0-.515-1.216c-.206-.206-.495-.268-1.2-.268h-.536v5.546c0,.99.124,1.072,1.155,1.155v.412h-3.814v-.412c.99-.082,1.093-.144,1.093-1.155v-5.546h-.392c-.969,0-1.175.124-1.34.309a2.9,2.9,0,0,0-.495,1.175H169.9c.041-.845.124-1.711.144-2.309h.289a.66.66,0,0,0,.66.289h4.722a.72.72,0,0,0,.66-.289h.289c.021.495.062,1.526.124,2.268Z" transform="translate(-134.869 -205.439)" fill="#323e48"/>
    <path id="패스_845" data-name="패스 845" d="M221.712,223.475c-1.629-2.041-4.062-5.278-6.33-8.371-.639-.845-1.031-1.01-1.505-.948v5.423c0,2.536.268,2.742,2.6,2.948v.948h-8.392v-.948c2.186-.206,2.454-.412,2.454-2.948V208.2c0-2.557-.268-2.742-2.536-2.949V204.3h8.309v.948c-2.186.206-2.412.392-2.412,2.949v5.072a5.7,5.7,0,0,0,2.186-1.464,47.139,47.139,0,0,0,4.412-4.949c.763-.948.7-1.32-.639-1.505l-.6-.082v-.948h7.464v.948A6.766,6.766,0,0,0,222,207.393c-1.505,1.423-3.072,3.031-4.619,4.66,2,2.825,4.577,6.041,6.454,8.309,1.361,1.588,2.062,2,3.34,2.186v.948h-5.464Z" transform="translate(-165.113 -162.176)" fill="#ee3124"/>
    <path id="패스_846" data-name="패스 846" d="M320.772,218.689c-.227,1.155-.825,4.041-1.093,4.866H305.7v-.948c2.536-.206,2.8-.392,2.8-2.887V208.235c0-2.495-.227-2.68-2.557-2.887V204.4h8.516v.948c-2.268.206-2.536.351-2.536,2.887v11.588c0,1.443.124,2,.7,2.268a6.841,6.841,0,0,0,2.412.289c1.423,0,2.454-.186,3.113-.969a8.215,8.215,0,0,0,1.588-2.969Z" transform="translate(-242.668 -162.255)" fill="#ee3124"/>
    <path id="패스_847" data-name="패스 847" d="M63.876,41.366c.041-.6.165-1.052.227-1.567s.1-1.052.124-1.753V33.283c0-.577.021-1.155-.021-1.794a4.628,4.628,0,0,0-.062-.495l-.062-.247a1.439,1.439,0,0,0-.124-.351c-.021-.021-.041-.062-.062-.082l-.062-.062-.082-.082-.021-.021c-.165-.206.186.268.165.227a.4.4,0,0,1-.021-.165,2.539,2.539,0,0,1-.041-.412c-.021-.289-.021-.577-.021-.887,0-.289,0-.619-.021-.948a4.983,4.983,0,0,0-.062-.515,1.628,1.628,0,0,0-.062-.268,1.163,1.163,0,0,0-.082-.247c-.021-.041-.021-.082-.062-.165a1.9,1.9,0,0,1-.1-.165,1.1,1.1,0,0,0-.268-.268.836.836,0,0,0-.186-.1l-.041-.021h-.021c-.062-.041.495.392.268.206V26.4a.3.3,0,0,1-.041-.144,3.5,3.5,0,0,1-.082-.825v-.722c0-.082-.021-.165-.021-.268a9.438,9.438,0,0,0-.433-1.979,6.321,6.321,0,0,0-.412-.928l-.433-.866-.433-.866c-.062-.144-.144-.289-.206-.433-.062-.124-.1-.268-.165-.412a7.97,7.97,0,0,1-.412-1.814l-.082-1.979L60.288,11.1l-.082-2.062-.021-.515-.021-.247V8.252c-.8-.887-.227-.247-.412-.433h-.206L59.3,7.8h-.165c.412-.412-.577.536-.474.454v.062l-.021.454v.041l-.021.68v.082L58.412,14.5l-.1,2.474a7.84,7.84,0,0,1-.495,2.268c-.082.186-.144.33-.227.515l-.268.557-.557,1.113c-.082.186-.186.371-.289.577l-.247.619a9.429,9.429,0,0,0-.33,1.258c-.021.1-.041.227-.062.33l-.021.165v.186l-.021.619-.021.619v.165a.206.206,0,0,1-.021.082c-.021.082-.041.186-.062.268l-.041.144h0v.021l-.021.041v.021c.124.082.206.041.309.1.144.165-.1-.742-.021-.351H55.9a.794.794,0,0,0-.454.309c-.041.062-.1.124-.124.165v.021c0-.021-.082.165-.041.1v.021l-.021.041-.021.082c-.041.1-.062.206-.1.351a4.968,4.968,0,0,0-.1,1.34V29.3a5.026,5.026,0,0,1-.021.557c0,.082-.021.186-.021.268a1.035,1.035,0,0,1-.041.247V30.4l-.041.041-.021.021-.021.041a.451.451,0,0,0-.062.1.293.293,0,0,0-.041.124l-.021.082a4.744,4.744,0,0,0-.1.66c-.021.206-.021.412-.041.6v7.9a.928.928,0,0,1-.33.639,2.4,2.4,0,0,1-.784.433,7.068,7.068,0,0,1-.948.227c-.082,0-.165.021-.247.021h-.165L52,41.3l-.515.082-2.062.309H49.4l-1.753.186-1.711.247-.433.062-.206.041h-.1a1.452,1.452,0,0,1-.619-.186,1.606,1.606,0,0,1-.68-1.113c0-.062-.021-.124-.021-.165l-.021-.206-.021-.433-.021-.433-.021-.186.021-.186.082-1.67a3.83,3.83,0,0,1,.124-.7c.021-.062.041-.1.062-.165v-.021l.021-.041.021-.1.021-.1a1.036,1.036,0,0,1,.1-.268,1.48,1.48,0,0,1,.969-.639l.722-.206a1.591,1.591,0,0,0,.392-.165c.144-.082.247-.144.351-.206l.062-.041a6.128,6.128,0,0,0,.722-.557,3.556,3.556,0,0,0,.619-.722,1.354,1.354,0,0,0,.206-.577.835.835,0,0,0-.021-.33.912.912,0,0,0-.1-.309,2.74,2.74,0,0,0-.619-.763c-.186-.165-.392-.351-.6-.536l-.619-.495a5.3,5.3,0,0,0-.66-.454,2.968,2.968,0,0,0-.763-.289,2.5,2.5,0,0,0-.289-.1c-.041-.021-.082-.041-.082-.062l.021-.021a1.076,1.076,0,0,0,.206-.639.993.993,0,0,0-.247-.577L44.35,28.4l-.041-.1-.041-.144c-.1-.412-.186-.845-.247-1.258a12.415,12.415,0,0,1-.1-1.258l-.433-7.217c-.021-.433-.041-.784-.082-1.155a1.275,1.275,0,0,0-.082-.33.834.834,0,0,0-.206-.351.906.906,0,0,0-.639-.227.812.812,0,0,0-.515.165,1.15,1.15,0,0,0-.247.33.93.93,0,0,0-.082.289s-.021.144-.041.371l-.062.969L41.3,22.108l-.165,2.6-.082,1.485a13.506,13.506,0,0,1-.206,1.526c-.021.124-.062.247-.082.371l-.062.186-.021.082-.021.062-.021.021a.879.879,0,0,0-.227.247,1.384,1.384,0,0,0-.165.351.7.7,0,0,0-.021.206v.186a.99.99,0,0,0,.186.392l.021.021-.021.021h-.021l-.062.041c-.1.041-.227.082-.371.144a2.449,2.449,0,0,0-.454.165c-.082.041-.165.082-.268.124l-.206.144c-.268.186-.536.371-.784.577-.124.1-.247.206-.392.309-.124.1-.247.227-.371.33s-.247.227-.392.371a1.745,1.745,0,0,0-.371.577l-.062.247a.674.674,0,0,0,0,.289,1.17,1.17,0,0,0,.165.495,2.633,2.633,0,0,0,.495.639,6.373,6.373,0,0,0,1.175.907,13.6,13.6,0,0,0,1.32.577,2.24,2.24,0,0,1,.928.66c.021.041.041.062.041.1l.021.041a.361.361,0,0,0,.021.1c0,.021.021.062.021.082l.021.041.021.062a.382.382,0,0,1,.041.144,3.44,3.44,0,0,1,.1.639l.062,1.546.021.392v1.155l-.021,1.588v.062l-.021.907-.021.454a2.043,2.043,0,0,1-.041.371,1.559,1.559,0,0,1-.866,1.072,24.359,24.359,0,0,1-2.495.557,2.241,2.241,0,0,1-.371.021,1.386,1.386,0,0,1-.371-.062c-.144-.041-.289-.062-.412-.1a1.078,1.078,0,0,1-.247-.144,2.118,2.118,0,0,1-.515-.619,1.562,1.562,0,0,1-.227-.68V39.86l-.021-.124A4.172,4.172,0,0,0,35.4,39.2a4.231,4.231,0,0,0-.165-.577,1.111,1.111,0,0,0-.144-.268,1.9,1.9,0,0,0-.1-.165.517.517,0,0,0-.165-.144,2.354,2.354,0,0,0-.33-.186l-.124-.041-.062-.021h-.021c0,.021,0-.041-.021.041.062.082-.412.536.165.206L34.515,38v-.041a.512.512,0,0,0-.021-.165.6.6,0,0,0-.041-.186,2.725,2.725,0,0,0-.639-1.052c-.062-.062-.144-.124-.206-.186l-.206-.165c-.082-.082-.186-.186-.289-.309a3.634,3.634,0,0,1-.474-.763c-.021-.062-.062-.144-.082-.206l-.041-.124-.062-.124A1.7,1.7,0,0,0,32,34.108a.785.785,0,0,0-.351-.165,1.142,1.142,0,0,0-.371-.041,1.2,1.2,0,0,0-.371.082.9.9,0,0,0-.33.206.952.952,0,0,0-.144.144c-.041.062-.082.1-.1.144-.062.1-.1.165-.165.289-.082.186-.124.309-.186.454a4.843,4.843,0,0,1-.495.763c-.041.062-.1.1-.144.165l-.062.062-.021.021-.062.041a2.755,2.755,0,0,0-.433.412,3.02,3.02,0,0,0-.351.495,2.08,2.08,0,0,0-.144.309l-.041.144-.021.041-.021.062c-.021.062,0,.041-.021.062v.082a.722.722,0,0,0-.247.124,1.144,1.144,0,0,1-.165.124,1.033,1.033,0,0,0-.144.165,2.089,2.089,0,0,0-.289.619,3.23,3.23,0,0,0-.124.577,6.974,6.974,0,0,0-.062,1.113v2.124a9.844,9.844,0,0,0,.021,1.093l.082,1.052c.021.351.041.7.062,1.031v.454c0,.021,0,0-.021.041l-.041.041-.021.021h-.124a1.818,1.818,0,0,1-.412-.186,1.151,1.151,0,0,1-.165-.1l-.021-.021-.021-.021v-.021l-.021.021-.062.041-.062.041c-.082,0,.433.206.206.1V40.809a.435.435,0,0,0-.144-.392l-.062-.062a.107.107,0,0,0-.082-.041L26,40.293c-.392-.021-.474-.021-.66-.021H22.783a14.173,14.173,0,0,0-2.083.165,4.531,4.531,0,0,0-1.072.268l-.124.062a2.008,2.008,0,0,0-.227.1.423.423,0,0,0-.289.33l-.021.247v3.505a7.326,7.326,0,0,1-.062.948l-.041.227-.021.1a.468.468,0,0,0-.021.082L18.8,46.4l-.021.041-.062.082-.062.1a4.932,4.932,0,0,0-.268.433l-.124.206H15.752l-.1.041-.124.041-.887.309-1.773.6L9.381,49.428l-.433.144-.206.062c-.124.041-.021.021-.082.021a7.012,7.012,0,0,0-.928.062,17.936,17.936,0,0,0-1.794.268l-.433.1-.082.021-.062.021-.124.021c-.165.041-.309.082-.454.124a7.937,7.937,0,0,0-.763.268l-.495.206A11.884,11.884,0,0,0,.7,52.335a11.008,11.008,0,0,0,3.134-.763l.495-.186a4.675,4.675,0,0,1,.7-.227q.186-.062.433-.124l.124-.021.062-.021.082-.021.412-.1A16,16,0,0,1,7.834,50.6c.289-.021.577-.041.866-.041h.082a.155.155,0,0,0,.1-.021L9.03,50.5l.206-.082.433-.144L13.154,49.1l1.773-.6.887-.309.1-.041h2.845l.021-.021.041-.062.062-.1.124-.206.144-.227a4.416,4.416,0,0,1,.268-.392l.165-.227.041-.062a.158.158,0,0,0,.041-.1.637.637,0,0,0,.041-.165,1.314,1.314,0,0,0,.041-.144l.021-.144.041-.268c.041-.371.062-.7.082-1.052v-3.34l.124-.041a4.689,4.689,0,0,1,.887-.206,15.365,15.365,0,0,1,1.959-.165h2.866v5.093a1.334,1.334,0,0,1,.041.206.968.968,0,0,0,.124.186l.165.165a1.034,1.034,0,0,0,.289.165,2.463,2.463,0,0,0,.536.227l.124.041h.268a1,1,0,0,0,.247-.021,1.231,1.231,0,0,0,.227-.124,1.346,1.346,0,0,0,.165-.144,1.143,1.143,0,0,0,.124-.165.991.991,0,0,0,.165-.454c.021-.247.021-.412.021-.6-.021-.371-.041-.722-.062-1.072l-.082-1.052c-.021-.33,0-.68-.021-1.031v-2.1a7.622,7.622,0,0,1,.041-.99,1.658,1.658,0,0,1,.247-.763c.021-.021.021-.021.021-.041l.041-.041c.021-.021,0-.021.227-.062a.4.4,0,0,0,.186-.1.428.428,0,0,0,.124-.206,1.566,1.566,0,0,0,.082-.227l.021-.165a1.015,1.015,0,0,1,.124-.351,1.825,1.825,0,0,1,.247-.351,2.053,2.053,0,0,1,.309-.289l.041-.041.062-.062c.041-.041.082-.062.124-.1a2.053,2.053,0,0,0,.206-.227,5.763,5.763,0,0,0,.619-.948,4.294,4.294,0,0,0,.206-.495,1.225,1.225,0,0,0,.082-.165l.041-.062.041-.041a.366.366,0,0,1,.206-.082.348.348,0,0,1,.206.062.431.431,0,0,1,.165.206l.041.1.041.1c.041.082.062.165.1.268a4.1,4.1,0,0,0,.6.948,3.992,3.992,0,0,0,.412.433l.186.165c.062.041.1.1.165.144a1.76,1.76,0,0,1,.412.66.351.351,0,0,1,.021.144.741.741,0,0,0,.041.227,1.422,1.422,0,0,0,.082.206c.33.351.206.144.247.206h.041l.021.021.062.021.1.041c.021.021.062.021.1.062.041.021,0-.021.041.062a.732.732,0,0,1,.082.186,1.6,1.6,0,0,1,.1.371c.021.144.041.289.062.454V44.4c0,.062.021.1.021.165a.963.963,0,0,0,.082.289,2.372,2.372,0,0,0,.247.515,3.381,3.381,0,0,0,.7.825,1.285,1.285,0,0,0,.247.186,2.081,2.081,0,0,0,.309.144c.186.062.33.082.495.124a1.953,1.953,0,0,0,.536.082,2.351,2.351,0,0,0,.536-.041,24.1,24.1,0,0,0,2.742-.639,2.678,2.678,0,0,0,.845-.68,2.4,2.4,0,0,0,.474-1.01A2.519,2.519,0,0,0,42,43.819l.021-.454.021-.907V42.4l.041-1.608v-1.2l-.021-.392L42,37.654a5.564,5.564,0,0,0-.124-.845c-.021-.062-.041-.144-.062-.206l-.041-.1-.021-.062a.325.325,0,0,0-.021-.082l-.041-.124a1.261,1.261,0,0,0-.1-.247,1.964,1.964,0,0,0-.639-.66,3.844,3.844,0,0,0-.7-.371c-.454-.206-.907-.351-1.237-.536a4.081,4.081,0,0,1-.99-.763,1.511,1.511,0,0,1-.33-.433.3.3,0,0,1-.041-.289,1.964,1.964,0,0,1,.515-.577,4.2,4.2,0,0,1,.351-.309,4.318,4.318,0,0,1,.351-.289c.247-.186.495-.371.722-.536l.186-.124a1.183,1.183,0,0,0,.144-.082c.1-.041.247-.082.392-.144a2.8,2.8,0,0,0,.474-.186l.124-.062a.476.476,0,0,0,.144-.1.827.827,0,0,0,.289-.309.981.981,0,0,0,.165-.371.286.286,0,0,0,0-.186c-.021-.062-.021-.082-.041-.144l-.041-.082c-.021-.021-.021-.062-.062-.082a1.447,1.447,0,0,1-.186-.124c-.021-.021,0-.021,0,0v-.062c-.021.062,0,.021,0,.041H41.2l.021-.041.062-.062a.77.77,0,0,0,.144-.124.836.836,0,0,0,.1-.186c.041-.082.041-.1.062-.144l.041-.124c.021-.082.041-.144.062-.227.041-.144.062-.289.1-.433A9.252,9.252,0,0,0,42,26.211l.082-1.485.165-2.6.227-3.629.062-.948a1.506,1.506,0,0,1,.041-.268l.021-.041h.021a.449.449,0,0,1,.021.124c.041.268.041.66.082,1.093l.433,7.217c.021.412.041.866.1,1.32a9.277,9.277,0,0,0,.268,1.4l.062.186c.021.062.041.1.082.227a.67.67,0,0,0,.206.268c.041.041.062.041.062.062.062.082.041.041.021.082a.873.873,0,0,1-.144.1c-.021.021-.062.021-.082.062l-.041.062-.041.062-.021.062c-.021.021-.021.082-.021.144a.984.984,0,0,0,.227.6,3.171,3.171,0,0,0,.268.247,1.263,1.263,0,0,0,.124.082c.041.021.062.041.1.062.144.062.268.124.392.165a4.034,4.034,0,0,1,.619.227c.165.1.392.247.577.392.206.144.392.309.577.454.186.165.371.33.577.515a1.938,1.938,0,0,1,.412.454.322.322,0,0,1-.041.351,3.852,3.852,0,0,1-1.072.99l-.041.021a1.98,1.98,0,0,1-.557.268l-.7.206a3.678,3.678,0,0,0-.784.351,1.916,1.916,0,0,0-.68.722,2.8,2.8,0,0,0-.186.474l-.021.1s0-.021-.021.041c-.021.082-.062.144-.082.227a4.872,4.872,0,0,0-.165.928l-.082,1.67-.021.247.021.247.021.433.041.433.021.206a1.207,1.207,0,0,0,.041.268,2.892,2.892,0,0,0,.351.969,2.192,2.192,0,0,0,.742.763,2.22,2.22,0,0,0,.99.309h.289l.206-.021.433-.062,1.711-.247,1.753-.186h.021l2.062-.309.515-.082.124-.021.062-.021h.041c.1,0,.186-.021.289-.021a5.4,5.4,0,0,0,1.113-.247,3.089,3.089,0,0,0,1.072-.6,1.684,1.684,0,0,0,.433-.557,1.811,1.811,0,0,0,.206-.722V32.108c0-.186.021-.371.021-.536a2.485,2.485,0,0,1,.082-.474l.021-.062v-.021l.021-.021h0l-.041-.021-.021-.021c.1.1.041.021.062.041h.021a.524.524,0,0,0,.165-.206c.021-.082.041-.206.062-.268a1.592,1.592,0,0,0,.041-.309,1.56,1.56,0,0,0,.021-.309c.021-.206.021-.412.021-.6v-.577a6.126,6.126,0,0,1,.082-1.113,1.732,1.732,0,0,1,.082-.247l.021-.062.021-.021c.041-.082-.062.1-.041.082l.021-.021a.285.285,0,0,1,.062-.082l.021-.021c-.186.1.247-.144.247-.165.021-.021.062-.124.062-.1v-.021l.021-.041.021-.041a.16.16,0,0,0,.021-.062l.041-.165c.021-.1.041-.206.062-.33,0-.062.021-.1.021-.227v-.165l.021-.619.021-.619v-.1l.021-.144c.021-.1.021-.186.041-.289a7.032,7.032,0,0,1,.289-1.134,4.131,4.131,0,0,1,.206-.536c.082-.165.165-.351.268-.536l.557-1.113.268-.557a5.257,5.257,0,0,0,.268-.6,6.765,6.765,0,0,0,.371-1.258,6.786,6.786,0,0,0,.186-1.32l.1-2.474L59.649,9.7V9.613l.021-.68V8.891l.021-.474V8.334c.1-.1-.866.845-.454.454h.144l.247.021h.206c-.186-.186.412.433-.392-.433v.041l.021.268.021.515.082,2.062.165,4.062.082,2.021a9.473,9.473,0,0,0,.454,2.041l.186.495c.062.165.144.289.206.454l.433.887.433.866a4.711,4.711,0,0,1,.351.825,8.607,8.607,0,0,1,.392,1.753c0,.082.021.144.021.206v.7a4.661,4.661,0,0,0,.1,1.052,2.5,2.5,0,0,0,.1.289.156.156,0,0,0,.041.082c-.227-.186.33.289.268.227a.255.255,0,0,1,.041.062l.021.021.021.062a1.948,1.948,0,0,0,.062.186c.021.041.021.124.041.186a2.538,2.538,0,0,1,.041.412c.021.268.021.577.021.887s0,.619.021.948c.021.165.021.33.041.495a1.627,1.627,0,0,0,.062.268l.021.041c-.062,0,.577.062.289.062l-.041.062-.1.124.021.021c-.021-.062.041.165.062.268a2.283,2.283,0,0,1,.041.392c.041.536.021,1.134.021,1.732v4.763a10.748,10.748,0,0,0,.124,1.753,3.058,3.058,0,0,0,.268,1.4" transform="translate(-0.556 -6.107)" fill="#ee3124"/>
  </g>
</svg>
