<svg id="그룹_2537" data-name="그룹 2537" xmlns="http://www.w3.org/2000/svg" xmlns:xlink="http://www.w3.org/1999/xlink" width="177.63" height="18.844" viewBox="0 0 177.63 18.844">
  <defs>
    <clipPath id="clip-path">
      <rect id="사각형_386" data-name="사각형 386" width="177.63" height="18.844" fill="none"/>
    </clipPath>
  </defs>
  <g id="그룹_2536" data-name="그룹 2536" clip-path="url(#clip-path)">
    <path id="패스_578" data-name="패스 578" d="M136.932,8.393a6.3,6.3,0,0,0,.2-1.509V3.172H126.4v1.55h8.249V6.946c0,.476-.019.944-.062,1.405a4.286,4.286,0,0,1-.277,1.222h-9.54v1.553h5.677v2.427h-4.44V15.1h9.043v4.851h2.479v-6.4h-4.6V11.126h7.036V9.573h-3.539a3.083,3.083,0,0,0,.5-1.18" transform="translate(-59.911 -1.523)" fill="#002e56"/>
    <path id="패스_579" data-name="패스 579" d="M170.319,8.393a6.355,6.355,0,0,0,.2-1.509V3.172H159.791v1.55h8.25V6.946c0,.476-.02.944-.063,1.405a4.287,4.287,0,0,1-.276,1.222h-9.54v1.553h5.677v2.427H159.4V15.1h9.044v4.851h2.48v-6.4h-4.6V11.126h7.037V9.573H169.82a3.075,3.075,0,0,0,.5-1.18" transform="translate(-75.943 -1.523)" fill="#002e56"/>
    <path id="패스_580" data-name="패스 580" d="M256.417,11.46h6.714a2.188,2.188,0,0,0,1.444-.46,1.581,1.581,0,0,0,.541-1.327V3.261h-2.479V5.806h-5.727V3.261h-2.478V9.673A1.579,1.579,0,0,0,254.974,11a2.182,2.182,0,0,0,1.444.46m6.22-1.5H256.91v-2.6h5.728Z" transform="translate(-122.168 -1.566)" fill="#002e56"/>
    <path id="패스_581" data-name="패스 581" d="M195.071,11.466h8.393V9.916h-7.911V8.007h7.64V6.457h-7.64V4.722h7.911V3.172H193.073V9.631a1.735,1.735,0,0,0,.542,1.327,2.044,2.044,0,0,0,1.456.509" transform="translate(-92.706 -1.523)" fill="#002e56"/>
    <path id="패스_582" data-name="패스 582" d="M291.771,6.693a13.182,13.182,0,0,1-.075,1.414,4.04,4.04,0,0,1-.306,1.215h2.1a2.78,2.78,0,0,0,.531-1.133,5.889,5.889,0,0,0,.232-1.578V3.227H283.528V4.8h8.243Z" transform="translate(-136.138 -1.549)" fill="#002e56"/>
    <path id="패스_583" data-name="패스 583" d="M286.708,10.752H284.23v3.224h-4.207v1.547h14.52V13.976h-7.836Z" transform="translate(-134.455 -5.163)" fill="#002e56"/>
    <path id="패스_584" data-name="패스 584" d="M198.408,21.766h-2.623v2.85h-5.55v1.549H204.1V24.616h-5.694Z" transform="translate(-91.343 -10.451)" fill="#002e56"/>
    <path id="패스_585" data-name="패스 585" d="M259.672,21.766h-2.478v2.85h-5.55v1.549h13.582V24.616h-5.553Z" transform="translate(-120.829 -10.451)" fill="#002e56"/>
    <path id="패스_586" data-name="패스 586" d="M334.482,7.005V2.966H332V19.849h2.479V8.554h2.562V7.005Z" transform="translate(-159.414 -1.424)" fill="#002e56"/>
    <path id="패스_587" data-name="패스 587" d="M238.958,5.981h-2.7V7.532h2.7v4.223h2.481V3.072h-2.481Z" transform="translate(-113.439 -1.475)" fill="#002e56"/>
    <path id="패스_588" data-name="패스 588" d="M224.578,9.347a11.312,11.312,0,0,1,4.461,2.192l1.023-1.268a14.479,14.479,0,0,0-4.475-2.582,5.119,5.119,0,0,0,.326-1.807V4.922h2.878V3.371h-8.245V4.922h2.878v.961a4.061,4.061,0,0,1-3.483,4.175V11.58a4.482,4.482,0,0,0,1.078-.162,7.086,7.086,0,0,0,3.559-2.071" transform="translate(-105.607 -1.619)" fill="#002e56"/>
    <path id="패스_589" data-name="패스 589" d="M114.89,2.967h-2.478V13.561h2.478V8.429h2.339V6.861H114.89Z" transform="translate(-53.976 -1.425)" fill="#002e56"/>
    <path id="패스_590" data-name="패스 590" d="M99.675,24.386H97.2V28.3a1.7,1.7,0,0,0,.562,1.347,2.081,2.081,0,0,0,1.412.491H108.2V28.583H99.675Z" transform="translate(-46.669 -11.709)" fill="#002e56"/>
    <path id="패스_591" data-name="패스 591" d="M236.017,22.3a5.423,5.423,0,0,0-6.688,0,3.486,3.486,0,0,0,0,5.556,5.468,5.468,0,0,0,6.688,0,3.489,3.489,0,0,0,0-5.556m-3.344,5.152a2.394,2.394,0,1,1,2.242-2.388,2.32,2.32,0,0,1-2.242,2.388" transform="translate(-109.452 -10.153)" fill="#002e56"/>
    <path id="패스_592" data-name="패스 592" d="M292.84,22.3a5.421,5.421,0,0,0-6.686,0,3.488,3.488,0,0,0,0,5.556,5.466,5.466,0,0,0,6.686,0,3.484,3.484,0,0,0,0-5.556M289.5,27.451a2.394,2.394,0,1,1,2.243-2.388,2.317,2.317,0,0,1-2.243,2.388" transform="translate(-136.737 -10.153)" fill="#002e56"/>
    <path id="패스_593" data-name="패스 593" d="M98.231,10.973a3.4,3.4,0,0,0,.178-5.283h1.365V4.14h-3.63V2.922h-2.48V4.14h-3.63V5.691H91.5a3.4,3.4,0,0,0,.177,5.283,5.353,5.353,0,0,0,6.552,0M92.757,8.235a2.2,2.2,0,1,1,4.4,0,2.2,2.2,0,1,1-4.4,0" transform="translate(-43.231 -1.403)" fill="#002e56"/>
    <path id="패스_594" data-name="패스 594" d="M317.072,8.79a5.06,5.06,0,0,0,.267-1.66V3.283h-2.577V6.632c0,1.986-.72,3.913-3.482,4.53v1.683a8.607,8.607,0,0,0,3.354-1.186,8.346,8.346,0,0,0,1.373-1.122,10.838,10.838,0,0,1,3.713,2.519l1.217-1.291a10.425,10.425,0,0,0-3.863-2.976" transform="translate(-149.463 -1.576)" fill="#002e56"/>
    <path id="패스_595" data-name="패스 595" d="M34.836,9.852a10.456,10.456,0,0,0-.813-.8c.181-.179.362-.367.542-.573L41.544,0h-5.97L31.564,4.884C30.47,6.2,29.806,6.769,28.611,6.769S26.753,6.2,25.66,4.884L21.648,0,15.679,0l6.98,8.478c.188.215.376.411.566.6a10.384,10.384,0,0,0-.785.777l-3.562,4.12h-7.05c-4.058,0-6.58-2.43-6.58-6.341V.234H0v7.4C0,16.34,6.26,18.584,11.592,18.584h8.631a1.545,1.545,0,0,0,1.377-.561l3.963-4.6c1.139-1.311,1.83-1.872,3.074-1.872s1.934.561,3.073,1.872l4.432,5.154h6.228Z" transform="translate(0 0)" fill="#00896e"/>
  </g>
</svg>
