<svg id="그룹_2656" data-name="그룹 2656" xmlns="http://www.w3.org/2000/svg" xmlns:xlink="http://www.w3.org/1999/xlink" width="114.922" height="34" viewBox="0 0 114.922 34">
  <defs>
    <clipPath id="clip-path">
      <rect id="사각형_370" data-name="사각형 370" width="114.922" height="34" fill="none"/>
    </clipPath>
  </defs>
  <g id="그룹_2518" data-name="그룹 2518" clip-path="url(#clip-path)">
    <path id="패스_466" data-name="패스 466" d="M26.25,16.226a6.13,6.13,0,0,0-8.719,1.83A6.137,6.137,0,0,1,6.438,16.369h0c-.006-.023-.011-.041-.017-.064s-.015-.051-.021-.078a7.866,7.866,0,0,1-.313-2.437c0-5.5,5.641-11.621,13.767-11.621A15.5,15.5,0,0,1,34.16,12.024c-.021-.061-.041-.123-.062-.188A17.524,17.524,0,0,0,0,17.521C0,26.17,6.239,33.574,14.892,33.574a14.074,14.074,0,0,0,13.668-9.2,6.756,6.756,0,0,0-2.31-8.146" transform="translate(0 -0.001)" fill="#002a56"/>
    <path id="패스_467" data-name="패스 467" d="M44.258,15.924a15.446,15.446,0,0,0-14.417-10.2c-8.127,0-13.767,6.121-13.767,11.62a7.868,7.868,0,0,0,.313,2.438,5.152,5.152,0,0,1-.162-1.25c0-5.726,5.735-9.695,11.628-9.695A14.446,14.446,0,0,1,42.3,23.287a15.923,15.923,0,0,1-8.829,14.268l0,0a17.527,17.527,0,0,0,11.555-16.48,17.3,17.3,0,0,0-.771-5.155" transform="translate(-9.989 -3.559)" fill="#dc0021"/>
    <path id="패스_468" data-name="패스 468" d="M127.117,37.427v4.882h-1.743V38.95H116.16V37.427h4.693V35.371h-5.572V33.848h12.872v1.523H122.58v2.056Zm0-8.869v4.175h-1.743V30.1h-9.057V28.558Z" transform="translate(-71.637 -17.746)" fill="#474645"/>
    <path id="패스_469" data-name="패스 469" d="M165.859,37.871h-4.552v2.543h5.573v1.522H154.007V40.414h5.557V37.871h-4.52V29.677h10.784V31.2h-9.073v1.82h9.073v1.492h-9.073v1.837h9.1Z" transform="translate(-95.702 -18.441)" fill="#474645"/>
    <path id="패스_470" data-name="패스 470" d="M195.8,40.413V36.065h1.648v4.348h2.34V36.065h1.663v4.348h4.16v1.523H192.735V40.413Zm7.032-2.464V31.23H193.77V29.676h10.8v8.273Z" transform="translate(-119.768 -18.441)" fill="#474645"/>
    <path id="패스_471" data-name="패스 471" d="M243.909,36.074H231.037V34.646h5.572v-.911h-4.537v-5.51h10.784v1.429h-9.088v.691h9.088v1.3h-9.088v.706h9.119v1.381H238.32v.911h5.588Zm-3,3.438a2.882,2.882,0,0,1-.273,1.24,3.3,3.3,0,0,1-.731,1,3.669,3.669,0,0,1-1.084.7,3.343,3.343,0,0,1-1.318.259,3.4,3.4,0,0,1-1.327-.259,3.648,3.648,0,0,1-1.091-.7,3.255,3.255,0,0,1-.728-1,2.846,2.846,0,0,1-.276-1.24,2.8,2.8,0,0,1,.276-1.232,3.285,3.285,0,0,1,.728-1,3.647,3.647,0,0,1,1.091-.7,3.4,3.4,0,0,1,1.327-.259,3.337,3.337,0,0,1,1.318.259,3.667,3.667,0,0,1,1.084.7,3.337,3.337,0,0,1,.731,1,2.834,2.834,0,0,1,.273,1.232m-1.679-.016a1.677,1.677,0,0,0-.5-1.216,1.653,1.653,0,0,0-1.224-.51,1.678,1.678,0,0,0-1.232.51,1.659,1.659,0,0,0-.511,1.216,1.634,1.634,0,0,0,.511,1.209,1.691,1.691,0,0,0,1.232.5,1.716,1.716,0,0,0,1.727-1.711" transform="translate(-143.569 -17.539)" fill="#474645"/>
    <path id="패스_472" data-name="패스 472" d="M269.552,37.025h12.872v1.539h-5.572v3.61h-1.743v-3.61h-5.557Zm2.747-6.844h7.362V28.407h1.727v6.735h-10.8V28.407H272.3Zm7.362,1.507H272.3v1.932h7.362Z" transform="translate(-167.502 -17.652)" fill="#474645"/>
  </g>
</svg>
