<svg id="그룹_2511" data-name="그룹 2511" xmlns="http://www.w3.org/2000/svg" xmlns:xlink="http://www.w3.org/1999/xlink" width="81.092" height="42.13" viewBox="0 0 81.092 42.13">
  <defs>
    <clipPath id="clip-path">
      <rect id="사각형_359" data-name="사각형 359" width="81.092" height="42.13" fill="none"/>
    </clipPath>
  </defs>
  <g id="그룹_2510" data-name="그룹 2510" clip-path="url(#clip-path)">
    <path id="패스_447" data-name="패스 447" d="M229.318,112.109a3.7,3.7,0,1,0,3.7,3.7,3.7,3.7,0,0,0-3.7-3.7m0,5.385a1.689,1.689,0,1,1,1.69-1.689,1.69,1.69,0,0,1-1.69,1.689" transform="translate(-166.229 -82.597)" fill="#566167"/>
    <path id="패스_448" data-name="패스 448" d="M84.921,68.189a3.7,3.7,0,1,0,3.7,3.7,3.7,3.7,0,0,0-3.7-3.7m0,5.385a1.689,1.689,0,1,1,1.69-1.689,1.689,1.689,0,0,1-1.69,1.689" transform="translate(-59.844 -50.239)" fill="#566167"/>
    <path id="패스_449" data-name="패스 449" d="M73.449.611C63.3,6.9,51.353,6.888,40.254,4.883,33.847,3.725,26.039,1.034,18.847,1.057a19.748,19.748,0,0,0-8.472,1.725C1.532,6.962.007,15.511,0,20.657a23.942,23.942,0,0,0,.192,3.122c.079.546.16,1.1.282,1.659.257,1.171.809,3.513,1.8,1.33.2-.431,1.153-2.246,1.776-3.31,4.284-7.329,12.993-9.882,20.98-10.048,8.08-.167,16.038.832,24.12.074A36.437,36.437,0,0,0,73.967,1.574c1.922-2.115.7-1.73-.518-.963" transform="translate(0 0)" fill="#0079c7"/>
    <rect id="사각형_331" data-name="사각형 331" width="2.112" height="3.496" transform="translate(24.022 26.965)" fill="#566167"/>
    <rect id="사각형_332" data-name="사각형 332" width="2.111" height="3.336" transform="translate(26.134 30.498)" fill="#566167"/>
    <rect id="사각형_333" data-name="사각형 333" width="2.111" height="3.337" transform="translate(21.91 34.002)" fill="#566167"/>
    <path id="패스_450" data-name="패스 450" d="M169.763,103.882l2.112,3.217,1.723-1.223-3.835-5.6-3.835,5.6,1.724,1.223Z" transform="translate(-122.249 -73.88)" fill="#566167"/>
    <rect id="사각형_334" data-name="사각형 334" width="2.111" height="7.391" transform="translate(52.795 26.397)" fill="#566167"/>
    <path id="패스_451" data-name="패스 451" d="M120.429,103.882l2.112,3.217,1.723-1.223-3.835-5.6-3.836,5.6,1.724,1.223Z" transform="translate(-85.901 -73.88)" fill="#566167"/>
    <rect id="사각형_335" data-name="사각형 335" width="2.112" height="7.391" transform="translate(39.702 26.397)" fill="#566167"/>
    <rect id="사각형_336" data-name="사각형 336" width="2.511" height="1.953" transform="translate(50.683 28.193)" fill="#566167"/>
    <rect id="사각형_337" data-name="사각형 337" width="2.112" height="7.391" transform="translate(77.08 26.397)" fill="#566167"/>
    <rect id="사각형_338" data-name="사각형 338" width="2.511" height="1.953" transform="translate(78.581 28.668)" fill="#566167"/>
    <path id="패스_452" data-name="패스 452" d="M29.376,103.882l2.111,3.217,1.724-1.223-3.836-5.6-3.836,5.6,1.724,1.223Z" transform="translate(-18.817 -73.88)" fill="#566167"/>
    <rect id="사각형_339" data-name="사각형 339" width="2.112" height="7.391" transform="translate(15.839 26.397)" fill="#566167"/>
    <rect id="사각형_340" data-name="사각형 340" width="2.511" height="1.953" transform="translate(13.727 28.193)" fill="#566167"/>
    <rect id="사각형_341" data-name="사각형 341" width="10.031" height="1.954" transform="translate(20.062 26.45)" fill="#566167"/>
    <rect id="사각형_342" data-name="사각형 342" width="6.335" height="1.954" transform="translate(21.91 29.67)" fill="#566167"/>
    <rect id="사각형_343" data-name="사각형 343" width="6.441" height="1.953" transform="translate(21.91 36.059)" fill="#566167"/>
    <rect id="사각형_344" data-name="사각형 344" width="6.335" height="1.901" transform="translate(21.91 32.865)" fill="#566167"/>
    <rect id="사각형_345" data-name="사각형 345" width="2.112" height="3.337" transform="translate(54.378 34.615)" fill="#566167"/>
    <rect id="사각형_346" data-name="사각형 346" width="2.112" height="3.337" transform="translate(50.155 38.12)" fill="#566167"/>
    <rect id="사각형_347" data-name="사각형 347" width="6.335" height="1.953" transform="translate(50.155 33.789)" fill="#566167"/>
    <rect id="사각형_348" data-name="사각형 348" width="6.441" height="1.953" transform="translate(50.155 40.177)" fill="#566167"/>
    <rect id="사각형_349" data-name="사각형 349" width="6.335" height="1.9" transform="translate(50.155 36.983)" fill="#566167"/>
    <rect id="사각형_350" data-name="사각형 350" width="2.112" height="3.495" transform="translate(61.241 23.758)" fill="#566167"/>
    <rect id="사각형_351" data-name="사각형 351" width="2.112" height="4.052" transform="translate(64.251 20.761)" fill="#566167"/>
    <rect id="사각형_352" data-name="사각형 352" width="10.031" height="1.954" transform="translate(58.074 26.45)" fill="#566167"/>
    <rect id="사각형_353" data-name="사각형 353" width="6.547" height="1.954" transform="translate(59.816 19.323)" fill="#566167"/>
    <rect id="사각형_354" data-name="사각형 354" width="2.112" height="3.333" transform="translate(70.216 28.156)" fill="#566167"/>
    <rect id="사각형_355" data-name="사각형 355" width="5.28" height="1.953" transform="translate(70.216 31.149)" fill="#566167"/>
    <rect id="사각형_356" data-name="사각형 356" width="2.112" height="4.232" transform="translate(73.279 34.528)" fill="#566167"/>
    <rect id="사각형_357" data-name="사각형 357" width="6.019" height="1.953" transform="translate(73.279 38.171)" fill="#566167"/>
    <rect id="사각형_358" data-name="사각형 358" width="5.28" height="1.954" transform="translate(70.216 26.45)" fill="#566167"/>
  </g>
</svg>
