<svg id="그룹_2531" data-name="그룹 2531" xmlns="http://www.w3.org/2000/svg" xmlns:xlink="http://www.w3.org/1999/xlink" width="97.229" height="32.188" viewBox="0 0 97.229 32.188">
  <defs>
    <clipPath id="clip-path">
      <rect id="사각형_382" data-name="사각형 382" width="97.229" height="32.188" fill="none"/>
    </clipPath>
  </defs>
  <g id="그룹_2530" data-name="그룹 2530" clip-path="url(#clip-path)">
    <path id="패스_527" data-name="패스 527" d="M29.672,19.419a7.832,7.832,0,0,0-.912-1.092l1.178-.4,4.128-3.3.253-2.935-.106-.211-.022-.076-.012-.042-.011-.051-.045-.141-.42-1.1-4.55-1.23L25.98,7.813,23.761,2.7l-2.23-.911-.322-.035-.18.023h-.974l-3.367,3.5L15.763,8.7,8.85,9.432l-.823,1.777-.072.282.02,1.406,3.141,3.951,2.4,1.288a7.8,7.8,0,0,0-1.091,1.251c-5.363,1.237-4.271,12.064,2.362,13.1a40.573,40.573,0,0,0,6.189.462,39.927,39.927,0,0,0,6.993-.6c6.207-1.113,6.987-11.684,1.7-12.93" transform="translate(-3.438 -0.757)" fill="#fff" fill-rule="evenodd"/>
    <path id="패스_528" data-name="패스 528" d="M25.352,23.763a13.454,13.454,0,0,1,6.481.014L31,20.511l-.789-.016-.131.975H29.15l-.11-.959-.889-.016-.108.975-.943-.01-.114-.957h-.8Z" transform="translate(-10.958 -8.859)" fill="#f99900" fill-rule="evenodd"/>
    <path id="패스_529" data-name="패스 529" d="M17.6,34.035h0Zm8.634-1.191a10.157,10.157,0,0,1,1.429,7.025,9.716,9.716,0,0,1-7.311-2.075,8.977,8.977,0,0,1-2.75-3.759,8.977,8.977,0,0,1-2.75,3.759A9.716,9.716,0,0,1,7.539,39.87a10.138,10.138,0,0,1,1.45-7.057C3.626,34.05,0,36.414,0,39.134c0,3.581,6.285,6.546,14.546,7.132V41.485h1.329v4.854c.329.012.662.022,1,.027V39.551H18.2v6.814q.507-.008,1.006-.027V41.485h1.327v4.782c8.264-.585,14.551-3.551,14.551-7.132,0-2.7-3.563-5.043-8.849-6.289" transform="translate(0 -14.183)" fill="#004b9e" fill-rule="evenodd"/>
    <path id="패스_530" data-name="패스 530" d="M14.19,6.952A10.689,10.689,0,0,0,6.454,8.4a8.648,8.648,0,0,0,.365,2.209A8.614,8.614,0,0,1,16.3,9.841a8.593,8.593,0,0,1,3.62-8.829A8.419,8.419,0,0,0,17.927,0,10.7,10.7,0,0,0,14.19,6.952M5.256,12.2a10.389,10.389,0,0,0,2.279,3.427c.249.251.5.489.765.716A10.915,10.915,0,0,0,11.586,18.2a8.04,8.04,0,0,1,1.753-1.6,8.613,8.613,0,0,1-6.519-5.983A8.754,8.754,0,0,0,5.256,12.2M25.64,6.952A10.687,10.687,0,0,0,21.9,0a8.375,8.375,0,0,0-1.986,1.011,8.579,8.579,0,0,1,3.62,8.829,8.621,8.621,0,0,1,9.48.773A9.311,9.311,0,0,0,33.376,8.4,10.7,10.7,0,0,0,25.64,6.952m7.374,3.662a8.433,8.433,0,0,1-2.371,3.83,8.731,8.731,0,0,1-4.213,2.168,8.054,8.054,0,0,1,1.748,1.61,10.874,10.874,0,0,0,3.35-1.883c.263-.227.52-.465.765-.716A10.529,10.529,0,0,0,34.578,12.2a9.268,9.268,0,0,0-1.564-1.582" transform="translate(-2.272 0)" fill="#d3002e" fill-rule="evenodd"/>
    <path id="패스_531" data-name="패스 531" d="M113.51,40.188a1.984,1.984,0,0,0,.554,1.5,2.172,2.172,0,0,0,1.558.535h9.819V34.4H113.51Zm2.8-4.237h6.323v4.715h-6.323Z" transform="translate(-49.062 -14.868)" fill="#474645"/>
    <path id="패스_532" data-name="패스 532" d="M123.672,14.173h-2.8v6.639a13.078,13.078,0,0,1-1.524.49,8.884,8.884,0,0,1-2.067.229h-5.063V14.173h-2.8v6.985a1.89,1.89,0,0,0,.506,1.44,2.145,2.145,0,0,0,1.514.485h5.715a6.541,6.541,0,0,0,2.091-.337,9.443,9.443,0,0,0,1.625-.7v2.574h2.8V18.857h3.134V17.3h-3.134Z" transform="translate(-47.293 -6.126)" fill="#474645"/>
    <rect id="사각형_381" data-name="사각형 381" width="2.811" height="19.306" transform="translate(94.418 8.046)" fill="#474645"/>
    <path id="패스_533" data-name="패스 533" d="M92.076,17.815H88.144v1.556h3.931v5.241h2.8V14.159h-2.8Z" transform="translate(-38.098 -6.12)" fill="#474645"/>
    <path id="패스_534" data-name="패스 534" d="M85.8,33.436c-3.159,0-5.633,1.955-5.633,4.457s2.474,4.456,5.633,4.456,5.632-1.955,5.632-4.456-2.475-4.457-5.632-4.457m0,7.37a2.914,2.914,0,1,1,2.83-2.913,2.819,2.819,0,0,1-2.83,2.913" transform="translate(-34.648 -14.452)" fill="#474645"/>
    <path id="패스_535" data-name="패스 535" d="M79.423,20.864a7.3,7.3,0,0,1-1.588-4.624V14.173H74.963V16.24a7.287,7.287,0,0,1-1.584,4.624,13.93,13.93,0,0,1-3.085,2.378l1.256,1.228a22.38,22.38,0,0,0,2.725-1.786,8.483,8.483,0,0,0,2.124-2.6,8.5,8.5,0,0,0,2.125,2.6,22.233,22.233,0,0,0,2.724,1.786l1.26-1.228a13.909,13.909,0,0,1-3.086-2.378" transform="translate(-30.383 -6.126)" fill="#474645"/>
    <path id="패스_536" data-name="패스 536" d="M151.447,23.354c-1.4-1.692-1.6-3.19-1.661-5.428V14.173h-2.87v3.753c-.055,2.238-.255,3.737-1.656,5.428a13.429,13.429,0,0,1-3.017,2.38l1.258,1.228a13.284,13.284,0,0,0,2.653-1.858c1.714-1.706,2.125-2.609,2.2-2.968.071.359.483,1.262,2.194,2.968a13.287,13.287,0,0,0,2.655,1.858l1.259-1.228a13.372,13.372,0,0,1-3.014-2.38" transform="translate(-61.482 -6.126)" fill="#474645"/>
  </g>
</svg>
