<svg id="그룹_2541" data-name="그룹 2541" xmlns="http://www.w3.org/2000/svg" xmlns:xlink="http://www.w3.org/1999/xlink" width="104.557" height="48.621" viewBox="0 0 104.557 48.621">
  <defs>
    <clipPath id="clip-path">
      <rect id="사각형_404" data-name="사각형 404" width="104.557" height="48.621" fill="none"/>
    </clipPath>
  </defs>
  <g id="그룹_2540" data-name="그룹 2540" transform="translate(0 0)" clip-path="url(#clip-path)">
    <path id="패스_600" data-name="패스 600" d="M9.143,35.443C7.415,34.634,6,33.981,6,32.66c0-1.009.807-1.744,2.4-1.744a8.347,8.347,0,0,1,1.564.159,4.707,4.707,0,0,0,.765.084c1.393,0,2.18-.831,2.7-2.408l.217-.644a14.551,14.551,0,0,0-5.469-1.092c-4.724,0-7.218,3.03-7.216,6.173a5.321,5.321,0,0,0,1.273,3.638A11.445,11.445,0,0,0,6,39.405c1.945.954,3.7,1.661,3.7,3.076,0,1.256-1.3,1.97-3.031,1.97a9.481,9.481,0,0,1-4.72-1.522L0,46.587a13.48,13.48,0,0,0,7,1.792c4.408,0,7.746-2.529,7.746-6.419,0-3.869-3.094-5.3-5.6-6.517" transform="translate(0 0.242)" fill="#ea002c"/>
    <path id="패스_601" data-name="패스 601" d="M26.229,37.245l8-9.8h-5.7L22.151,35.9h-.095V27.441h-4.7V48.21h.278c2.031,0,4.448-.939,4.448-4.332V39.11h.1l6.5,8.842h5.975Z" transform="translate(0.156 0.246)" fill="#ea002c"/>
    <path id="패스_602" data-name="패스 602" d="M34.383,5.392c-1.654.312-4.1,1.812-4.1,4.467.006,2.41,1.978,3.87,1.984,7.028a5.589,5.589,0,0,1-2.716,4.863c.571-.05,1.2-.083,1.889-.085a15.72,15.72,0,0,1,2.373.143l7.417-9.1a30.821,30.821,0,0,0-6.849-7.314" transform="translate(0.265 0.048)" fill="#ea002c"/>
    <path id="패스_603" data-name="패스 603" d="M40.546,29.906c.935-1.452,1.052-3.769,1.131-6.13.088-2.2.547-3.856,3.492-3.866.651,0,1.273.088,2.4.084a17.354,17.354,0,0,0,8.881-2.479A30.818,30.818,0,0,0,41.164,12.64c-.423,1.192-3.708,10.324-3.956,11.061a12.213,12.213,0,0,1,1.332,1.945,21.645,21.645,0,0,1,2.006,4.259" transform="translate(0.334 0.113)" fill="#ea002c"/>
    <path id="패스_604" data-name="패스 604" d="M25.015,22.56c-.375,0-.562-.248-.612-.679s-1.9-17.4-2.179-19.97c-.04-.376-.133-1.063-.135-1.31a.548.548,0,0,1,.561-.6c.879,0,5.669,1.118,10.752,4.682a5.425,5.425,0,0,0-4.1,5.089c.01,2.793,2.008,4.329,2.019,7.129.016,4.556-5.219,5.657-6.3,5.659" transform="translate(0.198 0)" fill="#ff7a00"/>
    <path id="패스_605" data-name="패스 605" d="M40.938,31.067a3.148,3.148,0,0,0,.231.514.506.506,0,0,0,.455.288,1.091,1.091,0,0,0,.424-.113c.392-.179,15.88-7.391,18.216-8.467.339-.162.981-.45,1.194-.573a.567.567,0,0,0,.318-.493.584.584,0,0,0-.09-.3,18.98,18.98,0,0,0-4.3-3.8,19.126,19.126,0,0,1-9.716,2.808c-1.133,0-1.388-.075-2.161-.071-2.257.007-2.82.973-2.9,2.95-.013.372-.019.876-.04,1.427-.072,1.768-.282,4.205-1.632,5.837" transform="translate(0.367 0.163)" fill="#ff7a00"/>
    <path id="패스_606" data-name="패스 606" d="M57.992,39.227V37.471H52.844V36.218h4.178V34.462H52.844v-1.2h4.85V31.507H52.178a1.842,1.842,0,0,0-1.843,1.84v4.035a1.844,1.844,0,0,0,1.843,1.844Z" transform="translate(0.452 0.283)" fill="#ff7a00"/>
    <path id="패스_607" data-name="패스 607" d="M65.313,44.864V42.088a1.844,1.844,0,0,0-1.843-1.842H62.8v4.618Z" transform="translate(0.564 0.361)" fill="#ff7a00"/>
    <path id="패스_608" data-name="패스 608" d="M52.822,43.19v2.776a1.843,1.843,0,0,0,1.842,1.843h.666V43.19Z" transform="translate(0.474 0.388)" fill="#ff7a00"/>
    <rect id="사각형_388" data-name="사각형 388" width="1.854" height="1.756" transform="translate(58.155 34.745)" fill="#ff7a00"/>
    <rect id="사각형_389" data-name="사각형 389" width="10.32" height="1.756" transform="translate(53.296 40.607)" fill="#ff7a00"/>
    <rect id="사각형_390" data-name="사각형 390" width="10.32" height="1.756" transform="translate(53.296 43.471)" fill="#ff7a00"/>
    <rect id="사각형_391" data-name="사각형 391" width="10.695" height="1.756" transform="translate(55.634 46.442)" fill="#ff7a00"/>
    <rect id="사각형_392" data-name="사각형 392" width="2.509" height="8.208" transform="translate(63.368 31.79)" fill="#ff7a00"/>
    <rect id="사각형_393" data-name="사각형 393" width="2.507" height="8.208" transform="translate(59.849 31.79)" fill="#ff7a00"/>
    <rect id="사각형_394" data-name="사각형 394" width="1.853" height="1.756" transform="translate(77.412 35.977)" fill="#ff7a00"/>
    <path id="패스_609" data-name="패스 609" d="M84.042,31.507V46.071A1.846,1.846,0,0,1,82.2,47.915h-.666V31.507Z" transform="translate(0.732 0.283)" fill="#ff7a00"/>
    <path id="패스_610" data-name="패스 610" d="M80.493,31.507V46.071a1.846,1.846,0,0,1-1.843,1.844h-.666V31.507Z" transform="translate(0.7 0.283)" fill="#ff7a00"/>
    <rect id="사각형_395" data-name="사각형 395" width="6.927" height="1.756" transform="translate(69.962 35.977)" fill="#ff7a00"/>
    <rect id="사각형_396" data-name="사각형 396" width="5.364" height="1.755" transform="translate(72.22 40.597)" fill="#ff7a00"/>
    <rect id="사각형_397" data-name="사각형 397" width="4.67" height="1.755" transform="translate(69.962 31.79)" fill="#ff7a00"/>
    <path id="패스_611" data-name="패스 611" d="M76.226,36.126V33.35a1.842,1.842,0,0,0-1.841-1.842h-.666v4.618Z" transform="translate(0.662 0.283)" fill="#ff7a00"/>
    <path id="패스_612" data-name="패스 612" d="M69.34,37.081v3.095a1.843,1.843,0,0,0,1.841,1.842h.666V37.081Z" transform="translate(0.622 0.333)" fill="#ff7a00"/>
    <rect id="사각형_398" data-name="사각형 398" width="10.401" height="1.755" transform="translate(90.073 31.79)" fill="#ff7a00"/>
    <rect id="사각형_399" data-name="사각형 399" width="11.269" height="1.756" transform="translate(89.521 34.913)" fill="#ff7a00"/>
    <rect id="사각형_400" data-name="사각형 400" width="12.818" height="1.755" transform="translate(90.055 41.609)" fill="#ff7a00"/>
    <rect id="사각형_401" data-name="사각형 401" width="8.186" height="1.756" transform="translate(92.41 46.442)" fill="#ff7a00"/>
    <rect id="사각형_402" data-name="사각형 402" width="16.342" height="1.757" transform="translate(88.216 38.626)" fill="#ff7a00"/>
    <path id="패스_613" data-name="패스 613" d="M102.024,37.656V33.349a1.843,1.843,0,0,0-1.843-1.842h-.667v6.149Z" transform="translate(0.893 0.283)" fill="#ff7a00"/>
    <path id="패스_614" data-name="패스 614" d="M101.979,41.674v4.305a1.844,1.844,0,0,1-1.843,1.843H99.47V41.674Z" transform="translate(0.893 0.374)" fill="#ff7a00"/>
    <path id="패스_615" data-name="패스 615" d="M89.254,41.674v4.305A1.845,1.845,0,0,0,91.1,47.823h.666V41.674Z" transform="translate(0.801 0.374)" fill="#ff7a00"/>
    <rect id="사각형_403" data-name="사각형 403" width="2.508" height="3.216" transform="translate(93.914 36.388)" fill="#ff7a00"/>
  </g>
</svg>
