<svg id="그룹_2671" data-name="그룹 2671" xmlns="http://www.w3.org/2000/svg" xmlns:xlink="http://www.w3.org/1999/xlink" width="138.576" height="32.837" viewBox="0 0 138.576 32.837">
  <defs>
    <clipPath id="clip-path">
      <rect id="사각형_437" data-name="사각형 437" width="138.576" height="32.837" fill="none"/>
    </clipPath>
  </defs>
  <g id="그룹_2670" data-name="그룹 2670" clip-path="url(#clip-path)">
    <path id="패스_725" data-name="패스 725" d="M531.064,32.952a15.671,15.671,0,0,0-7.181-1.732c-5.681,0-8.314,2.54-8.314,6.166,0,3.117,2.356,5.011,4.919,6,1.27.462,2.679.947,3.741,1.248,1.709.484,2.378,1.293,2.378,2.471,0,1.478-1.04,2.355-3.741,2.355a13.372,13.372,0,0,1-6-1.732l-1.617,3.6a16.359,16.359,0,0,0,7.667,1.94c5.311,0,8.406-2.655,8.406-6.327,0-3.487-1.847-4.711-3.926-5.611-.808-.323-2.309-.808-3.095-1.04-2.655-.739-4.087-1.409-4.087-3.163,0-1.294.854-2.309,3.764-2.309a11.671,11.671,0,0,1,5.565,1.524ZM509.242,31.52V48.908h-.532L502.568,31.52h-8.313v21.36h4.5V35.215h.577l6.073,17.666h8.314V31.52Zm-16.488,2.517c-1.847-2.056-4.873-2.84-7.6-2.84-6.3,0-10.138,3.764-10.138,11.015,0,6.927,2.956,11.015,10.091,11.015a15.335,15.335,0,0,0,7.343-1.732l-1.062-3.556a14.252,14.252,0,0,1-5.958,1.27c-4.48,0-5.657-2.863-5.657-7.043,0-4.872,2.17-7.2,5.565-7.2a6.675,6.675,0,0,1,4.827,2.056Z" transform="translate(-392.742 -25.793)" fill="#706f6f"/>
    <path id="패스_726" data-name="패스 726" d="M16.419,32.837A16.418,16.418,0,1,0,0,16.418,16.409,16.409,0,0,0,16.419,32.837" fill="#be0737"/>
    <path id="패스_727" data-name="패스 727" d="M61.18,53.193H59.864V67.579h4.595V66.31h-3.28Zm-5.889,3.926a1.961,1.961,0,0,0,1.963-1.96v0a1.961,1.961,0,0,0-1.959-1.963h0a1.961,1.961,0,0,0-1.963,1.96v0a1.961,1.961,0,0,0,1.96,1.963h0" transform="translate(-44.092 -43.98)" fill="#fff"/>
    <path id="패스_728" data-name="패스 728" d="M29.875,15.489c-.162,0-.484-.023-.67-.023a13.748,13.748,0,1,0,13.74,13.74v-.623H33.155v1.27h8.5v.184A12.484,12.484,0,0,1,29.229,41.652a12.447,12.447,0,1,1-.023-24.894c.139,0,.508,0,.67.023Z" transform="translate(-12.787 -12.787)" fill="#fff"/>
    <path id="패스_729" data-name="패스 729" d="M258.534,44.86h4.018V48.6a11.587,11.587,0,0,1-3.556.554c-4.434,0-5.911-2.263-5.911-6.835,0-4.364,1.408-6.951,5.842-6.951a5.7,5.7,0,0,1,5.034,2.263l3.071-2.817c-1.87-2.679-5.149-3.487-8.22-3.487-6.9,0-10.553,3.764-10.553,10.969,0,7.159,3.278,11.037,10.507,11.037,3.325,0,6.557-.854,8.313-2.078V40.888h-8.567V44.86ZM237.451,31.629h-4.942v21.36H247.68V48.832h-10.23Z" transform="translate(-192.237 -25.902)" fill="#706f6f"/>
  </g>
</svg>
