<svg id="그룹_2715" data-name="그룹 2715" xmlns="http://www.w3.org/2000/svg" xmlns:xlink="http://www.w3.org/1999/xlink" width="193.489" height="20.237" viewBox="0 0 193.489 20.237">
  <defs>
    <clipPath id="clip-path">
      <rect id="사각형_473" data-name="사각형 473" width="193.489" height="20.237" fill="none"/>
    </clipPath>
  </defs>
  <g id="그룹_2715-2" data-name="그룹 2715" clip-path="url(#clip-path)">
    <path id="패스_848" data-name="패스 848" d="M183.683,0H161.214V10.035a73.5,73.5,0,0,1,22.469-3.119Z" transform="translate(-144.902)" fill="#00984b"/>
    <path id="패스_849" data-name="패스 849" d="M203.575,104.424h18.183V93.686c-12.218.919-16.731,7.6-18.182,10.738" transform="translate(-182.977 -84.207)" fill="#0069b4"/>
    <path id="패스_850" data-name="패스 850" d="M116.994,94.227h4.424l.05-.08c6.155-10.562,18.862-11.349,22.47-11.355V82.32c-11.495.355-18.442,3.775-22.469,7a19.445,19.445,0,0,0-4.474,4.907" transform="translate(-105.156 -73.991)" fill="#0069b4"/>
    <path id="패스_851" data-name="패스 851" d="M16.311,73.826c9.081-4.4,20.07-4.728,22.469-4.743v-.732a73.5,73.5,0,0,0-22.469,3.12C5.867,74.819,1.329,79.9,0,81.672H6.774a23.763,23.763,0,0,1,9.537-7.846" transform="translate(0.001 -61.435)" fill="#00984b"/>
    <path id="패스_852" data-name="패스 852" d="M161.214,98.33v.061H165.5c1.452-3.137,5.965-9.819,18.182-10.737v-.679c-3.607.006-16.314.794-22.469,11.355" transform="translate(-144.902 -78.175)" fill="#fff"/>
    <path id="패스_853" data-name="패스 853" d="M66.955,88.17h5.063a19.452,19.452,0,0,1,4.474-4.906c4.027-3.225,10.975-6.646,22.469-7v-.682c-2.4.015-13.388.341-22.469,4.743a23.762,23.762,0,0,0-9.537,7.846" transform="translate(-60.18 -67.933)" fill="#fff"/>
    <path id="패스_854" data-name="패스 854" d="M442.413,14.755V12.09h2V22.983h-2V16.355h-2.58v-1.6Zm-4.65-2.666a13.311,13.311,0,0,0,.751,5.227,2.766,2.766,0,0,0,2.156,1.673v1.786a5.292,5.292,0,0,1-2.4-.832,4.453,4.453,0,0,1-1.547-1.861,4.354,4.354,0,0,1-1.656,1.861,5.575,5.575,0,0,1-2.313.832V19a2.822,2.822,0,0,0,2.185-1.694,12.832,12.832,0,0,0,.779-5.216Zm13.382,1.2a1.385,1.385,0,0,0-.48,1.095,1.358,1.358,0,0,0,.48,1.047,1.927,1.927,0,0,0,1.3.433,1.907,1.907,0,0,0,1.277-.433,1.347,1.347,0,0,0,.494-1.047,1.372,1.372,0,0,0-.494-1.095,1.915,1.915,0,0,0-1.276-.419,1.937,1.937,0,0,0-1.3.419m6.909,4.576v3.181H448.83v.424h9.224v1.446H447.792a1.115,1.115,0,0,1-.724-.19.985.985,0,0,1-.24-.754V19.741h9.224v-.425h-9.224V17.868h4.516v-.44H446.42v-1.48h2.848a2.286,2.286,0,0,1-.589-1.544,2.667,2.667,0,0,1,1.145-2.24,4.262,4.262,0,0,1,2.622-.8,4.175,4.175,0,0,1,2.575.8,2.661,2.661,0,0,1,1.159,2.24,2,2,0,0,1-.171.829,2.414,2.414,0,0,1-.452.715h2.9v1.48h-4.923v.44ZM469.7,20.93h-9.221V19.419H471.7v3.563H469.7Zm-4.644-3.979h-3.627a1.088,1.088,0,0,1-.709-.19,1.023,1.023,0,0,1-.241-.765V12.09H471.7v1.4H462.5v.459h9.2v1.208h-9.2v.49h9.2v1.308h-6.649Zm7.06,1.94H460.065V17.428h12.047Zm9.171-4.27h2.061v-.56h-2.061Zm-5.158.562h3.156v-.849h-3.156Zm7.219,3.812h-8.56V17.481h10.562v3.382h-8.559v.494h8.559v1.561h-9.585a1.1,1.1,0,0,1-.723-.19.985.985,0,0,1-.255-.765V19.469h8.56ZM480.936,16.6a1.094,1.094,0,0,1-.625.145h-5.239a1.082,1.082,0,0,1-.709-.19,1.027,1.027,0,0,1-.24-.768v-3.7h2v.864h3.156V12.09h2V12.6h2.061V12.09h2V16.9h-2v-.815h-2.081a.817.817,0,0,1-.327.516m16.049-4.511h2.005V23.1h-2.005Zm-4.591,0a13.253,13.253,0,0,0,.751,5.226,2.769,2.769,0,0,0,2.17,1.673v1.786a5.3,5.3,0,0,1-2.41-.832,4.4,4.4,0,0,1-1.544-1.861,4.4,4.4,0,0,1-1.659,1.861,5.477,5.477,0,0,1-2.3.832V19a2.816,2.816,0,0,0,2.167-1.694,12.832,12.832,0,0,0,.779-5.215Zm19.892,0v1.6h-8.532v2.667h8.537v1.6h-4.268v2.855h5.032v1.6H501.013v-1.6h5.03V17.953H502.7a1.062,1.062,0,0,1-.709-.187,1,1,0,0,1-.257-.766V12.09Zm11.985,0h2.005V23.1h-2.005Zm-4.591,0a13.307,13.307,0,0,0,.751,5.226,2.76,2.76,0,0,0,2.167,1.673v1.786a5.318,5.318,0,0,1-2.41-.832,4.429,4.429,0,0,1-1.544-1.861,4.375,4.375,0,0,1-1.656,1.861,5.5,5.5,0,0,1-2.3.832V19a2.817,2.817,0,0,0,2.17-1.694,12.874,12.874,0,0,0,.779-5.215Zm18.228,1.587V12.085h2v4.843h-2V15.192h-1.743V13.677Zm0,5.309H529.35V17.468h10.564v3.386h-8.559v.49h8.559V22.91h-9.587a1.1,1.1,0,0,1-.721-.19.973.973,0,0,1-.257-.765V19.462h8.559Zm-6.669-6.5v-1h2.08v1h2.605V14h-2.494a1.891,1.891,0,0,0,.807.715,4.9,4.9,0,0,0,1.815.484v1.633a6.252,6.252,0,0,1-2.2-.434,3.691,3.691,0,0,1-1.556-1.082,3.788,3.788,0,0,1-1.673,1.1,6.128,6.128,0,0,1-2.126.419V15.215a4.775,4.775,0,0,0,1.785-.5,1.7,1.7,0,0,0,.768-.715h-2.424V12.491Zm21.972-.4v1.6h-8.529v2.667h8.535v1.6h-4.264v2.855h5.031v1.6H541.936v-1.6h5.031V17.953h-3.337a1.06,1.06,0,0,1-.712-.187.99.99,0,0,1-.26-.766V12.09Zm6.716,6.366a1.884,1.884,0,0,0,0,2.946,2.606,2.606,0,0,0,3.329,0,1.866,1.866,0,0,0,0-2.946,2.65,2.65,0,0,0-3.329,0M567.79,16.2v1.6h-2.658a3.173,3.173,0,0,1,.74.961,2.537,2.537,0,0,1,.284,1.174,3.231,3.231,0,0,1-1.435,2.68,5,5,0,0,1-3.089,1,5.1,5.1,0,0,1-3.15-1,3.235,3.235,0,0,1-1.419-2.68,2.753,2.753,0,0,1,.255-1.162,3.251,3.251,0,0,1,.709-.972h-2.464V16.2h4.278V14.7h2V16.2h3.346V13.69h-9.227v-1.6h11.232V16.2Zm13.055,1.238v5.546h-2V12.094h2v3.75h1.614v1.6Zm-6.6-5.352A13.307,13.307,0,0,0,575,17.316a2.768,2.768,0,0,0,2.17,1.673v1.786a5.271,5.271,0,0,1-2.407-.833,4.457,4.457,0,0,1-1.55-1.861,4.343,4.343,0,0,1-1.653,1.861,5.5,5.5,0,0,1-2.3.833V19a2.82,2.82,0,0,0,2.173-1.694,12.893,12.893,0,0,0,.776-5.215ZM435.183,27.836a.827.827,0,0,0,.223.574.736.736,0,0,0,.556.208.821.821,0,0,0,.6-.208.7.7,0,0,0,.224-.541.632.632,0,0,0-.224-.531,2.339,2.339,0,0,0-.642-.253,2.867,2.867,0,0,1-.562-.2,1.777,1.777,0,0,1-.486-.351.894.894,0,0,1-.209-.336A1.385,1.385,0,0,1,435,24.813a1.485,1.485,0,0,1,1.055-.378,1.29,1.29,0,0,1,1.382,1.3h-.751a.657.657,0,0,0-.2-.456.635.635,0,0,0-.447-.163.7.7,0,0,0-.494.175.634.634,0,0,0-.173.47l.019.189.106.156a.831.831,0,0,0,.28.153c.07.028.187.064.36.112l.369.106a1.579,1.579,0,0,1,.771.507,1.229,1.229,0,0,1,.279.811,1.481,1.481,0,0,1-.433,1.1,1.582,1.582,0,0,1-1.15.427,1.5,1.5,0,0,1-1.089-.4,1.432,1.432,0,0,1-.434-1.084Zm4-1.384a1.406,1.406,0,0,0-.508.635H441.1a1.467,1.467,0,0,0-.486-.642,1.189,1.189,0,0,0-.7-.2,1.281,1.281,0,0,0-.729.2m-.55,1.265a1.361,1.361,0,0,0,.5.687,1.267,1.267,0,0,0,.774.241,1.441,1.441,0,0,0,.611-.137,1.588,1.588,0,0,0,.444-.345h.868a2.169,2.169,0,0,1-.793.866,2.129,2.129,0,0,1-1.131.306,2.318,2.318,0,0,1-.821-.144,2.023,2.023,0,0,1-.662-.409,1.848,1.848,0,0,1-.438-.619,1.77,1.77,0,0,1-.151-.705,1.839,1.839,0,0,1,.137-.717,1.976,1.976,0,0,1,.419-.6,2.12,2.12,0,0,1,.675-.43,2.174,2.174,0,0,1,.8-.142,2.278,2.278,0,0,1,.98.21,1.944,1.944,0,0,1,.757.61,1.873,1.873,0,0,1,.266.536,2.484,2.484,0,0,1,.084.662v.13Zm4.884.6a1.3,1.3,0,0,0,.919.346,1.226,1.226,0,0,0,.886-.346,1.2,1.2,0,0,0,0-1.727,1.393,1.393,0,0,0-1.8.008,1.2,1.2,0,0,0-.008,1.719m-1.005-1.564a1.8,1.8,0,0,1,.416-.595,2,2,0,0,1,.729-.438,2.378,2.378,0,0,1,.843-.151,1.913,1.913,0,0,1,.746.138,2.172,2.172,0,0,1,.625.406,2.115,2.115,0,0,1,.452.612,1.646,1.646,0,0,1,.159.7,1.958,1.958,0,0,1-.55,1.305,2.288,2.288,0,0,1-.7.454,2.037,2.037,0,0,1-.8.162,2.277,2.277,0,0,1-.812-.141,1.986,1.986,0,0,1-.662-.417,1.923,1.923,0,0,1-.444-.613,1.811,1.811,0,0,1-.008-1.426m7.174,2.486v-.307a2.372,2.372,0,0,1-.549.3,1.285,1.285,0,0,1-.5.088,1.637,1.637,0,0,1-1.192-.416,1.589,1.589,0,0,1-.417-1.18V25.679h.768v1.869a1.3,1.3,0,0,0,.212.824.8.8,0,0,0,.679.276,1.062,1.062,0,0,0,.506-.119.842.842,0,0,0,.319-.326.98.98,0,0,0,.125-.381,3.225,3.225,0,0,0,.028-.5V25.679h.745v3.559Zm1.436-4.7h.749v4.7h-.749Zm3.4,4.7v-4.7h1.153l1.477,3.535,1.474-3.535h1.137v4.7h-.751V25.449l-1.581,3.792h-.57l-1.559-3.778v3.778Zm7.146-2.789a1.422,1.422,0,0,0-.506.635h2.419a1.479,1.479,0,0,0-.489-.642,1.187,1.187,0,0,0-.7-.2,1.281,1.281,0,0,0-.729.2m-.55,1.265a1.36,1.36,0,0,0,.5.687,1.267,1.267,0,0,0,.771.241,1.443,1.443,0,0,0,.615-.137,1.566,1.566,0,0,0,.447-.345h.868a2.215,2.215,0,0,1-.793.866,2.15,2.15,0,0,1-1.137.306,2.32,2.32,0,0,1-.818-.144,2.015,2.015,0,0,1-.661-.409,1.836,1.836,0,0,1-.438-.619,1.763,1.763,0,0,1-.151-.705,1.85,1.85,0,0,1,.14-.717,1.876,1.876,0,0,1,.416-.6,2.159,2.159,0,0,1,.675-.43,2.2,2.2,0,0,1,.8-.142,2.273,2.273,0,0,1,.98.21,1.965,1.965,0,0,1,.756.61,1.823,1.823,0,0,1,.265.536,2.386,2.386,0,0,1,.084.662v.13Zm4.136-1.406H464.7v-.637h.555V24.541h.757v1.134h.555v.637h-.555v2.927h-.757Zm1.732,2.925V25.675h.717v.306a.6.6,0,0,1,.4-.3,1.943,1.943,0,0,1,.516-.068v.726a1.006,1.006,0,0,0-.7.242,1.044,1.044,0,0,0-.179.675v1.983Zm3.019-.92a1.294,1.294,0,0,0,.919.346,1.223,1.223,0,0,0,.883-.346,1.2,1.2,0,0,0,0-1.727,1.393,1.393,0,0,0-1.8.008,1.193,1.193,0,0,0-.005,1.719M469,26.752a1.8,1.8,0,0,1,.416-.595,1.994,1.994,0,0,1,.732-.438,2.36,2.36,0,0,1,.841-.151,1.89,1.89,0,0,1,.742.138,2.173,2.173,0,0,1,.628.406,2.108,2.108,0,0,1,.453.612,1.647,1.647,0,0,1,.159.7,1.717,1.717,0,0,1-.153.706,1.766,1.766,0,0,1-.4.6,2.265,2.265,0,0,1-.693.454,2.045,2.045,0,0,1-.8.162,2.3,2.3,0,0,1-.815-.141,2.017,2.017,0,0,1-.662-.417,1.981,1.981,0,0,1-.447-.613,1.855,1.855,0,0,1-.145-.711,1.816,1.816,0,0,1,.139-.715m5.641,1.547a1.266,1.266,0,0,0,.9.355,1.326,1.326,0,0,0,.908-.348,1.069,1.069,0,0,0,.391-.83,1.14,1.14,0,0,0-.391-.883,1.385,1.385,0,0,0-1.807,0,1.1,1.1,0,0,0-.383.838,1.15,1.15,0,0,0,.377.869m.3.931a1.817,1.817,0,0,1-.653-.367v1.292h-.766V25.672h.774v.369a2.955,2.955,0,0,1,.676-.361,1.874,1.874,0,0,1,.6-.093,2.109,2.109,0,0,1,1.475.539,1.726,1.726,0,0,1,.6,1.343,1.661,1.661,0,0,1-.153.7,1.927,1.927,0,0,1-.422.6,2.071,2.071,0,0,1-.654.413,2.21,2.21,0,0,1-.8.136,2.24,2.24,0,0,1-.673-.093m4.242-.915a1.294,1.294,0,0,0,.916.346,1.229,1.229,0,0,0,.886-.346,1.2,1.2,0,0,0,0-1.727,1.392,1.392,0,0,0-1.8.008,1.192,1.192,0,0,0-.006,1.719m-1.008-1.564a1.8,1.8,0,0,1,.416-.595,1.97,1.97,0,0,1,.732-.438,2.37,2.37,0,0,1,.844-.151,1.885,1.885,0,0,1,.74.138,2.178,2.178,0,0,1,.628.406,2.125,2.125,0,0,1,.452.612,1.642,1.642,0,0,1,.156.7,1.743,1.743,0,0,1-.148.706,1.853,1.853,0,0,1-.4.6,2.22,2.22,0,0,1-.7.454,2.033,2.033,0,0,1-.8.162,2.3,2.3,0,0,1-.812-.141,2.045,2.045,0,0,1-.662-.417,1.927,1.927,0,0,1-.443-.613,1.837,1.837,0,0,1-.008-1.426m4.518,2.488h.746v-4.7h-.746Zm1.458-3.566h.746v3.563h-.746Zm0-1.133h.746v.67h-.746Zm1.709,1.771H485.3v-.637h.555V24.541h.757v1.134h.555v.637h-.555v2.927h-.757Zm4.563.287a1.27,1.27,0,0,0-.891-.341,1.352,1.352,0,0,0-.916.33,1.084,1.084,0,0,0-.391.843,1.137,1.137,0,0,0,.382.872,1.337,1.337,0,0,0,.935.352,1.268,1.268,0,0,0,.88-.352,1.084,1.084,0,0,0,.388-.825,1.14,1.14,0,0,0-.388-.878m-2.4,2.172a1.732,1.732,0,0,1-.586-1.332,1.8,1.8,0,0,1,.143-.718,1.848,1.848,0,0,1,.433-.6,2.018,2.018,0,0,1,.654-.411,2.341,2.341,0,0,1,.8-.132,2,2,0,0,1,.626.1,3.124,3.124,0,0,1,.7.366v-.365h.753v3.563h-.771v-.386a2.616,2.616,0,0,1-.682.363,1.785,1.785,0,0,1-.589.1,2.118,2.118,0,0,1-1.488-.545m4.234.467V25.675H493V26a1.918,1.918,0,0,1,.553-.313,1.487,1.487,0,0,1,.5-.075,1.449,1.449,0,0,1,1.594,1.6v2.025h-.765V27.352a1.241,1.241,0,0,0-.218-.809,1.033,1.033,0,0,0-1.435.063,1.852,1.852,0,0,0-.21,1v1.628Zm8.16-3.843a1.357,1.357,0,0,0-.776-.176H499.1v1.469h.51a1.452,1.452,0,0,0,.793-.167.6.6,0,0,0,.262-.55.65.65,0,0,0-.254-.575m.748,1.382a2.007,2.007,0,0,1-.95.55l1.573,1.91h-1.019l-1.475-1.86h-.19v1.86h-.8v-4.7h1.226a6.613,6.613,0,0,1,.673.022,1.543,1.543,0,0,1,.555.17,1.234,1.234,0,0,1,.528.491,1.3,1.3,0,0,1,.2.7,1.227,1.227,0,0,1-.319.85m3.714-.179a1.271,1.271,0,0,0-.891-.341,1.344,1.344,0,0,0-.913.33,1.072,1.072,0,0,0-.391.843,1.126,1.126,0,0,0,.383.872,1.327,1.327,0,0,0,.933.352,1.269,1.269,0,0,0,.88-.352,1.1,1.1,0,0,0,.394-.825,1.154,1.154,0,0,0-.395-.878m-2.4,2.172a1.745,1.745,0,0,1-.592-1.332,1.81,1.81,0,0,1,.148-.718,1.771,1.771,0,0,1,.43-.6,2.043,2.043,0,0,1,.651-.411,2.384,2.384,0,0,1,.807-.132,2.013,2.013,0,0,1,.628.1,3.06,3.06,0,0,1,.7.366v-.365h.756v3.563h-.771v-.386a2.672,2.672,0,0,1-.684.363,1.774,1.774,0,0,1-.589.1,2.111,2.111,0,0,1-1.486-.545m5.353-.471a1.279,1.279,0,0,0,.9.355,1.324,1.324,0,0,0,.911-.348,1.069,1.069,0,0,0,.391-.83,1.14,1.14,0,0,0-.391-.883,1.325,1.325,0,0,0-.919-.335,1.3,1.3,0,0,0-.888.335,1.1,1.1,0,0,0-.385.838,1.161,1.161,0,0,0,.376.869m.3.931a1.743,1.743,0,0,1-.654-.367v1.292h-.765V25.672h.773v.369a3.017,3.017,0,0,1,.673-.361,1.884,1.884,0,0,1,.6-.093,2.114,2.114,0,0,1,1.475.539,1.737,1.737,0,0,1,.6,1.343,1.706,1.706,0,0,1-.153.7,1.932,1.932,0,0,1-.424.6,2.091,2.091,0,0,1-.651.413,2.24,2.24,0,0,1-.8.136,2.2,2.2,0,0,1-.67-.093m3.237.007h.746V25.675h-.746Zm.746-4.7h-.746v.67h.746Zm3.558,2.06a1.277,1.277,0,0,0-.888-.343,1.356,1.356,0,0,0-.925.331,1.084,1.084,0,0,0-.385.842,1.133,1.133,0,0,0,.385.872,1.324,1.324,0,0,0,.93.351,1.28,1.28,0,0,0,.883-.352,1.087,1.087,0,0,0,.391-.826,1.143,1.143,0,0,0-.391-.875m-2.4,2.17a1.732,1.732,0,0,1-.586-1.332,1.808,1.808,0,0,1,.569-1.318,2.1,2.1,0,0,1,.654-.413,2.378,2.378,0,0,1,.8-.132,2.066,2.066,0,0,1,.635.1,3.278,3.278,0,0,1,.7.366v-1.5h.757v4.7h-.768v-.385a2.778,2.778,0,0,1-.687.362,1.737,1.737,0,0,1-.589.1,2.119,2.119,0,0,1-1.483-.548m7.733.469V25.227h1.046v-.685h-2.917v.685h1.069v4.014Zm2.206,0V27.254a1.026,1.026,0,0,1,.181-.676,1,1,0,0,1,.7-.242v-.726a1.946,1.946,0,0,0-.516.068.592.592,0,0,0-.405.3v-.306h-.717v3.562Zm4.088-2.638a1.276,1.276,0,0,0-.891-.341,1.345,1.345,0,0,0-.916.33,1.073,1.073,0,0,0-.392.843,1.13,1.13,0,0,0,.383.872,1.331,1.331,0,0,0,.933.352,1.266,1.266,0,0,0,.883-.352,1.093,1.093,0,0,0,.388-.825,1.149,1.149,0,0,0-.388-.878m-2.4,2.172a1.733,1.733,0,0,1-.589-1.332,1.808,1.808,0,0,1,.145-.718,1.869,1.869,0,0,1,.43-.6,2.023,2.023,0,0,1,.654-.411,2.387,2.387,0,0,1,.807-.132,1.993,1.993,0,0,1,.625.1,3.132,3.132,0,0,1,.7.366v-.365h.754v3.563h-.773v-.386a2.62,2.62,0,0,1-.679.363,1.775,1.775,0,0,1-.592.1,2.118,2.118,0,0,1-1.486-.545m4.234.467V25.675h.745V26a2.011,2.011,0,0,1,.553-.313,1.523,1.523,0,0,1,.5-.075,1.446,1.446,0,0,1,1.592,1.6v2.025h-.765V27.352a1.26,1.26,0,0,0-.212-.809,1.042,1.042,0,0,0-1.442.063,1.889,1.889,0,0,0-.206,1v1.628Zm4.454-1.2a.631.631,0,0,0,.168.461.537.537,0,0,0,.411.179.542.542,0,0,0,.374-.134.384.384,0,0,0,.154-.316.407.407,0,0,0-.112-.295.862.862,0,0,0-.335-.2l-.162-.055q-.186-.057-.369-.126l-.248-.134a1.02,1.02,0,0,1-.333-.355,1.032,1.032,0,0,1,.248-1.2,1.2,1.2,0,0,1,.826-.3,1.148,1.148,0,0,1,.812.274,1.071,1.071,0,0,1,.33.793h-.729a.391.391,0,0,0-.435-.414.46.46,0,0,0-.307.1.359.359,0,0,0-.115.278.314.314,0,0,0,.135.269,2.056,2.056,0,0,0,.388.155l.294.1a1.428,1.428,0,0,1,.64.42,1.128,1.128,0,0,1-.167,1.47,1.327,1.327,0,0,1-.917.33,1.223,1.223,0,0,1-.9-.348,1.359,1.359,0,0,1-.369-.946Zm2.318-2.366h.745v3.563H535.9Zm0-1.133h.745v.67H535.9Zm1.712,1.771h-.559v-.637h.559V24.541h.757v1.134h.555v.637h-.555v2.927h-.757Zm7.537,2.678a2.736,2.736,0,0,1-1.385.345,2.817,2.817,0,0,1-1.078-.213,2.745,2.745,0,0,1-.9-.6,2.369,2.369,0,0,1-.5-.754,2.541,2.541,0,0,1-.165-.906,2.209,2.209,0,0,1,.2-.93,2.393,2.393,0,0,1,.6-.8,2.8,2.8,0,0,1,.84-.511,2.994,2.994,0,0,1,1.009-.17,2.8,2.8,0,0,1,1.408.349,2.323,2.323,0,0,1,.935,1.014h-.935a1.68,1.68,0,0,0-.623-.469,2.17,2.17,0,0,0-.8-.142,1.966,1.966,0,0,0-.681.113,1.819,1.819,0,0,0-.986.918,1.568,1.568,0,0,0-.139.643,1.694,1.694,0,0,0,.132.667,1.514,1.514,0,0,0,.382.546,1.937,1.937,0,0,0,1.293.512,1.982,1.982,0,0,0,.787-.151,1.589,1.589,0,0,0,.589-.43h.972a2.516,2.516,0,0,1-.963.978m2.538-.673a1.306,1.306,0,0,0,.919.346,1.212,1.212,0,0,0,.882-.346,1.189,1.189,0,0,0,0-1.727,1.255,1.255,0,0,0-.888-.324,1.272,1.272,0,0,0-.9.332,1.115,1.115,0,0,0-.372.87,1.127,1.127,0,0,0,.363.849m-1-1.564a1.724,1.724,0,0,1,.416-.595,1.952,1.952,0,0,1,.729-.438,2.345,2.345,0,0,1,.841-.151,1.924,1.924,0,0,1,.746.138,2.208,2.208,0,0,1,.625.406,2.185,2.185,0,0,1,.453.612,1.662,1.662,0,0,1,.158.7,1.746,1.746,0,0,1-.151.706,1.845,1.845,0,0,1-.4.6,2.336,2.336,0,0,1-.7.454,2.034,2.034,0,0,1-.8.162,2.3,2.3,0,0,1-.813-.141,2.023,2.023,0,0,1-1.109-1.031,1.856,1.856,0,0,1-.143-.711,1.767,1.767,0,0,1,.14-.715m4.516,2.484V25.675h.718v.306a.6.6,0,0,1,.408-.3,1.9,1.9,0,0,1,.512-.068v.726a.99.99,0,0,0-.7.242,1.006,1.006,0,0,0-.182.675v1.983Zm3.133-.937a1.274,1.274,0,0,0,.9.355,1.334,1.334,0,0,0,.913-.348,1.074,1.074,0,0,0,.388-.83,1.147,1.147,0,0,0-.388-.883,1.327,1.327,0,0,0-.919-.335,1.314,1.314,0,0,0-.891.335,1.1,1.1,0,0,0-.38.838,1.157,1.157,0,0,0,.372.869m.3.931a1.777,1.777,0,0,1-.651-.367v1.292h-.765V25.672h.776v.369a2.945,2.945,0,0,1,.673-.361,1.874,1.874,0,0,1,.6-.093,2.11,2.11,0,0,1,1.475.539,1.728,1.728,0,0,1,.6,1.343,1.7,1.7,0,0,1-.151.7,2.034,2.034,0,0,1-.424.6,2.1,2.1,0,0,1-.654.413,2.217,2.217,0,0,1-.8.136,2.258,2.258,0,0,1-.673-.093m4.245-.915a1.294,1.294,0,0,0,.916.346,1.224,1.224,0,0,0,.885-.346,1.2,1.2,0,0,0,0-1.727,1.392,1.392,0,0,0-1.8.008,1.192,1.192,0,0,0-.006,1.719m-1.008-1.564a1.766,1.766,0,0,1,.419-.595,1.938,1.938,0,0,1,.729-.438,2.347,2.347,0,0,1,.841-.151,1.887,1.887,0,0,1,.742.138,2.117,2.117,0,0,1,.625.406,2.069,2.069,0,0,1,.455.612,1.648,1.648,0,0,1,.159.7,1.757,1.757,0,0,1-.154.706,1.8,1.8,0,0,1-.4.6,2.3,2.3,0,0,1-.693.454,2.048,2.048,0,0,1-.8.162,2.317,2.317,0,0,1-.815-.141,2.068,2.068,0,0,1-.661-.417,1.915,1.915,0,0,1-.445-.613,1.86,1.86,0,0,1-.145-.711,1.815,1.815,0,0,1,.139-.715m5.273,2.484V27.254a1.025,1.025,0,0,1,.184-.676.988.988,0,0,1,.7-.242v-.726a1.925,1.925,0,0,0-.513.068.6.6,0,0,0-.408.3v-.306h-.715v3.562Zm4.089-2.638a1.266,1.266,0,0,0-.891-.341,1.353,1.353,0,0,0-.916.33,1.074,1.074,0,0,0-.391.843,1.137,1.137,0,0,0,.382.872,1.341,1.341,0,0,0,.933.352,1.266,1.266,0,0,0,.883-.352,1.1,1.1,0,0,0,.388-.825,1.159,1.159,0,0,0-.388-.878m-2.4,2.172a1.727,1.727,0,0,1-.592-1.332,1.758,1.758,0,0,1,.579-1.321,1.968,1.968,0,0,1,.656-.411,2.353,2.353,0,0,1,.8-.132,2.009,2.009,0,0,1,.626.1,3.172,3.172,0,0,1,.7.366v-.365h.756v3.563h-.773v-.386a2.577,2.577,0,0,1-.682.363,1.784,1.784,0,0,1-.589.1,2.113,2.113,0,0,1-1.486-.545m4.485-2.46h-.556v-.637h.555V24.541h.757v1.134h.555v.637h-.555v2.927h-.757Zm1.734,2.926h.745V25.675h-.745Zm.746-4.7h-.745v.67h.745Zm1.711,3.775a1.308,1.308,0,0,0,.922.346,1.227,1.227,0,0,0,.882-.346,1.2,1.2,0,0,0,0-1.727,1.269,1.269,0,0,0-.891-.324,1.289,1.289,0,0,0-.907.332,1.193,1.193,0,0,0-.006,1.719m-1-1.564a1.751,1.751,0,0,1,.416-.595,1.976,1.976,0,0,1,.735-.438,2.341,2.341,0,0,1,.84-.151,1.885,1.885,0,0,1,.74.138,2.153,2.153,0,0,1,.628.406,2.244,2.244,0,0,1,.455.612,1.734,1.734,0,0,1,.156.7,1.794,1.794,0,0,1-.151.706,1.854,1.854,0,0,1-.4.6,2.274,2.274,0,0,1-.693.454,2.06,2.06,0,0,1-.8.162,2.3,2.3,0,0,1-.813-.141,2.014,2.014,0,0,1-.662-.417,1.928,1.928,0,0,1-.444-.613,1.764,1.764,0,0,1-.148-.711,1.807,1.807,0,0,1,.14-.715m4.518,2.486V25.675h.749V26a1.946,1.946,0,0,1,.55-.313,1.521,1.521,0,0,1,.5-.075,1.591,1.591,0,0,1,1.168.408,1.608,1.608,0,0,1,.424,1.2v2.025h-.768V27.352a1.261,1.261,0,0,0-.212-.809.852.852,0,0,0-.687-.26.842.842,0,0,0-.752.322,1.831,1.831,0,0,0-.209,1v1.628Z" transform="translate(-388.97 -10.211)" fill="#231916"/>
    <path id="패스_855" data-name="패스 855" d="M183.683,0H161.214V10.035a73.5,73.5,0,0,1,22.469-3.119Z" transform="translate(-144.902)" fill="#00984b"/>
    <path id="패스_856" data-name="패스 856" d="M203.575,104.424h18.183V93.686c-12.218.919-16.731,7.6-18.182,10.738" transform="translate(-182.977 -84.207)" fill="#0069b4"/>
    <path id="패스_857" data-name="패스 857" d="M116.994,94.227h4.424l.05-.08c6.155-10.562,18.862-11.349,22.47-11.355V82.32c-11.495.355-18.442,3.775-22.469,7a19.445,19.445,0,0,0-4.474,4.907" transform="translate(-105.156 -73.991)" fill="#0069b4"/>
    <path id="패스_858" data-name="패스 858" d="M16.311,73.826c9.081-4.4,20.07-4.728,22.469-4.743v-.732a73.5,73.5,0,0,0-22.469,3.12C5.867,74.819,1.329,79.9,0,81.672H6.774a23.763,23.763,0,0,1,9.537-7.846" transform="translate(0.001 -61.435)" fill="#00984b"/>
    <path id="패스_859" data-name="패스 859" d="M161.214,98.33v.061H165.5c1.452-3.137,5.965-9.819,18.182-10.737v-.679c-3.607.006-16.314.794-22.469,11.355" transform="translate(-144.902 -78.175)" fill="#fff"/>
    <path id="패스_860" data-name="패스 860" d="M66.955,88.17h5.063a19.452,19.452,0,0,1,4.474-4.906c4.027-3.225,10.975-6.646,22.469-7v-.682c-2.4.015-13.388.341-22.469,4.743a23.762,23.762,0,0,0-9.537,7.846" transform="translate(-60.18 -67.933)" fill="#fff"/>
    <path id="패스_861" data-name="패스 861" d="M442.413,14.755V12.09h2V22.983h-2V16.355h-2.58v-1.6Zm-4.65-2.666a13.311,13.311,0,0,0,.751,5.227,2.766,2.766,0,0,0,2.156,1.673v1.786a5.292,5.292,0,0,1-2.4-.832,4.453,4.453,0,0,1-1.547-1.861,4.354,4.354,0,0,1-1.656,1.861,5.575,5.575,0,0,1-2.313.832V19a2.822,2.822,0,0,0,2.185-1.694,12.832,12.832,0,0,0,.779-5.216Zm13.382,1.2a1.385,1.385,0,0,0-.48,1.095,1.358,1.358,0,0,0,.48,1.047,1.927,1.927,0,0,0,1.3.433,1.907,1.907,0,0,0,1.277-.433,1.347,1.347,0,0,0,.494-1.047,1.372,1.372,0,0,0-.494-1.095,1.915,1.915,0,0,0-1.276-.419,1.937,1.937,0,0,0-1.3.419m6.909,4.576v3.181H448.83v.424h9.224v1.446H447.792a1.115,1.115,0,0,1-.724-.19.985.985,0,0,1-.24-.754V19.741h9.224v-.425h-9.224V17.868h4.516v-.44H446.42v-1.48h2.848a2.286,2.286,0,0,1-.589-1.544,2.667,2.667,0,0,1,1.145-2.24,4.262,4.262,0,0,1,2.622-.8,4.175,4.175,0,0,1,2.575.8,2.661,2.661,0,0,1,1.159,2.24,2,2,0,0,1-.171.829,2.414,2.414,0,0,1-.452.715h2.9v1.48h-4.923v.44ZM469.7,20.93h-9.221V19.419H471.7v3.563H469.7Zm-4.644-3.979h-3.627a1.088,1.088,0,0,1-.709-.19,1.023,1.023,0,0,1-.241-.765V12.09H471.7v1.4H462.5v.459h9.2v1.208h-9.2v.49h9.2v1.308h-6.649Zm7.06,1.94H460.065V17.428h12.047Zm9.171-4.27h2.061v-.56h-2.061Zm-5.158.562h3.156v-.849h-3.156Zm7.219,3.812h-8.56V17.481h10.562v3.382h-8.559v.494h8.559v1.561h-9.585a1.1,1.1,0,0,1-.723-.19.985.985,0,0,1-.255-.765V19.469h8.56ZM480.936,16.6a1.094,1.094,0,0,1-.625.145h-5.239a1.082,1.082,0,0,1-.709-.19,1.027,1.027,0,0,1-.24-.768v-3.7h2v.864h3.156V12.09h2V12.6h2.061V12.09h2V16.9h-2v-.815h-2.081a.817.817,0,0,1-.327.516m16.049-4.511h2.005V23.1h-2.005Zm-4.591,0a13.253,13.253,0,0,0,.751,5.226,2.769,2.769,0,0,0,2.17,1.673v1.786a5.3,5.3,0,0,1-2.41-.832,4.4,4.4,0,0,1-1.544-1.861,4.4,4.4,0,0,1-1.659,1.861,5.477,5.477,0,0,1-2.3.832V19a2.816,2.816,0,0,0,2.167-1.694,12.832,12.832,0,0,0,.779-5.215Zm19.892,0v1.6h-8.532v2.667h8.537v1.6h-4.268v2.855h5.032v1.6H501.013v-1.6h5.03V17.953H502.7a1.062,1.062,0,0,1-.709-.187,1,1,0,0,1-.257-.766V12.09Zm11.985,0h2.005V23.1h-2.005Zm-4.591,0a13.307,13.307,0,0,0,.751,5.226,2.76,2.76,0,0,0,2.167,1.673v1.786a5.318,5.318,0,0,1-2.41-.832,4.429,4.429,0,0,1-1.544-1.861,4.375,4.375,0,0,1-1.656,1.861,5.5,5.5,0,0,1-2.3.832V19a2.817,2.817,0,0,0,2.17-1.694,12.874,12.874,0,0,0,.779-5.215Zm18.228,1.587V12.085h2v4.843h-2V15.192h-1.743V13.677Zm0,5.309H529.35V17.468h10.564v3.386h-8.559v.49h8.559V22.91h-9.587a1.1,1.1,0,0,1-.721-.19.973.973,0,0,1-.257-.765V19.462h8.559Zm-6.669-6.5v-1h2.08v1h2.605V14h-2.494a1.891,1.891,0,0,0,.807.715,4.9,4.9,0,0,0,1.815.484v1.633a6.252,6.252,0,0,1-2.2-.434,3.691,3.691,0,0,1-1.556-1.082,3.788,3.788,0,0,1-1.673,1.1,6.128,6.128,0,0,1-2.126.419V15.215a4.775,4.775,0,0,0,1.785-.5,1.7,1.7,0,0,0,.768-.715h-2.424V12.491Zm21.972-.4v1.6h-8.529v2.667h8.535v1.6h-4.264v2.855h5.031v1.6H541.936v-1.6h5.031V17.953h-3.337a1.06,1.06,0,0,1-.712-.187.99.99,0,0,1-.26-.766V12.09Zm6.716,6.366a1.884,1.884,0,0,0,0,2.946,2.606,2.606,0,0,0,3.329,0,1.866,1.866,0,0,0,0-2.946,2.65,2.65,0,0,0-3.329,0M567.79,16.2v1.6h-2.658a3.173,3.173,0,0,1,.74.961,2.537,2.537,0,0,1,.284,1.174,3.231,3.231,0,0,1-1.435,2.68,5,5,0,0,1-3.089,1,5.1,5.1,0,0,1-3.15-1,3.235,3.235,0,0,1-1.419-2.68,2.753,2.753,0,0,1,.255-1.162,3.251,3.251,0,0,1,.709-.972h-2.464V16.2h4.278V14.7h2V16.2h3.346V13.69h-9.227v-1.6h11.232V16.2Zm13.055,1.238v5.546h-2V12.094h2v3.75h1.614v1.6Zm-6.6-5.352A13.307,13.307,0,0,0,575,17.316a2.768,2.768,0,0,0,2.17,1.673v1.786a5.271,5.271,0,0,1-2.407-.833,4.457,4.457,0,0,1-1.55-1.861,4.343,4.343,0,0,1-1.653,1.861,5.5,5.5,0,0,1-2.3.833V19a2.82,2.82,0,0,0,2.173-1.694,12.893,12.893,0,0,0,.776-5.215ZM435.183,27.836a.827.827,0,0,0,.223.574.736.736,0,0,0,.556.208.821.821,0,0,0,.6-.208.7.7,0,0,0,.224-.541.632.632,0,0,0-.224-.531,2.339,2.339,0,0,0-.642-.253,2.867,2.867,0,0,1-.562-.2,1.777,1.777,0,0,1-.486-.351.894.894,0,0,1-.209-.336A1.385,1.385,0,0,1,435,24.813a1.485,1.485,0,0,1,1.055-.378,1.29,1.29,0,0,1,1.382,1.3h-.751a.657.657,0,0,0-.2-.456.635.635,0,0,0-.447-.163.7.7,0,0,0-.494.175.634.634,0,0,0-.173.47l.019.189.106.156a.831.831,0,0,0,.28.153c.07.028.187.064.36.112l.369.106a1.579,1.579,0,0,1,.771.507,1.229,1.229,0,0,1,.279.811,1.481,1.481,0,0,1-.433,1.1,1.582,1.582,0,0,1-1.15.427,1.5,1.5,0,0,1-1.089-.4,1.432,1.432,0,0,1-.434-1.084Zm4-1.384a1.406,1.406,0,0,0-.508.635H441.1a1.467,1.467,0,0,0-.486-.642,1.189,1.189,0,0,0-.7-.2,1.281,1.281,0,0,0-.729.2m-.55,1.265a1.361,1.361,0,0,0,.5.687,1.267,1.267,0,0,0,.774.241,1.441,1.441,0,0,0,.611-.137,1.588,1.588,0,0,0,.444-.345h.868a2.169,2.169,0,0,1-.793.866,2.129,2.129,0,0,1-1.131.306,2.318,2.318,0,0,1-.821-.144,2.023,2.023,0,0,1-.662-.409,1.848,1.848,0,0,1-.438-.619,1.77,1.77,0,0,1-.151-.705,1.839,1.839,0,0,1,.137-.717,1.976,1.976,0,0,1,.419-.6,2.12,2.12,0,0,1,.675-.43,2.174,2.174,0,0,1,.8-.142,2.278,2.278,0,0,1,.98.21,1.944,1.944,0,0,1,.757.61,1.873,1.873,0,0,1,.266.536,2.484,2.484,0,0,1,.084.662v.13Zm4.884.6a1.3,1.3,0,0,0,.919.346,1.226,1.226,0,0,0,.886-.346,1.2,1.2,0,0,0,0-1.727,1.393,1.393,0,0,0-1.8.008,1.2,1.2,0,0,0-.008,1.719m-1.005-1.564a1.8,1.8,0,0,1,.416-.595,2,2,0,0,1,.729-.438,2.378,2.378,0,0,1,.843-.151,1.913,1.913,0,0,1,.746.138,2.172,2.172,0,0,1,.625.406,2.115,2.115,0,0,1,.452.612,1.646,1.646,0,0,1,.159.7,1.958,1.958,0,0,1-.55,1.305,2.288,2.288,0,0,1-.7.454,2.037,2.037,0,0,1-.8.162,2.277,2.277,0,0,1-.812-.141,1.986,1.986,0,0,1-.662-.417,1.923,1.923,0,0,1-.444-.613,1.811,1.811,0,0,1-.008-1.426m7.174,2.486v-.307a2.372,2.372,0,0,1-.549.3,1.285,1.285,0,0,1-.5.088,1.637,1.637,0,0,1-1.192-.416,1.589,1.589,0,0,1-.417-1.18V25.679h.768v1.869a1.3,1.3,0,0,0,.212.824.8.8,0,0,0,.679.276,1.062,1.062,0,0,0,.506-.119.842.842,0,0,0,.319-.326.98.98,0,0,0,.125-.381,3.225,3.225,0,0,0,.028-.5V25.679h.745v3.559Zm1.436-4.7h.749v4.7h-.749Zm3.4,4.7v-4.7h1.153l1.477,3.535,1.474-3.535h1.137v4.7h-.751V25.449l-1.581,3.792h-.57l-1.559-3.778v3.778Zm7.146-2.789a1.422,1.422,0,0,0-.506.635h2.419a1.479,1.479,0,0,0-.489-.642,1.187,1.187,0,0,0-.7-.2,1.281,1.281,0,0,0-.729.2m-.55,1.265a1.36,1.36,0,0,0,.5.687,1.267,1.267,0,0,0,.771.241,1.443,1.443,0,0,0,.615-.137,1.566,1.566,0,0,0,.447-.345h.868a2.215,2.215,0,0,1-.793.866,2.15,2.15,0,0,1-1.137.306,2.32,2.32,0,0,1-.818-.144,2.015,2.015,0,0,1-.661-.409,1.836,1.836,0,0,1-.438-.619,1.763,1.763,0,0,1-.151-.705,1.85,1.85,0,0,1,.14-.717,1.876,1.876,0,0,1,.416-.6,2.159,2.159,0,0,1,.675-.43,2.2,2.2,0,0,1,.8-.142,2.273,2.273,0,0,1,.98.21,1.965,1.965,0,0,1,.756.61,1.823,1.823,0,0,1,.265.536,2.386,2.386,0,0,1,.084.662v.13Zm4.136-1.406H464.7v-.637h.555V24.541h.757v1.134h.555v.637h-.555v2.927h-.757Zm1.732,2.925V25.675h.717v.306a.6.6,0,0,1,.4-.3,1.943,1.943,0,0,1,.516-.068v.726a1.006,1.006,0,0,0-.7.242,1.044,1.044,0,0,0-.179.675v1.983Zm3.019-.92a1.294,1.294,0,0,0,.919.346,1.223,1.223,0,0,0,.883-.346,1.2,1.2,0,0,0,0-1.727,1.393,1.393,0,0,0-1.8.008,1.193,1.193,0,0,0-.005,1.719M469,26.752a1.8,1.8,0,0,1,.416-.595,1.994,1.994,0,0,1,.732-.438,2.36,2.36,0,0,1,.841-.151,1.89,1.89,0,0,1,.742.138,2.173,2.173,0,0,1,.628.406,2.108,2.108,0,0,1,.453.612,1.647,1.647,0,0,1,.159.7,1.717,1.717,0,0,1-.153.706,1.766,1.766,0,0,1-.4.6,2.265,2.265,0,0,1-.693.454,2.045,2.045,0,0,1-.8.162,2.3,2.3,0,0,1-.815-.141,2.017,2.017,0,0,1-.662-.417,1.981,1.981,0,0,1-.447-.613,1.855,1.855,0,0,1-.145-.711,1.816,1.816,0,0,1,.139-.715m5.641,1.547a1.266,1.266,0,0,0,.9.355,1.326,1.326,0,0,0,.908-.348,1.069,1.069,0,0,0,.391-.83,1.14,1.14,0,0,0-.391-.883,1.385,1.385,0,0,0-1.807,0,1.1,1.1,0,0,0-.383.838,1.15,1.15,0,0,0,.377.869m.3.931a1.817,1.817,0,0,1-.653-.367v1.292h-.766V25.672h.774v.369a2.955,2.955,0,0,1,.676-.361,1.874,1.874,0,0,1,.6-.093,2.109,2.109,0,0,1,1.475.539,1.726,1.726,0,0,1,.6,1.343,1.661,1.661,0,0,1-.153.7,1.927,1.927,0,0,1-.422.6,2.071,2.071,0,0,1-.654.413,2.21,2.21,0,0,1-.8.136,2.24,2.24,0,0,1-.673-.093m4.242-.915a1.294,1.294,0,0,0,.916.346,1.229,1.229,0,0,0,.886-.346,1.2,1.2,0,0,0,0-1.727,1.392,1.392,0,0,0-1.8.008,1.192,1.192,0,0,0-.006,1.719m-1.008-1.564a1.8,1.8,0,0,1,.416-.595,1.97,1.97,0,0,1,.732-.438,2.37,2.37,0,0,1,.844-.151,1.885,1.885,0,0,1,.74.138,2.178,2.178,0,0,1,.628.406,2.125,2.125,0,0,1,.452.612,1.642,1.642,0,0,1,.156.7,1.743,1.743,0,0,1-.148.706,1.853,1.853,0,0,1-.4.6,2.22,2.22,0,0,1-.7.454,2.033,2.033,0,0,1-.8.162,2.3,2.3,0,0,1-.812-.141,2.045,2.045,0,0,1-.662-.417,1.927,1.927,0,0,1-.443-.613,1.837,1.837,0,0,1-.008-1.426m4.518,2.488h.746v-4.7h-.746Zm1.458-3.566h.746v3.563h-.746Zm0-1.133h.746v.67h-.746Zm1.709,1.771H485.3v-.637h.555V24.541h.757v1.134h.555v.637h-.555v2.927h-.757Zm4.563.287a1.27,1.27,0,0,0-.891-.341,1.352,1.352,0,0,0-.916.33,1.084,1.084,0,0,0-.391.843,1.137,1.137,0,0,0,.382.872,1.337,1.337,0,0,0,.935.352,1.268,1.268,0,0,0,.88-.352,1.084,1.084,0,0,0,.388-.825,1.14,1.14,0,0,0-.388-.878m-2.4,2.172a1.732,1.732,0,0,1-.586-1.332,1.8,1.8,0,0,1,.143-.718,1.848,1.848,0,0,1,.433-.6,2.018,2.018,0,0,1,.654-.411,2.341,2.341,0,0,1,.8-.132,2,2,0,0,1,.626.1,3.124,3.124,0,0,1,.7.366v-.365h.753v3.563h-.771v-.386a2.616,2.616,0,0,1-.682.363,1.785,1.785,0,0,1-.589.1,2.118,2.118,0,0,1-1.488-.545m4.234.467V25.675H493V26a1.918,1.918,0,0,1,.553-.313,1.487,1.487,0,0,1,.5-.075,1.449,1.449,0,0,1,1.594,1.6v2.025h-.765V27.352a1.241,1.241,0,0,0-.218-.809,1.033,1.033,0,0,0-1.435.063,1.852,1.852,0,0,0-.21,1v1.628Zm8.16-3.843a1.357,1.357,0,0,0-.776-.176H499.1v1.469h.51a1.452,1.452,0,0,0,.793-.167.6.6,0,0,0,.262-.55.65.65,0,0,0-.254-.575m.748,1.382a2.007,2.007,0,0,1-.95.55l1.573,1.91h-1.019l-1.475-1.86h-.19v1.86h-.8v-4.7h1.226a6.613,6.613,0,0,1,.673.022,1.543,1.543,0,0,1,.555.17,1.234,1.234,0,0,1,.528.491,1.3,1.3,0,0,1,.2.7,1.227,1.227,0,0,1-.319.85m3.714-.179a1.271,1.271,0,0,0-.891-.341,1.344,1.344,0,0,0-.913.33,1.072,1.072,0,0,0-.391.843,1.126,1.126,0,0,0,.383.872,1.327,1.327,0,0,0,.933.352,1.269,1.269,0,0,0,.88-.352,1.1,1.1,0,0,0,.394-.825,1.154,1.154,0,0,0-.395-.878m-2.4,2.172a1.745,1.745,0,0,1-.592-1.332,1.81,1.81,0,0,1,.148-.718,1.771,1.771,0,0,1,.43-.6,2.043,2.043,0,0,1,.651-.411,2.384,2.384,0,0,1,.807-.132,2.013,2.013,0,0,1,.628.1,3.06,3.06,0,0,1,.7.366v-.365h.756v3.563h-.771v-.386a2.672,2.672,0,0,1-.684.363,1.774,1.774,0,0,1-.589.1,2.111,2.111,0,0,1-1.486-.545m5.353-.471a1.279,1.279,0,0,0,.9.355,1.324,1.324,0,0,0,.911-.348,1.069,1.069,0,0,0,.391-.83,1.14,1.14,0,0,0-.391-.883,1.325,1.325,0,0,0-.919-.335,1.3,1.3,0,0,0-.888.335,1.1,1.1,0,0,0-.385.838,1.161,1.161,0,0,0,.376.869m.3.931a1.743,1.743,0,0,1-.654-.367v1.292h-.765V25.672h.773v.369a3.017,3.017,0,0,1,.673-.361,1.884,1.884,0,0,1,.6-.093,2.114,2.114,0,0,1,1.475.539,1.737,1.737,0,0,1,.6,1.343,1.706,1.706,0,0,1-.153.7,1.932,1.932,0,0,1-.424.6,2.091,2.091,0,0,1-.651.413,2.24,2.24,0,0,1-.8.136,2.2,2.2,0,0,1-.67-.093m3.237.007h.746V25.675h-.746Zm.746-4.7h-.746v.67h.746Zm3.558,2.06a1.277,1.277,0,0,0-.888-.343,1.356,1.356,0,0,0-.925.331,1.084,1.084,0,0,0-.385.842,1.133,1.133,0,0,0,.385.872,1.324,1.324,0,0,0,.93.351,1.28,1.28,0,0,0,.883-.352,1.087,1.087,0,0,0,.391-.826,1.143,1.143,0,0,0-.391-.875m-2.4,2.17a1.732,1.732,0,0,1-.586-1.332,1.808,1.808,0,0,1,.569-1.318,2.1,2.1,0,0,1,.654-.413,2.378,2.378,0,0,1,.8-.132,2.066,2.066,0,0,1,.635.1,3.278,3.278,0,0,1,.7.366v-1.5h.757v4.7h-.768v-.385a2.778,2.778,0,0,1-.687.362,1.737,1.737,0,0,1-.589.1,2.119,2.119,0,0,1-1.483-.548m7.733.469V25.227h1.046v-.685h-2.917v.685h1.069v4.014Zm2.206,0V27.254a1.026,1.026,0,0,1,.181-.676,1,1,0,0,1,.7-.242v-.726a1.946,1.946,0,0,0-.516.068.592.592,0,0,0-.405.3v-.306h-.717v3.562Zm4.088-2.638a1.276,1.276,0,0,0-.891-.341,1.345,1.345,0,0,0-.916.33,1.073,1.073,0,0,0-.392.843,1.13,1.13,0,0,0,.383.872,1.331,1.331,0,0,0,.933.352,1.266,1.266,0,0,0,.883-.352,1.093,1.093,0,0,0,.388-.825,1.149,1.149,0,0,0-.388-.878m-2.4,2.172a1.733,1.733,0,0,1-.589-1.332,1.808,1.808,0,0,1,.145-.718,1.869,1.869,0,0,1,.43-.6,2.023,2.023,0,0,1,.654-.411,2.387,2.387,0,0,1,.807-.132,1.993,1.993,0,0,1,.625.1,3.132,3.132,0,0,1,.7.366v-.365h.754v3.563h-.773v-.386a2.62,2.62,0,0,1-.679.363,1.775,1.775,0,0,1-.592.1,2.118,2.118,0,0,1-1.486-.545m4.234.467V25.675h.745V26a2.011,2.011,0,0,1,.553-.313,1.523,1.523,0,0,1,.5-.075,1.446,1.446,0,0,1,1.592,1.6v2.025h-.765V27.352a1.26,1.26,0,0,0-.212-.809,1.042,1.042,0,0,0-1.442.063,1.889,1.889,0,0,0-.206,1v1.628Zm4.454-1.2a.631.631,0,0,0,.168.461.537.537,0,0,0,.411.179.542.542,0,0,0,.374-.134.384.384,0,0,0,.154-.316.407.407,0,0,0-.112-.295.862.862,0,0,0-.335-.2l-.162-.055q-.186-.057-.369-.126l-.248-.134a1.02,1.02,0,0,1-.333-.355,1.032,1.032,0,0,1,.248-1.2,1.2,1.2,0,0,1,.826-.3,1.148,1.148,0,0,1,.812.274,1.071,1.071,0,0,1,.33.793h-.729a.391.391,0,0,0-.435-.414.46.46,0,0,0-.307.1.359.359,0,0,0-.115.278.314.314,0,0,0,.135.269,2.056,2.056,0,0,0,.388.155l.294.1a1.428,1.428,0,0,1,.64.42,1.128,1.128,0,0,1-.167,1.47,1.327,1.327,0,0,1-.917.33,1.223,1.223,0,0,1-.9-.348,1.359,1.359,0,0,1-.369-.946Zm2.318-2.366h.745v3.563H535.9Zm0-1.133h.745v.67H535.9Zm1.712,1.771h-.559v-.637h.559V24.541h.757v1.134h.555v.637h-.555v2.927h-.757Zm7.537,2.678a2.736,2.736,0,0,1-1.385.345,2.817,2.817,0,0,1-1.078-.213,2.745,2.745,0,0,1-.9-.6,2.369,2.369,0,0,1-.5-.754,2.541,2.541,0,0,1-.165-.906,2.209,2.209,0,0,1,.2-.93,2.393,2.393,0,0,1,.6-.8,2.8,2.8,0,0,1,.84-.511,2.994,2.994,0,0,1,1.009-.17,2.8,2.8,0,0,1,1.408.349,2.323,2.323,0,0,1,.935,1.014h-.935a1.68,1.68,0,0,0-.623-.469,2.17,2.17,0,0,0-.8-.142,1.966,1.966,0,0,0-.681.113,1.819,1.819,0,0,0-.986.918,1.568,1.568,0,0,0-.139.643,1.694,1.694,0,0,0,.132.667,1.514,1.514,0,0,0,.382.546,1.937,1.937,0,0,0,1.293.512,1.982,1.982,0,0,0,.787-.151,1.589,1.589,0,0,0,.589-.43h.972a2.516,2.516,0,0,1-.963.978m2.538-.673a1.306,1.306,0,0,0,.919.346,1.212,1.212,0,0,0,.882-.346,1.189,1.189,0,0,0,0-1.727,1.255,1.255,0,0,0-.888-.324,1.272,1.272,0,0,0-.9.332,1.115,1.115,0,0,0-.372.87,1.127,1.127,0,0,0,.363.849m-1-1.564a1.724,1.724,0,0,1,.416-.595,1.952,1.952,0,0,1,.729-.438,2.345,2.345,0,0,1,.841-.151,1.924,1.924,0,0,1,.746.138,2.208,2.208,0,0,1,.625.406,2.185,2.185,0,0,1,.453.612,1.662,1.662,0,0,1,.158.7,1.746,1.746,0,0,1-.151.706,1.845,1.845,0,0,1-.4.6,2.336,2.336,0,0,1-.7.454,2.034,2.034,0,0,1-.8.162,2.3,2.3,0,0,1-.813-.141,2.023,2.023,0,0,1-1.109-1.031,1.856,1.856,0,0,1-.143-.711,1.767,1.767,0,0,1,.14-.715m4.516,2.484V25.675h.718v.306a.6.6,0,0,1,.408-.3,1.9,1.9,0,0,1,.512-.068v.726a.99.99,0,0,0-.7.242,1.006,1.006,0,0,0-.182.675v1.983Zm3.133-.937a1.274,1.274,0,0,0,.9.355,1.334,1.334,0,0,0,.913-.348,1.074,1.074,0,0,0,.388-.83,1.147,1.147,0,0,0-.388-.883,1.327,1.327,0,0,0-.919-.335,1.314,1.314,0,0,0-.891.335,1.1,1.1,0,0,0-.38.838,1.157,1.157,0,0,0,.372.869m.3.931a1.777,1.777,0,0,1-.651-.367v1.292h-.765V25.672h.776v.369a2.945,2.945,0,0,1,.673-.361,1.874,1.874,0,0,1,.6-.093,2.11,2.11,0,0,1,1.475.539,1.728,1.728,0,0,1,.6,1.343,1.7,1.7,0,0,1-.151.7,2.034,2.034,0,0,1-.424.6,2.1,2.1,0,0,1-.654.413,2.217,2.217,0,0,1-.8.136,2.258,2.258,0,0,1-.673-.093m4.245-.915a1.294,1.294,0,0,0,.916.346,1.224,1.224,0,0,0,.885-.346,1.2,1.2,0,0,0,0-1.727,1.392,1.392,0,0,0-1.8.008,1.192,1.192,0,0,0-.006,1.719m-1.008-1.564a1.766,1.766,0,0,1,.419-.595,1.938,1.938,0,0,1,.729-.438,2.347,2.347,0,0,1,.841-.151,1.887,1.887,0,0,1,.742.138,2.117,2.117,0,0,1,.625.406,2.069,2.069,0,0,1,.455.612,1.648,1.648,0,0,1,.159.7,1.757,1.757,0,0,1-.154.706,1.8,1.8,0,0,1-.4.6,2.3,2.3,0,0,1-.693.454,2.048,2.048,0,0,1-.8.162,2.317,2.317,0,0,1-.815-.141,2.068,2.068,0,0,1-.661-.417,1.915,1.915,0,0,1-.445-.613,1.86,1.86,0,0,1-.145-.711,1.815,1.815,0,0,1,.139-.715m5.273,2.484V27.254a1.025,1.025,0,0,1,.184-.676.988.988,0,0,1,.7-.242v-.726a1.925,1.925,0,0,0-.513.068.6.6,0,0,0-.408.3v-.306h-.715v3.562Zm4.089-2.638a1.266,1.266,0,0,0-.891-.341,1.353,1.353,0,0,0-.916.33,1.074,1.074,0,0,0-.391.843,1.137,1.137,0,0,0,.382.872,1.341,1.341,0,0,0,.933.352,1.266,1.266,0,0,0,.883-.352,1.1,1.1,0,0,0,.388-.825,1.159,1.159,0,0,0-.388-.878m-2.4,2.172a1.727,1.727,0,0,1-.592-1.332,1.758,1.758,0,0,1,.579-1.321,1.968,1.968,0,0,1,.656-.411,2.353,2.353,0,0,1,.8-.132,2.009,2.009,0,0,1,.626.1,3.172,3.172,0,0,1,.7.366v-.365h.756v3.563h-.773v-.386a2.577,2.577,0,0,1-.682.363,1.784,1.784,0,0,1-.589.1,2.113,2.113,0,0,1-1.486-.545m4.485-2.46h-.556v-.637h.555V24.541h.757v1.134h.555v.637h-.555v2.927h-.757Zm1.734,2.926h.745V25.675h-.745Zm.746-4.7h-.745v.67h.745Zm1.711,3.775a1.308,1.308,0,0,0,.922.346,1.227,1.227,0,0,0,.882-.346,1.2,1.2,0,0,0,0-1.727,1.269,1.269,0,0,0-.891-.324,1.289,1.289,0,0,0-.907.332,1.193,1.193,0,0,0-.006,1.719m-1-1.564a1.751,1.751,0,0,1,.416-.595,1.976,1.976,0,0,1,.735-.438,2.341,2.341,0,0,1,.84-.151,1.885,1.885,0,0,1,.74.138,2.153,2.153,0,0,1,.628.406,2.244,2.244,0,0,1,.455.612,1.734,1.734,0,0,1,.156.7,1.794,1.794,0,0,1-.151.706,1.854,1.854,0,0,1-.4.6,2.274,2.274,0,0,1-.693.454,2.06,2.06,0,0,1-.8.162,2.3,2.3,0,0,1-.813-.141,2.014,2.014,0,0,1-.662-.417,1.928,1.928,0,0,1-.444-.613,1.764,1.764,0,0,1-.148-.711,1.807,1.807,0,0,1,.14-.715m4.518,2.486V25.675h.749V26a1.946,1.946,0,0,1,.55-.313,1.521,1.521,0,0,1,.5-.075,1.591,1.591,0,0,1,1.168.408,1.608,1.608,0,0,1,.424,1.2v2.025h-.768V27.352a1.261,1.261,0,0,0-.212-.809.852.852,0,0,0-.687-.26.842.842,0,0,0-.752.322,1.831,1.831,0,0,0-.209,1v1.628Z" transform="translate(-388.97 -10.211)" fill="#231916"/>
  </g>
</svg>
