<svg xmlns="http://www.w3.org/2000/svg" xmlns:xlink="http://www.w3.org/1999/xlink" width="136.234" height="49.5" viewBox="0 0 136.234 49.5">
  <defs>
    <clipPath id="clip-path">
      <rect id="사각형_448" data-name="사각형 448" width="136.234" height="49.5" fill="none"/>
    </clipPath>
  </defs>
  <g id="그룹_2678" data-name="그룹 2678" transform="translate(-1.611 -0.586)">
    <path id="패스_736" data-name="패스 736" d="M205.834,74.55v8.225h1.982V79.709h1.757V78.027h-1.72V74.55Z" transform="translate(-110.698 -40.093)" fill="#074ca1"/>
    <path id="패스_737" data-name="패스 737" d="M189.635,100.556V93.827h9.5v6.73Zm7.555-5.087h-5.615v3.445h5.615Z" transform="translate(-101.976 -50.472)" fill="#074ca1"/>
    <path id="패스_738" data-name="패스 738" d="M234.531,74.55v8.225H232.55V79h-2.581V77.316h2.543V74.55Z" transform="translate(-123.692 -40.093)" fill="#074ca1"/>
    <g id="그룹_2677" data-name="그룹 2677" transform="translate(1.612 0.586)">
      <g id="그룹_2676" data-name="그룹 2676" clip-path="url(#clip-path)">
        <path id="패스_739" data-name="패스 739" d="M222.817,100.032c-2.887,0-5.226-1.761-5.226-3.934s2.341-3.932,5.226-3.932,5.226,1.76,5.226,3.932-2.34,3.934-5.226,3.934m3.25-3.934c0-1.213-1.456-2.2-3.25-2.2s-3.25.983-3.25,2.2,1.456,2.2,3.25,2.2,3.25-.982,3.25-2.2" transform="translate(-119.299 -50.533)" fill="#074ca1"/>
        <path id="패스_740" data-name="패스 740" d="M189.319,75.2s-.259,4.353,3.268,6.158l-1.013,1.4s-2.586-1.7-3.172-3.57c-.585,1.866-3.169,3.57-3.169,3.57l-1.014-1.4c3.528-1.806,3.268-6.158,3.268-6.158Z" transform="translate(-101.002 -41.229)" fill="#074ca1"/>
        <path id="패스_741" data-name="패스 741" d="M217.761,79.185c-.585,1.865-2.953,3.426-2.953,3.426l-1.014-1.4c3.311-1.661,3.053-6.014,3.053-6.014h1.83s-.258,4.353,3.053,6.014l-1.015,1.4s-2.368-1.561-2.954-3.426" transform="translate(-117.218 -41.227)" fill="#074ca1"/>
        <rect id="사각형_440" data-name="사각형 440" width="7.482" height="1.632" transform="translate(123.555 34.034)" fill="#074ca1"/>
        <rect id="사각형_441" data-name="사각형 441" width="1.902" height="15.842" transform="translate(132.429 33.349)" fill="#074ca1"/>
        <rect id="사각형_442" data-name="사각형 442" width="2.798" height="1.63" transform="translate(133.436 39.109)" fill="#074ca1"/>
        <rect id="사각형_443" data-name="사각형 443" width="1.902" height="10.538" transform="translate(119.884 33.399)" fill="#074ca1"/>
        <rect id="사각형_444" data-name="사각형 444" width="3.713" height="1.631" transform="translate(117.418 36.981)" fill="#074ca1"/>
        <rect id="사각형_445" data-name="사각형 445" width="7.739" height="1.632" transform="translate(110.549 34.027)" fill="#074ca1"/>
        <rect id="사각형_446" data-name="사각형 446" width="1.903" height="6.658" transform="translate(112.247 42.29)" fill="#074ca1"/>
        <path id="패스_742" data-name="패스 742" d="M248.875,76.687s-.007.065-.012.181c.038,1.462-.528,3.942,3.405,5.854l-.988,1.354s-2.835-1.522-3.511-3.438c-.677,1.916-3.512,3.438-3.512,3.438l-.988-1.354c3.932-1.913,3.365-4.393,3.4-5.854,0-.117-.012-.181-.012-.181Z" transform="translate(-133.377 -42.045)" fill="#074ca1"/>
        <path id="패스_743" data-name="패스 743" d="M277.467,78.373v1.2c.092,3.513.213,6.065,3.276,8.781L279.49,89.73s-2.58-2.4-2.965-4.546c-.386,2.149-2.965,4.546-2.965,4.546l-1.252-1.378c3.061-2.715,3.182-5.267,3.274-8.781v-1.2Z" transform="translate(-149.299 -42.97)" fill="#074ca1"/>
        <rect id="사각형_447" data-name="사각형 447" width="8.579" height="1.63" transform="translate(113.256 47.318)" fill="#074ca1"/>
        <path id="패스_744" data-name="패스 744" d="M90.677.5C69.971-1.56,39.719,2.892,18.641,11.4l-1.26.54a6.043,6.043,0,0,1,.65,0c3.509.1,3.294,2.278,3.294,2.278l.005,1.332h-2.8v-.9c0-.642-.781-.685-.781-.685a.722.722,0,0,0-.738.406,1.014,1.014,0,0,0,.235,1.155,9.735,9.735,0,0,0,1.744,1,9.959,9.959,0,0,1,1.23.651,2.794,2.794,0,0,1,1.294,2.48v1.07c-.171,2.653-3.829,2.578-3.829,2.578-3.829,0-3.745-2.513-3.745-2.513V19.473h2.98v.9a.778.778,0,0,0,.744.8.825.825,0,0,0,.881-.754c.112-.764-.731-1.246-.731-1.246C16.983,18.753,15.593,18,15.593,18a3.647,3.647,0,0,1-.963-.856,2.759,2.759,0,0,1-.46-1.583v-.835c0-1.156.31-1.487.31-1.487s.01-.014.014-.023c-20.627,9.645-18.274,19.67.946,21.53C36.45,36.785,68.177,32.745,89.5,23.215c-.067,0-.128.016-.2.016,0,0-3.607.292-3.694-2.616V14.991s-.449-3.1,3.593-3.1c0,0,2.631-.085,3.326,1.477,0,0,.344.418.252,2.146h-2.8v-.885a.71.71,0,0,0-.731-.715s-.761.032-.761.631V20.36a.765.765,0,1,0,1.526-.056V18.621h-.764V17.054h3.6v3.305a2.315,2.315,0,0,1-.3,1.1,5.4,5.4,0,0,1-.345.462l1.172-.587C112.259,11.658,109.9,2.406,90.677.5M29.653,22.921l-1.09-8.236h-.245l-1.09,8.236H24.252L26.091,12.3h4.7l1.839,10.623H29.653m15.045.012-.067-8H44.44l-1.448,8h-2.91l-1.466-8H38.4l-.033,8.006H35.6l.233-10.625H40.5l.895,5.815h.219l.936-5.815h4.625l.3,10.625H44.7Zm13.465-3.28v1.07c-.171,2.653-3.829,2.578-3.829,2.578-3.829,0-3.746-2.513-3.746-2.513V19.475h2.98v.9a.777.777,0,0,0,.744.8.826.826,0,0,0,.882-.754c.111-.764-.732-1.245-.732-1.245-.834-.427-2.225-1.177-2.225-1.177a3.642,3.642,0,0,1-.963-.855,2.759,2.759,0,0,1-.46-1.583v-.835c0-1.155.31-1.487.31-1.487.791-1.487,3.551-1.305,3.551-1.305,3.508.1,3.294,2.278,3.294,2.278l0,1.332h-2.8v-.9c0-.642-.781-.685-.781-.685a.722.722,0,0,0-.738.406,1.014,1.014,0,0,0,.235,1.155,9.7,9.7,0,0,0,1.743,1,10,10,0,0,1,1.23.652,2.8,2.8,0,0,1,1.295,2.483m10.947.718c0,2.921-3.7,2.876-3.7,2.876-4.257,0-3.944-3.016-3.944-3.016V12.263H64.5l.01,8.032a.8.8,0,0,0,.854.856c.813,0,.772-.876.772-.876v-8.01h2.97Zm12.767,2.564h-3.3l-2.946-6.5H75.5l.166,6.5H72.9V12.311h3.4l2.845,6.444h.123l-.2-6.445h2.8V22.934h0" transform="translate(0 0)" fill="#074ca1"/>
      </g>
    </g>
  </g>
</svg>
