<svg id="그룹_2513" data-name="그룹 2513" xmlns="http://www.w3.org/2000/svg" width="130.019" height="34" viewBox="0 0 130.019 34">
  <g id="그룹_2520" data-name="그룹 2520">
    <path id="패스_454" data-name="패스 454" d="M27.732,17.956a6.05,6.05,0,0,0-8.65,1.829A6.056,6.056,0,0,1,8.093,18.1h0c-.008-.025-.012-.046-.018-.066s-.011-.051-.019-.077a7.914,7.914,0,0,1-.314-2.438c0-5.5,5.6-11.622,13.646-11.622a15.389,15.389,0,0,1,14.188,9.857c-.024-.065-.044-.125-.064-.187a17.35,17.35,0,0,0-33.8,5.685C1.711,27.9,7.894,35.3,16.475,35.3a13.942,13.942,0,0,0,13.543-9.2,6.788,6.788,0,0,0-2.286-8.146" transform="translate(-1.711 -1.728)" fill="#002b51"/>
    <path id="패스_455" data-name="패스 455" d="M39.493,15.438A15.336,15.336,0,0,0,25.2,5.235c-8.051,0-13.646,6.127-13.646,11.628a7.94,7.94,0,0,0,.314,2.439,5.185,5.185,0,0,1-.159-1.251c0-5.73,5.682-9.7,11.524-9.7A14.387,14.387,0,0,1,37.552,22.805,15.954,15.954,0,0,1,28.8,37.082v0a17.641,17.641,0,0,0,10.69-21.649" transform="translate(-5.523 -3.087)" fill="#da0021"/>
    <path id="패스_456" data-name="패스 456" d="M77.427,17.192V15.809h2.178v1.383h3.03v1.7H74.056v-1.7Zm4.848,5.586a3.052,3.052,0,0,1-.3,1.345,3.669,3.669,0,0,1-.814,1.1,3.892,3.892,0,0,1-1.184.749,3.96,3.96,0,0,1-2.9,0,3.88,3.88,0,0,1-1.184-.749,3.659,3.659,0,0,1-.814-1.1,3.044,3.044,0,0,1-.3-1.345,3.1,3.1,0,0,1,.3-1.354,3.611,3.611,0,0,1,.814-1.107,3.892,3.892,0,0,1,1.184-.749,3.968,3.968,0,0,1,2.9,0,3.9,3.9,0,0,1,1.184.749,3.621,3.621,0,0,1,.814,1.107,3.111,3.111,0,0,1,.3,1.354m-1.913-.019a1.749,1.749,0,0,0-.54-1.279,1.769,1.769,0,0,0-1.3-.54,1.737,1.737,0,0,0-1.288.54,1.763,1.763,0,0,0-.53,1.279,1.73,1.73,0,0,0,.53,1.269,1.752,1.752,0,0,0,1.288.531,1.785,1.785,0,0,0,1.3-.531,1.717,1.717,0,0,0,.54-1.269M87.6,29.444a3.266,3.266,0,0,1-.322,1.429,4.089,4.089,0,0,1-.853,1.184,4.3,4.3,0,0,1-1.269.814,3.912,3.912,0,0,1-1.534.3,3.977,3.977,0,0,1-1.543-.3,4.258,4.258,0,0,1-1.279-.814,4.076,4.076,0,0,1-.852-1.184,3.267,3.267,0,0,1-.322-1.429,3.333,3.333,0,0,1,.322-1.439,4.029,4.029,0,0,1,.852-1.193A4.258,4.258,0,0,1,82.076,26a3.977,3.977,0,0,1,1.543-.3,3.912,3.912,0,0,1,1.534.3,4.3,4.3,0,0,1,1.269.814,4.042,4.042,0,0,1,.853,1.193,3.332,3.332,0,0,1,.322,1.439m-2.008-.019A1.893,1.893,0,0,0,85,28.042a1.913,1.913,0,0,0-1.4-.586,1.88,1.88,0,0,0-1.392.586,1.91,1.91,0,0,0-.578,1.383,1.877,1.877,0,0,0,.578,1.373,1.9,1.9,0,0,0,1.392.577A1.93,1.93,0,0,0,85,30.8a1.86,1.86,0,0,0,.587-1.373m-.038-4.242H83.658V16.169h1.894v3.58h1.686v-3.6h1.969v9.26H87.237V21.6H85.551Z" transform="translate(-29.29 -7.025)" fill="#464545"/>
    <path id="패스_457" data-name="패스 457" d="M102.668,18.6V16.839h9.469V18.6H108.1l4.2,5.132-1.439,1.174L107.5,20.7l-3.352,4.487-1.5-1.212,4.185-5.378Zm13.1,10.756a3.645,3.645,0,0,1-.341,1.563,4.294,4.294,0,0,1-.909,1.278,4.475,4.475,0,0,1-1.373.871,4.332,4.332,0,0,1-1.657.322,4.513,4.513,0,0,1-3.049-1.193,4.294,4.294,0,0,1-.909-1.278,3.645,3.645,0,0,1-.341-1.563,3.708,3.708,0,0,1,.341-1.572,4.251,4.251,0,0,1,.909-1.287,4.44,4.44,0,0,1,1.383-.871,4.39,4.39,0,0,1,1.666-.322,4.32,4.32,0,0,1,1.657.322,4.475,4.475,0,0,1,1.373.871,4.251,4.251,0,0,1,.909,1.287,3.708,3.708,0,0,1,.341,1.572m-2.008-.018a2.171,2.171,0,0,0-.681-1.6,2.219,2.219,0,0,0-1.61-.672,2.295,2.295,0,0,0-2.272,2.273,2.153,2.153,0,0,0,.672,1.59,2.2,2.2,0,0,0,1.6.662,2.234,2.234,0,0,0,1.61-.662,2.139,2.139,0,0,0,.681-1.59m1.364-4.223v-3.58h-3.069V19.774h3.069V16.366h2.044v8.749Z" transform="translate(-40.194 -7.238)" fill="#464545"/>
    <path id="패스_458" data-name="패스 458" d="M139.67,20.986a4.17,4.17,0,0,1-.369,1.743,4.689,4.689,0,0,1-1.013,1.438,5.024,5.024,0,0,1-1.487.967,4.735,4.735,0,0,1-3.617,0,5.009,5.009,0,0,1-1.487-.967,4.692,4.692,0,0,1-1.013-1.438,4.295,4.295,0,0,1,0-3.485,4.692,4.692,0,0,1,1.013-1.438,5.009,5.009,0,0,1,1.487-.967,4.727,4.727,0,0,1,3.617,0,5.024,5.024,0,0,1,1.487.967,4.689,4.689,0,0,1,1.013,1.438,4.171,4.171,0,0,1,.369,1.742M133.4,27.027V30.72h11.1v1.818H131.357V27.027Zm4.3-6.021a2.548,2.548,0,0,0-.218-1.042,3.05,3.05,0,0,0-.578-.871,3.1,3.1,0,0,0-.862-.578,2.487,2.487,0,0,0-1.032-.218,2.556,2.556,0,0,0-1.041.218,2.633,2.633,0,0,0-1.449,1.449,2.548,2.548,0,0,0-.217,1.042,2.481,2.481,0,0,0,.217,1.032,3.066,3.066,0,0,0,.578.861,3.03,3.03,0,0,0,.871.578,2.536,2.536,0,0,0,1.041.218,2.468,2.468,0,0,0,1.032-.218,2.68,2.68,0,0,0,1.44-1.439,2.482,2.482,0,0,0,.218-1.032m6.382,5.927h-2.046V16.366h2.046v3.6h2.367V21.99h-2.367Z" transform="translate(-50.73 -7.245)" fill="#464545"/>
    <path id="패스_459" data-name="패스 459" d="M159.051,18.6V16.839h9.469V18.6H164.5l4.185,6.175-1.553,1.041-3.257-4.962-3.257,5.095-1.591-1.061L163.2,18.6Zm1.136,13.938V27.027h2.045V30.72h11.476v1.818Zm11.324-5.6V22.066h-3.068V20.248h3.068V16.366h2.045V26.933Z" transform="translate(-61.51 -7.245)" fill="#464545"/>
    <path id="패스_460" data-name="패스 460" d="M187.347,26.98H202.5V28.8h-6.553V33.04h-2.064V28.8h-6.534Zm3.238-8.068h8.673V16.83h2.027v7.935H188.559V16.83h2.026Zm8.673,1.78h-8.673v2.272h8.673Z" transform="translate(-72.479 -7.42)" fill="#464545"/>
  </g>
</svg>
