<svg xmlns="http://www.w3.org/2000/svg" xmlns:xlink="http://www.w3.org/1999/xlink" width="56.791" height="40.772" viewBox="0 0 56.791 40.772">
  <defs>
    <clipPath id="clip-path">
      <rect id="사각형_284" data-name="사각형 284" width="56.791" height="40.772" fill="#fff"/>
    </clipPath>
  </defs>
  <g id="그룹_1000" data-name="그룹 1000" opacity="0.3">
    <g id="그룹_999" data-name="그룹 999" clip-path="url(#clip-path)">
      <path id="패스_263" data-name="패스 263" d="M28.623,40.772c-1.531-.045-3.478-.1-5.424-.159-3.5-.107-7.011-.163-10.511-.347-1.959-.1-3.916-.361-5.858-.659a6.641,6.641,0,0,1-3.91-2,7.135,7.135,0,0,1-1.77-3.467A50.47,50.47,0,0,1,.043,24.27,97.032,97.032,0,0,1,.607,9.592a28.876,28.876,0,0,1,.708-3.425A6.556,6.556,0,0,1,7.123.992C9.322.671,11.547.5,13.767.376c8.081-.47,16.167-.457,24.255-.192,2.466.081,4.937.078,7.4.255a36.551,36.551,0,0,1,5.168.77A6.5,6.5,0,0,1,55.7,6.361a32.526,32.526,0,0,1,.956,7.329c.094,3.824.178,7.653.1,11.476a35.834,35.834,0,0,1-1.267,9.612,6.482,6.482,0,0,1-4.766,4.677,28.823,28.823,0,0,1-6.559.811c-5.041.2-10.085.332-15.543.505m-6.018-11.68L37.72,20.341,22.605,11.609Z" transform="translate(0 0)" fill="#fff"/>
    </g>
  </g>
</svg>
