<svg id="그룹_2707" data-name="그룹 2707" xmlns="http://www.w3.org/2000/svg" xmlns:xlink="http://www.w3.org/1999/xlink" width="133.48" height="41.662" viewBox="0 0 133.48 41.662">
  <defs>
    <clipPath id="clip-path">
      <rect id="사각형_470" data-name="사각형 470" width="133.481" height="41.662" fill="none"/>
    </clipPath>
  </defs>
  <g id="그룹_2706" data-name="그룹 2706" transform="translate(0 0)" clip-path="url(#clip-path)">
    <path id="패스_803" data-name="패스 803" d="M39.925,2.955c11.3,0,21.409,2.5,28.223,6.429C61.911,3.784,50.032,0,36.4,0,16.3,0,0,8.22,0,18.359c0,3.446,1.886,6.669,5.159,9.423a10.617,10.617,0,0,1-2.381-6.468c0-10.138,16.63-18.359,37.147-18.359" transform="translate(0 0)" fill="#0098c1"/>
    <path id="패스_804" data-name="패스 804" d="M103.241,40.764c-11.3,0-21.409-2.5-28.223-6.425,6.237,5.6,18.111,9.38,31.752,9.38,20.1,0,36.4-8.217,36.4-18.355,0-3.446-1.886-6.669-5.16-9.423a10.618,10.618,0,0,1,2.378,6.468c0,10.138-16.626,18.355-37.142,18.355" transform="translate(-9.684 -2.058)" fill="#0098c1"/>
    <path id="패스_805" data-name="패스 805" d="M22.4,26.69a4.475,4.475,0,0,0,.759,2.169A4.252,4.252,0,0,0,26.7,30.167a7.123,7.123,0,0,0,2.436-.346,2.443,2.443,0,0,0,1.777-2.456,1.831,1.831,0,0,0-.873-1.623,9.084,9.084,0,0,0-2.758-.987l-2.154-.5a12.945,12.945,0,0,1-4.362-1.615,5.254,5.254,0,0,1-2.016-4.563,6.234,6.234,0,0,1,1.965-4.7,8.048,8.048,0,0,1,5.769-1.87A8.476,8.476,0,0,1,31.9,13.266a6.389,6.389,0,0,1,2.353,5.117H30.292a3.033,3.033,0,0,0-1.611-2.7,5.308,5.308,0,0,0-2.483-.526,4.527,4.527,0,0,0-2.641.687,2.188,2.188,0,0,0-.982,1.91,1.823,1.823,0,0,0,.97,1.686,11.834,11.834,0,0,0,2.648.872l3.493.873a8.469,8.469,0,0,1,3.431,1.533,5.343,5.343,0,0,1,1.757,4.314,6.219,6.219,0,0,1-2.1,4.806,8.5,8.5,0,0,1-5.929,1.91,9.28,9.28,0,0,1-6.162-1.882,6.4,6.4,0,0,1-2.24-5.179Z" transform="translate(-2.381 -1.485)" fill="#0057aa"/>
    <path id="패스_806" data-name="패스 806" d="M40.719,37.108l.491.039a5.113,5.113,0,0,0,1.084-.036,1.883,1.883,0,0,0,.873-.329,2.25,2.25,0,0,0,.632-1.026,2.223,2.223,0,0,0,.236-.951l-5.4-16.289H42.9l3.206,11.5,3.026-11.5h4.075L48.189,33.855a22.15,22.15,0,0,1-2.311,5.486q-.848,1.067-3.4,1.065c-.342,0-.617,0-.826-.009s-.518-.031-.931-.066Z" transform="translate(-4.988 -2.391)" fill="#0057aa"/>
    <path id="패스_807" data-name="패스 807" d="M60.765,29.072A2.761,2.761,0,0,0,61.3,30.6a3.533,3.533,0,0,0,2.684.809,4,4,0,0,0,1.827-.354,1.2,1.2,0,0,0,.111-2.1,22.023,22.023,0,0,0-4.048-1.226A8.067,8.067,0,0,1,58.344,26.1a3.665,3.665,0,0,1-1.025-2.8,4.965,4.965,0,0,1,1.6-3.7,6.2,6.2,0,0,1,4.5-1.553A7.91,7.91,0,0,1,67.9,19.22,5.1,5.1,0,0,1,69.9,23.252H66.074A2.5,2.5,0,0,0,65.649,22a2.556,2.556,0,0,0-2.169-.837,3.01,3.01,0,0,0-1.8.416,1.219,1.219,0,0,0-.535.975,1.073,1.073,0,0,0,.57,1.018A22.9,22.9,0,0,0,65.747,24.7a7.124,7.124,0,0,1,3.443,1.717,4.055,4.055,0,0,1,1.12,2.92A4.815,4.815,0,0,1,68.683,33.1a7.36,7.36,0,0,1-5.03,1.462q-3.471,0-5.128-1.548a5.169,5.169,0,0,1-1.655-3.942Z" transform="translate(-7.341 -2.331)" fill="#0057aa"/>
    <path id="패스_808" data-name="패스 808" d="M91.044,31.3a8.373,8.373,0,0,1-6.5,2.448,8.383,8.383,0,0,1-6.5-2.448q-3.011-3.011-3.013-8.676,0-5.777,3.013-8.673a8.385,8.385,0,0,1,6.5-2.452,8.375,8.375,0,0,1,6.5,2.452q3,2.894,3,8.673,0,5.664-3,8.676m-2.554-3.234a8.833,8.833,0,0,0,1.458-5.442,8.841,8.841,0,0,0-1.458-5.434,4.675,4.675,0,0,0-3.934-1.922A4.732,4.732,0,0,0,80.6,17.184a8.752,8.752,0,0,0-1.474,5.442A8.759,8.759,0,0,0,80.6,28.068a4.732,4.732,0,0,0,3.953,1.914,4.677,4.677,0,0,0,3.934-1.914" transform="translate(-9.685 -1.485)" fill="#0057aa"/>
    <path id="패스_809" data-name="패스 809" d="M111.957,19.326Q113.4,20.6,113.4,23.534V34.051h-3.961v-9.5a4.611,4.611,0,0,0-.307-1.89,2.1,2.1,0,0,0-2.11-1.2,2.608,2.608,0,0,0-2.625,1.76,6.5,6.5,0,0,0-.369,2.378v8.453H100.2V18.458h3.686v2.283A6.846,6.846,0,0,1,105.277,19a4.627,4.627,0,0,1,2.983-.948,5.365,5.365,0,0,1,3.7,1.273" transform="translate(-12.935 -2.331)" fill="#0057aa"/>
    <path id="패스_810" data-name="패스 810" d="M128.864,18.784a6.079,6.079,0,0,1,2.531,2.3,7.936,7.936,0,0,1,1.171,3.218,21.13,21.13,0,0,1,.126,3.089h-10.72a3.513,3.513,0,0,0,3.673,3.878,3.158,3.158,0,0,0,2.146-.715,3.441,3.441,0,0,0,.8-1.081h3.89a5.2,5.2,0,0,1-1.419,2.817,6.922,6.922,0,0,1-5.517,2.271,7.711,7.711,0,0,1-5.164-1.913q-2.234-1.916-2.236-6.233a8.735,8.735,0,0,1,2.024-6.2,6.854,6.854,0,0,1,5.245-2.161,7.939,7.939,0,0,1,3.451.731m-5.792,3.545a4.2,4.2,0,0,0-1.034,2.35h6.684a3.159,3.159,0,0,0-3.332-3.218,3.038,3.038,0,0,0-2.318.868" transform="translate(-15.251 -2.331)" fill="#0057aa"/>
  </g>
</svg>
