<svg id="그룹_2655" data-name="그룹 2655" xmlns="http://www.w3.org/2000/svg" xmlns:xlink="http://www.w3.org/1999/xlink" width="89.114" height="34" viewBox="0 0 89.114 34">
  <defs>
    <clipPath id="clip-path">
      <rect id="사각형_361" data-name="사각형 361" width="89.114" height="34" fill="none"/>
    </clipPath>
  </defs>
  <g id="그룹_2514" data-name="그룹 2514" clip-path="url(#clip-path)">
    <path id="패스_461" data-name="패스 461" d="M26.253,16.225a6.131,6.131,0,0,0-8.721,1.831A6.137,6.137,0,0,1,6.439,16.369h0L6.421,16.3c-.007-.026-.014-.051-.021-.078a7.864,7.864,0,0,1-.313-2.438c0-5.5,5.641-11.621,13.769-11.621a15.5,15.5,0,0,1,14.309,9.855c-.021-.062-.04-.124-.061-.188A17.526,17.526,0,0,0,0,17.52c0,8.649,6.239,16.053,14.894,16.053a14.076,14.076,0,0,0,13.67-9.2,6.754,6.754,0,0,0-2.31-8.146" transform="translate(0 0)" fill="#002b51"/>
    <path id="패스_462" data-name="패스 462" d="M45.939,16.522a15.447,15.447,0,0,0-14.418-10.2c-8.128,0-13.769,6.121-13.769,11.621a7.875,7.875,0,0,0,.313,2.438,5.174,5.174,0,0,1-.161-1.25c0-5.726,5.735-9.695,11.629-9.695A14.446,14.446,0,0,1,43.982,23.885a15.923,15.923,0,0,1-8.83,14.268l0,0A17.527,17.527,0,0,0,46.71,21.678a17.289,17.289,0,0,0-.771-5.155" transform="translate(-11.666 -4.157)" fill="#da0021"/>
    <path id="패스_463" data-name="패스 463" d="M137.738,37.265h-7.412V31h1.681v1.617h4.036V31h1.7Zm-6.454,1.146H133v1.382h7.584V38.412h1.712V44.5H131.284Zm4.759-4.333h-4.036v1.758h4.036Zm4.538,7.081H133v1.931h7.584Zm-.031-10.379h1.743v6.657h-1.743V34.753h-2.042V33.23h2.042Z" transform="translate(-85.644 -20.229)" fill="#464545"/>
    <path id="패스_464" data-name="패스 464" d="M175.89,41.958V40.419h12.876v1.539h-5.574v3.611h-1.743V41.958Zm1.036-9.987h10.8V38.22h-10.8ZM186,33.494h-7.365v3.2H186Z" transform="translate(-115.587 -21.011)" fill="#464545"/>
    <path id="패스_465" data-name="패스 465" d="M222.366,40.06h12.876V41.6h-5.575V45.21h-1.742V41.6h-5.559Zm2.747-6.846h7.366V31.44h1.727v6.736H223.4V31.44h1.711Zm7.366,1.507h-7.366v1.932h7.366Z" transform="translate(-146.129 -20.662)" fill="#464545"/>
  </g>
</svg>
