<svg xmlns="http://www.w3.org/2000/svg" width="76.855" height="23.391" viewBox="0 0 76.855 23.391">
  <path id="패스_863" data-name="패스 863" d="M20.278-5.744a8.166,8.166,0,0,1-3.59,2.353,15.073,15.073,0,0,1-5.143.837,10.209,10.209,0,0,1-5.2-1.29A8.613,8.613,0,0,1,2.9-7.589a13.149,13.149,0,0,1-1.246-5.77v-1.548a13.964,13.964,0,0,1,1.152-5.9,8.508,8.508,0,0,1,3.324-3.815,9.594,9.594,0,0,1,5.088-1.321,9.552,9.552,0,0,1,6.35,1.931,8.244,8.244,0,0,1,2.712,5.621H15.7a4.535,4.535,0,0,0-1.388-2.861,4.44,4.44,0,0,0-2.955-.907,4.174,4.174,0,0,0-3.653,1.8,9.435,9.435,0,0,0-1.27,5.347v1.454A8.982,8.982,0,0,0,7.8-8.152a4.676,4.676,0,0,0,4,1.829,5.227,5.227,0,0,0,3.778-1.126v-3.925h-4.28v-3.455h8.984Zm22.561-7.99a13.711,13.711,0,0,1-1.192,5.895,8.957,8.957,0,0,1-3.41,3.909A9.452,9.452,0,0,1,33.15-2.555a9.517,9.517,0,0,1-5.064-1.36A9.045,9.045,0,0,1,24.637-7.8,13.319,13.319,0,0,1,23.4-13.609v-1.126a13.639,13.639,0,0,1,1.215-5.918,9.03,9.03,0,0,1,3.434-3.925,9.464,9.464,0,0,1,5.072-1.368,9.464,9.464,0,0,1,5.072,1.368,9.03,9.03,0,0,1,3.434,3.925,13.6,13.6,0,0,1,1.215,5.9Zm-4.766-1.032a9.56,9.56,0,0,0-1.286-5.441,4.193,4.193,0,0,0-3.669-1.861,4.2,4.2,0,0,0-3.653,1.837,9.45,9.45,0,0,0-1.3,5.386v1.11a9.679,9.679,0,0,0,1.286,5.41A4.182,4.182,0,0,0,33.15-6.4a4.145,4.145,0,0,0,3.637-1.853,9.623,9.623,0,0,0,1.286-5.4Zm12.888,8.13h9.987v3.768H46.257V-25.633h4.7ZM77.379-12.17H68.348v9.3h-4.7V-25.633H78.508v3.8H68.348v5.879h9.031Z" transform="translate(-1.652 25.945)" fill="#010239"/>
</svg>
