<svg id="그룹_2705" data-name="그룹 2705" xmlns="http://www.w3.org/2000/svg" xmlns:xlink="http://www.w3.org/1999/xlink" width="171.652" height="39.021" viewBox="0 0 171.652 39.021">
  <defs>
    <clipPath id="clip-path">
      <rect id="사각형_469" data-name="사각형 469" width="171.652" height="39.02" fill="none"/>
    </clipPath>
  </defs>
  <g id="그룹_2704" data-name="그룹 2704" clip-path="url(#clip-path)">
    <path id="패스_768" data-name="패스 768" d="M97.316,58.8a17.051,17.051,0,0,1-1.72-1.089.543.543,0,0,1-.173-.379.764.764,0,0,1,.363-.739s.181-.222.887-.222a2.008,2.008,0,0,1,1,.308l-.04-.64a3.778,3.778,0,0,0-2,.033,1.392,1.392,0,0,0-.875,1.255,1.451,1.451,0,0,0,.775,1.225,8.494,8.494,0,0,1,1.812,1.166,1.016,1.016,0,0,1,.01,1.06,1.413,1.413,0,0,1-1.142.508,3.366,3.366,0,0,1-1.389-.3l.049.6a10.909,10.909,0,0,0,1.348.119,2.627,2.627,0,0,0,1.4-.332,1.594,1.594,0,0,0,.6-1.15,1.5,1.5,0,0,0-.9-1.416" transform="translate(-45.51 -26.855)" fill="#002474"/>
    <path id="패스_769" data-name="패스 769" d="M104.451,61.174V58.752h1.773a.438.438,0,0,1,.26.071v-.5h-2.033V56.48h1.834a.531.531,0,0,1,.29.1l-.023-.6h-2.829a.962.962,0,0,1,.1.419v4.856s.022.08-.107.363h3.048l.082-.549a1.2,1.2,0,0,1-.548.1Z" transform="translate(-49.816 -26.889)" fill="#002474"/>
    <path id="패스_770" data-name="패스 770" d="M114.456,61.139a2.394,2.394,0,1,1,2.194-2.383,2.294,2.294,0,0,1-2.194,2.383m0-5.21a2.824,2.824,0,1,0,2.8,2.827,2.81,2.81,0,0,0-2.8-2.827" transform="translate(-53.63 -26.862)" fill="#002474"/>
    <path id="패스_771" data-name="패스 771" d="M190.9,61.139a2.394,2.394,0,1,1,2.194-2.383,2.295,2.295,0,0,1-2.194,2.383m0-5.21a2.824,2.824,0,1,0,2.8,2.827,2.81,2.81,0,0,0-2.8-2.827" transform="translate(-90.347 -26.862)" fill="#002474"/>
    <path id="패스_772" data-name="패스 772" d="M129.365,55.99h-.752c.081.054.092.282.092.282v3.421a1.537,1.537,0,0,1-3.075,0l.007-.078-.014-3.607-.6-.014v3.715a2.152,2.152,0,0,0,4.291-.028H129.3V56.266a.919.919,0,0,1,.062-.276" transform="translate(-60.046 -26.892)" fill="#002474"/>
    <path id="패스_773" data-name="패스 773" d="M137.186,61.218V56.354a.55.55,0,0,1,.1-.35H136.5a.366.366,0,0,1,.064.241v5.386h3.014l.176-.511a1.09,1.09,0,0,1-.481.1Z" transform="translate(-65.559 -26.899)" fill="#002474"/>
    <path id="패스_774" data-name="패스 774" d="M226.391,61.218V56.354a.562.562,0,0,1,.094-.35H225.7a.347.347,0,0,1,.064.241v5.386h3.007l.181-.511a1.1,1.1,0,0,1-.481.1Z" transform="translate(-108.403 -26.899)" fill="#002474"/>
    <path id="패스_775" data-name="패스 775" d="M155.249,56.381v3.948l-3.939-4.347h-.637a.712.712,0,0,1,.111.431V61.22a1.121,1.121,0,0,1-.081.381v0h.623a1.217,1.217,0,0,1-.069-.408V56.776l4.421,4.8V56.361a1.425,1.425,0,0,1,.074-.379h-.6c.106.108.095.4.095.4" transform="translate(-72.368 -26.888)" fill="#002474"/>
    <path id="패스_776" data-name="패스 776" d="M205.849,56.381v3.948l-3.938-4.347h-.642a.694.694,0,0,1,.115.431V61.22a1.2,1.2,0,0,1-.082.381v0h.623a1.251,1.251,0,0,1-.067-.408V56.776l4.422,4.8V56.361a1.338,1.338,0,0,1,.08-.379h-.609c.109.108.1.4.1.4" transform="translate(-96.669 -26.888)" fill="#002474"/>
    <path id="패스_777" data-name="패스 777" d="M163.982,59.035l.9-2.274,1.081,2.274Zm1.24-3.051H164.5a.806.806,0,0,1,.022.465L162.7,61.091a2.373,2.373,0,0,1-.353.531h.682a.557.557,0,0,1,.063-.347l.747-1.815h2.3l.775,1.6a1.238,1.238,0,0,1,.1.562h.965a4.269,4.269,0,0,1-.514-.816Z" transform="translate(-77.977 -26.889)" fill="#002474"/>
    <path id="패스_778" data-name="패스 778" d="M214.928,59.035l.9-2.274,1.077,2.274Zm1.1-3.051h-.718a.812.812,0,0,1,.023.465l-1.818,4.641a2.421,2.421,0,0,1-.349.531h.676a.565.565,0,0,1,.063-.347l.745-1.815h2.3l.776,1.6a1.2,1.2,0,0,1,.1.562h.961a4.349,4.349,0,0,1-.516-.816Z" transform="translate(-102.383 -26.889)" fill="#002474"/>
    <path id="패스_779" data-name="패스 779" d="M173.259,56.009l-.044.01-.133.483a.772.772,0,0,1,.348-.066h1.515v4.889a1.928,1.928,0,0,1-.052.322h.814a.968.968,0,0,1-.09-.336V56.449H176.8a1.605,1.605,0,0,1,.637.121l-.11-.561Z" transform="translate(-83.131 -26.901)" fill="#002474"/>
    <path id="패스_780" data-name="패스 780" d="M184.766,55.984h-.776a.7.7,0,0,1,.1.314v4.951a1.086,1.086,0,0,1-.1.386h.774a.83.83,0,0,1-.1-.4v-4.95a.8.8,0,0,1,.1-.3" transform="translate(-88.37 -26.889)" fill="#002474"/>
    <path id="패스_781" data-name="패스 781" d="M300.833,58.738a17.3,17.3,0,0,1-1.722-1.086.553.553,0,0,1-.173-.382.767.767,0,0,1,.363-.736s.18-.22.886-.22a2.035,2.035,0,0,1,1,.3l-.041-.641a3.774,3.774,0,0,0-2.006.042,1.384,1.384,0,0,0-.875,1.248,1.462,1.462,0,0,0,.775,1.228,8.569,8.569,0,0,1,1.812,1.167,1,1,0,0,1,.01,1.057,1.408,1.408,0,0,1-1.142.511,3.348,3.348,0,0,1-1.39-.307l.05.595a10.856,10.856,0,0,0,1.35.12,2.6,2.6,0,0,0,1.4-.333,1.586,1.586,0,0,0,.6-1.142,1.522,1.522,0,0,0-.9-1.423" transform="translate(-143.257 -26.825)" fill="#002474"/>
    <path id="패스_782" data-name="패스 782" d="M280.992,61.166V58.745h1.77a.449.449,0,0,1,.262.071v-.5h-2.032v-1.84h1.831a.559.559,0,0,1,.293.1l-.023-.6h-2.831a.929.929,0,0,1,.1.418v4.854s.018.085-.109.368h3.049l.083-.557a1.18,1.18,0,0,1-.553.1Z" transform="translate(-134.607 -26.886)" fill="#002474"/>
    <path id="패스_783" data-name="패스 783" d="M242.826,55.923h-.754c.084.052.092.284.092.284v3.419a1.536,1.536,0,0,1-3.072,0l0-.077-.012-3.612-.6-.011V59.64a2.152,2.152,0,0,0,4.291-.029h-.006V56.2a.938.938,0,0,1,.06-.276" transform="translate(-114.542 -26.86)" fill="#002474"/>
    <path id="패스_784" data-name="패스 784" d="M255,56.374v3.949l-3.94-4.344h-.637a.677.677,0,0,1,.111.426V61.21a1.2,1.2,0,0,1-.082.386v0h.624a1.2,1.2,0,0,1-.069-.4V56.769l4.424,4.8v-5.22a1.373,1.373,0,0,1,.074-.37h-.6c.1.1.1.395.1.395" transform="translate(-120.278 -26.887)" fill="#002474"/>
    <path id="패스_785" data-name="패스 785" d="M311.255,55.979l-.045.006-.136.483a.8.8,0,0,1,.347-.064h1.519V61.3a2.042,2.042,0,0,1-.055.317h.811a1,1,0,0,1-.085-.336V56.417H314.8a1.586,1.586,0,0,1,.631.12l-.11-.557Z" transform="translate(-149.408 -26.887)" fill="#002474"/>
    <path id="패스_786" data-name="패스 786" d="M308.273,55.936h-.779a.7.7,0,0,1,.1.316V61.2a1.211,1.211,0,0,1-.1.39h.77a.845.845,0,0,1-.1-.4V56.24a.829.829,0,0,1,.1-.3" transform="translate(-147.688 -26.866)" fill="#002474"/>
    <path id="패스_787" data-name="패스 787" d="M264.832,55.936h-.78a.718.718,0,0,1,.1.316V61.2a1.252,1.252,0,0,1-.095.39h.772a.852.852,0,0,1-.094-.4V56.24a.748.748,0,0,1,.1-.3" transform="translate(-126.823 -26.866)" fill="#002474"/>
    <path id="패스_788" data-name="패스 788" d="M272.377,56.345l-1.913,4.222-1.946-4.222c-.153-.273-.077-.4-.077-.4h-.82a8.8,8.8,0,0,1,.44.838l2.353,4.931,2.441-5.235a2.108,2.108,0,0,1,.4-.534h-.8s.077.122-.075.4" transform="translate(-128.537 -26.873)" fill="#002474"/>
    <path id="패스_789" data-name="패스 789" d="M292.513,60.717l-1.759-2.06a2,2,0,0,0,1.065-.464,1.407,1.407,0,0,0,.4-.967,1.256,1.256,0,0,0-.412-.877,1.639,1.639,0,0,0-1.129-.408,14.154,14.154,0,0,0-1.535.056.421.421,0,0,1,.088.262V61.3a.7.7,0,0,1-.065.273h.77a.488.488,0,0,1-.084-.266V58.431h.008l-.008,0V56.556l.012-.058s.009-.142.524-.142a1.237,1.237,0,0,1,.813.269.97.97,0,0,1,.343.637s.022.58-.282.79a2.022,2.022,0,0,1-1.4.379l2.528,3.138h.889c-.19-.16-.767-.852-.767-.852" transform="translate(-138.875 -26.868)" fill="#002474"/>
    <path id="패스_790" data-name="패스 790" d="M324.406,56.161,323.2,58.227l-1.287-2.015a.337.337,0,0,1-.053-.264h-.914a1.751,1.751,0,0,1,.332.412l1.49,2.318v2.6a.76.76,0,0,1-.055.3h.8a.676.676,0,0,1-.087-.276V58.686l1.354-2.095c.414-.679.453-.662.453-.662h-.772a.6.6,0,0,1-.054.232" transform="translate(-154.148 -26.862)" fill="#002474"/>
    <path id="패스_791" data-name="패스 791" d="M98.453,14.651c-.047-.71-.02-2.032-.02-2.032H96.5s.027,1.322-.018,2.032a10.473,10.473,0,0,1-4.345,8l.969,1.428a10.92,10.92,0,0,0,4.359-5.451,10.943,10.943,0,0,0,4.362,5.451l.97-1.428a10.462,10.462,0,0,1-4.344-8" transform="translate(-44.253 -6.061)" fill="#002474"/>
    <path id="패스_792" data-name="패스 792" d="M156.1,9.419a1.815,1.815,0,1,1-1.812,1.818A1.814,1.814,0,0,1,156.1,9.419m0,5.282a3.466,3.466,0,1,0-3.468-3.464A3.463,3.463,0,0,0,156.1,14.7" transform="translate(-73.307 -3.731)" fill="#002474"/>
    <path id="패스_793" data-name="패스 793" d="M255.414,20.857a1.724,1.724,0,1,1-1.725-1.725,1.725,1.725,0,0,1,1.725,1.725m-5.121,0a3.4,3.4,0,1,0,3.4-3.4,3.393,3.393,0,0,0-3.4,3.4" transform="translate(-120.215 -8.385)" fill="#002474"/>
    <path id="패스_794" data-name="패스 794" d="M314.669,22.34a19.025,19.025,0,0,1-1.064,5.192h1.827a20.851,20.851,0,0,0,.969-5.242V13.558h-12.14v1.623h10.408Z" transform="translate(-146.135 -6.512)" fill="#002474"/>
    <path id="패스_795" data-name="패스 795" d="M114.612,28.73h1.9V10.963h-1.9v5.161h-3.458v1.742h3.458Z" transform="translate(-53.387 -5.266)" fill="#002474"/>
    <path id="패스_796" data-name="패스 796" d="M214.807,18.334h1.43v10.4h1.9V10.963h-1.9v5.627h-1.43V10.963h-1.9V28.731h1.9Z" transform="translate(-102.256 -5.266)" fill="#002474"/>
    <path id="패스_797" data-name="패스 797" d="M260.426,28.739h1.9V21.733h-.689V15.787h2.553V14.228h-2.553V10.963h-1.9v10.77H249.021v1.625h11.4Z" transform="translate(-119.604 -5.265)" fill="#002474"/>
    <path id="패스_798" data-name="패스 798" d="M158.87,32.406H147.94v-1.34h10.93V26.215h-5.4V23.994h6.3V22.3H145.336v1.69h6.257v2.221h-5.362v1.69h10.9v1.474h-10.9v1.013H146.2v3.7H158.87Z" transform="translate(-69.804 -10.713)" fill="#002474"/>
    <path id="패스_799" data-name="패스 799" d="M311.081,33.17V25.254h-1.837V33.17h-2.116V25.254h-1.838V33.17h-2.384V34.8h14.23V33.17Z" transform="translate(-145.485 -12.13)" fill="#002474"/>
    <path id="패스_800" data-name="패스 800" d="M256.756,12.18h-3.6V10.556h-1.87V12.18h-3.6v1.559h9.075Z" transform="translate(-118.96 -5.07)" fill="#002474"/>
    <path id="패스_801" data-name="패스 801" d="M202.883,24.589V22.9h-5.136v-7.41h4.9V13.8h-6.775V24.6h1.875v-.011Z" transform="translate(-94.077 -6.628)" fill="#002474"/>
    <path id="패스_802" data-name="패스 802" d="M22.015,4.741c-.614-1.371-2.68-.43-2.68-.43,1.738,1.105,2.68.43,2.68.43m-3.416-.2a.391.391,0,1,0-.39-.391.392.392,0,0,0,.39.391m4.729.337a2.955,2.955,0,0,0-1.432.4l2.2.032.077-.058a5.38,5.38,0,0,0-4.011-3.332,4.971,4.971,0,0,0,3.165,2.962m1.545.575a.291.291,0,1,0-.292.291.29.29,0,0,0,.292-.291M13.127,5.3l2.2-.032a2.961,2.961,0,0,0-1.432-.4A4.968,4.968,0,0,0,17.06,1.914,5.379,5.379,0,0,0,13.05,5.246c.039.028.04.028.077.058m-.706.307a.291.291,0,1,0,.291-.292.291.291,0,0,0-.291.292M12.6,7.957C11.017,6.83,8.7,7.7,8.7,7.7a5.462,5.462,0,0,0,2.039-4.061,5.379,5.379,0,0,0-2.629,4.5c3.2.947,4.488-.188,4.488-.188m.882-.618.023-1.07a5.771,5.771,0,0,0-2.394-.123A5.464,5.464,0,0,0,13.826,2.5,5.381,5.381,0,0,0,10.455,6.48a7.243,7.243,0,0,0,3.029.859M26.149,5.971a3.814,3.814,0,0,0-2.158.121l0,1.1a5.978,5.978,0,0,0,2.827-.9,5.381,5.381,0,0,0-3.463-3.9,5.468,5.468,0,0,0,2.8,3.58m-10.942-1.1s.966.638,2.662-.531c0,0-2.1-.864-2.662.531m14.7,14.84H28.68v1.554H29.91ZM26.6,9.057l-.634.757L29.4,13.249l.7-.7Zm6.687-.1L30.132,5.8,27.31,8.871l3.028,2.988ZM7.613,8.6A.291.291,0,1,0,7.9,8.311a.291.291,0,0,0-.291.292m23.312,3.318a8.667,8.667,0,0,0,2.02.3,6.165,6.165,0,0,0,.209-2.437L32.092,10.8a4.815,4.815,0,0,0,.44.81,5.442,5.442,0,0,0-.763-.5Zm-.955,15.4H28.743v1.554h1.228ZM28.183,7.164l.711-.722a4.561,4.561,0,0,0-2.433-2.983,5.07,5.07,0,0,0,1.721,3.7m6.392,10.885a.291.291,0,1,0,.291-.292.291.291,0,0,0-.291.292M30.746,3.6A1.745,1.745,0,0,0,32.4,3.582a1.589,1.589,0,0,1,1.763.195,1.447,1.447,0,0,1,.6,1.291c0,.562-.162.6-.162.6-.34.234-.256-.162-.256-.162s.077-.276.077-.276a1.25,1.25,0,0,0-1.006-1.454,1.288,1.288,0,0,0-1.511.908,2.13,2.13,0,0,0-.049.82l-1.51-1.51.071,1.278,3.374,3.374H35L33.776,7.421a5.158,5.158,0,0,0,1.214.224,2.008,2.008,0,0,0,1.9-1.753c.455-1.722-1.178-3.112-1.178-3.112a5.1,5.1,0,0,0-2.735-1.012A4.141,4.141,0,0,1,29.807,0a4.6,4.6,0,0,0-.2,1.689A2.132,2.132,0,0,0,30.746,3.6M34.99,17.571a5.381,5.381,0,0,0,.758-5.16,5.474,5.474,0,0,0-.945,4.447s-1.26-2.124-3.2-2.236c0,0,.3,1.692,3.388,2.95M33,13.022a.292.292,0,1,0-.292-.293.293.293,0,0,0,.292.293M27.127,8.3l.882-.914a3.965,3.965,0,0,0-3.3.428s.586.664,2.422.486M34.2,14.808A5.378,5.378,0,0,0,34.053,9.6a5.469,5.469,0,0,0-.158,4.542s-1.61-1.875-3.542-1.647c0,0,.587,1.615,3.846,2.317M23.9,36.063a.292.292,0,1,0,.292-.292.293.293,0,0,0-.292.292m1.462-.28A4.956,4.956,0,0,0,27.025,32.6l-.59.024a6.173,6.173,0,0,0-1.748,3.471,5.382,5.382,0,0,0,5.213-.149,5.468,5.468,0,0,0-4.542-.159m-2.72.909s2.126-1.261,2.236-3.2c0,0-1.692.3-2.949,3.388a5.382,5.382,0,0,0,5.158.759,5.462,5.462,0,0,0-4.445-.945m-2.854.606a4.86,4.86,0,0,0,2.7-2.74c-1.718.122-3.189,2.7-3.189,2.7a5.857,5.857,0,0,0,4.416,1.718c-1.145-1.511-3.926-1.676-3.926-1.676m-1.226-.9v.727c-.336-.529-1.647-2.445-3.127-2.539a4.86,4.86,0,0,0,2.719,2.718s-2.779.184-3.914,1.707a5.881,5.881,0,0,0,4.322-1.668v1.183H19.3V36.4Zm10.184-6.706v1.554L35.7,37.013h1.391l-7.077-7.321Zm-.863,4.724a5.586,5.586,0,0,0,.944-1.822l-1.186-.018a8.413,8.413,0,0,0-.365,2.259,5.566,5.566,0,0,0,4.612-.635l-.789-.634a5.176,5.176,0,0,0-3.215.849m-13.8,1.758a.292.292,0,1,0-.291.292.292.292,0,0,0,.291-.292m19.443-8.135s.4-2.438-1.016-3.77c0,0-.86,1.487.7,4.435a5.375,5.375,0,0,0,3.9-3.464,5.47,5.47,0,0,0-3.58,2.8M30.658,33.2l-1.025-.836c.022.262.055.537.1.833a5.338,5.338,0,0,0,.921,0m-1.55.379a.292.292,0,1,0-.292-.291.292.292,0,0,0,.292.291M4.715,29.324a.291.291,0,1,0,.292-.292.291.291,0,0,0-.292.292M2.591,23.677c2.421-2.3,2.08-3.98,2.08-3.98C2.9,20.505,2.5,22.945,2.5,22.945a5.471,5.471,0,0,0-2.5-3.8,5.381,5.381,0,0,0,2.585,4.531m.007.4a.292.292,0,1,0,.293-.292.293.293,0,0,0-.293.292M6.753,5.86,4.5,3.584a2.61,2.61,0,0,0-3.053-.475L5.888,7.532A3.7,3.7,0,0,1,6.753,5.86m-1.735,1.4L1.184,3.42S-.42,4.571.827,7.258ZM3.355,26.445c1.985-2.68,1.357-4.28,1.357-4.28-1.6,1.1-1.572,3.577-1.572,3.577A5.468,5.468,0,0,0,.023,22.434a5.38,5.38,0,0,0,3.332,4.011m1.779,7.6a3.339,3.339,0,0,1,1.113-.368l-.73-.171-.071.091a.8.8,0,0,1,.071-.091L2.279,36.912s-.369.53-.02.879a.646.646,0,0,0,.776-.041l3.154-2.76a3.125,3.125,0,0,1-1.054-.947m6.141-1.384-.413,0A4.872,4.872,0,0,0,12.6,35.934a5.468,5.468,0,0,0-4.536.263,5.376,5.376,0,0,0,5.212.027,5.835,5.835,0,0,0-2-3.565M4.59,29.041c1.487-2.985.6-4.452.6-4.452-1.387,1.365-.928,3.795-.928,3.795A5.464,5.464,0,0,0,.612,25.67a5.381,5.381,0,0,0,3.978,3.37m8.444,4.59c.156,1.937,2.31,3.147,2.31,3.147a5.477,5.477,0,0,0-4.423,1.049,5.385,5.385,0,0,0,5.14-.88c-1.33-3.058-3.028-3.317-3.028-3.317M6.1,10.193c3.314.376,4.386-.966,4.386-.966C8.727,8.394,6.6,9.653,6.6,9.653A5.461,5.461,0,0,0,7.906,5.3,5.377,5.377,0,0,0,6.1,10.193m.158,21.189c.947-3.2-.188-4.487-.188-4.487-1.125,1.585-.254,3.9-.254,3.9a5.468,5.468,0,0,0-4.061-2.038,5.381,5.381,0,0,0,4.5,2.629m24.223-2.617a1.248,1.248,0,0,0-.276.547l.617.641a3.027,3.027,0,0,0-.341-1.189M9.87,15.968l1.136,1h2.562a2.979,2.979,0,0,1-.084-.979Zm6.355-7.5V7.036h4.458V9.082h1.472v1.473H20.725v.654h1.431V12.8H20.725v4.785H19.5l-1.7-1.7-1.553,1.554-1.125-1.125L17.7,13.744l1.329,1.329V8.468Zm-2.292,6.858c0,3.4,2.128,4.964,4.753,4.964s4.758-1.564,4.758-4.964V5.647h-9.51s0,6.288,0,9.679m-3.5-5.586a2.267,2.267,0,0,1-1.381.656l1.381,1.276Zm12.16,14.131c.31,0,.31-.234.314-.472V21.188h.634v2.339c0,.341-.038.919-.952.919-.591,0-.945-.278-.945-.877V21.188h.635v2.076c0,.242-.03.608.314.608m1.631,1.223v.595h-.642v.7h.565v.6h-.565v.723h.653v.6H22.944V25.094Zm-.172-3.907h.713l.184.446a3.86,3.86,0,0,1,.153.489H25.1a3.523,3.523,0,0,1,.145-.489l.192-.446h.684l-.684,1.553.735,1.653h-.735l-.2-.508c-.06-.163-.1-.321-.14-.481h-.009c-.047.16-.084.318-.14.481l-.189.508h-.713l.678-1.653Zm1.93,7.115-.12-.541h-.642L25.1,28.3h-.628l.743-3.208h.668l.771,3.208Zm-4.06,0-.152-2.312h-.01l-.1.792L21.382,28.3h-.489l-.311-1.537-.106-.715v-.06h-.009L20.374,28.3h-.682l.281-3.208h.835l.31,1.894h.007l.256-1.894h.851l.336,3.208Zm-2.056-7.115H20.5V23.8h.663v.594h-1.3Zm-.814-.495V31.571a2.3,2.3,0,0,1,1.473-.611h6.75v-13.5H23.63a4.92,4.92,0,0,1-4.582,3.231m-2.726,1.4a.363.363,0,0,0-.429-.4h-.085v.855l.111,0c.289,0,.4-.194.4-.458m9.21,3.828h-.009l-.069.485-.135.854h.446L25.6,26.4ZM8.454,11.628h0a4.186,4.186,0,0,1-2.16.98l.42.4,4.417-.022-1.37-1.369h0l-.695-.7a7.461,7.461,0,0,1-.614.71M33.09,28.989a.291.291,0,1,0-.292.292.29.29,0,0,0,.292-.292M34.794,24a.292.292,0,1,0-.29-.293.293.293,0,0,0,.29.293m-1.871-2.17s-.587,1.615,1.459,4.249a5.377,5.377,0,0,0,3.236-4.089,5.468,5.468,0,0,0-3.038,3.379s-.031-2.472-1.657-3.539m2.228.73s-.457-2.431-2.243-3.2c0,0-.3,1.692,2.172,3.931a5.378,5.378,0,0,0,2.478-4.587,5.471,5.471,0,0,0-2.408,3.855m-3.47,4.031s-1.1,1.317-.082,4.49a5.376,5.376,0,0,0,4.439-2.733,5.47,5.47,0,0,0-4.013,2.134s.819-2.332-.344-3.892m3.548-6.9s-.873-2.312-2.767-2.76c0,0,0,1.719,2.824,3.5a5.38,5.38,0,0,0,1.643-4.95,5.467,5.467,0,0,0-1.7,4.215M33.2,32.417a4.418,4.418,0,0,0,1.328-1.273,5.6,5.6,0,0,0-2.287.28ZM14.79,26.384l-.073-.488h-.009l-.067.488-.137.853h.448ZM5.4,7.427a5.38,5.38,0,0,0-.931,5.131c3.329-.2,4.151-1.709,4.151-1.709-1.874-.517-3.748,1.093-3.748,1.093A5.468,5.468,0,0,0,5.4,7.427M17.885,33.19H19.8s.126-.833.668-.833h7.968V18.337l-.792-.834V31.4H20.514a2.734,2.734,0,0,0-1.712,1,2.462,2.462,0,0,0-1.834-.959H10V17.628l-.855.855V32.357h7.78s.96.041.96.833M2.974,18.434a.292.292,0,1,0-.292.29.292.292,0,0,0,.292-.29m-.257-1.2a5.464,5.464,0,0,0-1.047-4.42,5.379,5.379,0,0,0,.879,5.14c3.058-1.33,3.316-3.028,3.316-3.028-1.937.156-3.148,2.308-3.148,2.308M.561,15.906a5.376,5.376,0,0,0,1.758,4.909c2.781-1.839,2.74-3.558,2.74-3.558-1.882.49-2.7,2.822-2.7,2.822a5.468,5.468,0,0,0-1.8-4.173M3.733,10.2A3.925,3.925,0,0,1,4.65,7.6H.99s.155.426,2.742,2.6M13.4,15.609v-.4l-1.9-1.9H7.045l2.517,2.3Zm-4.594,16.1c.012.133.035-.03.035-.03v-1.9l-.312.346a6.809,6.809,0,0,1,.276,1.58M4.126,13.063a.291.291,0,1,0,.291-.293.292.292,0,0,0-.291.293M8.793,33.831a.292.292,0,1,0-.291-.292.291.291,0,0,0,.291.292M10.827,12.1,13.4,14.638V12.676L10.827,10.1Zm-2,15.073H7.6V28.73H8.824ZM25.9,10.489l-2,2.179.02,3.484a3.97,3.97,0,0,1-.185.861H25.02L28.7,13.329ZM15.044,21.166v.6H14.4v.7h.565v.6H14.4v.723h.65v.6H13.769v-3.2l-.89,3.2h-.518l-.927-3.208h.678l.384,1.541c.056.182.078.365.116.548h.007c.034-.186.049-.368.1-.556l.386-1.533Zm.8,7.114h-.676l-.119-.539H14.4l-.115.539h-.629l.745-3.208h.667Zm-.667-7.114h.638c.4,0,1.127.043,1.127.92a.888.888,0,0,1-.456.827l.559,1.461h-.668l-.557-1.481h-.008v1.481h-.634Zm1.993,0H17.8v3.209h-.635ZM16.7,28.332a.971.971,0,0,1-.546-.163v-.6a.813.813,0,0,0,.481.171.345.345,0,0,0,.366-.35c0-.245-.2-.339-.375-.468a1.056,1.056,0,0,1-.591-.953.853.853,0,0,1,.838-.943,1.084,1.084,0,0,1,.561.157V25.8a.721.721,0,0,0-.459-.2.293.293,0,0,0-.321.314c0,.528.966.558.966,1.425a.9.9,0,0,1-.921,1M13.544,25.67h-.5v2.61h-.634V25.67h-.5v-.6h1.634Zm-3.166-8.208v13.5h6.686a3.156,3.156,0,0,1,1.535.611v-10.8a4.841,4.841,0,0,1-4.868-3.313Zm.291,17.567a7.8,7.8,0,0,0-.481-2.378L9,32.652a5.874,5.874,0,0,0,1.049,1.973A5.468,5.468,0,0,0,5.537,34.1a5.377,5.377,0,0,0,5.131.932M6.645,13.406,6.05,12.85a5.422,5.422,0,0,0-2.489,1.644,5.334,5.334,0,0,0,.007-3.938L3.137,10.2a5.8,5.8,0,0,0,.135,4.969,6.275,6.275,0,0,0,3.373-1.764M3.412,31.593A5.379,5.379,0,0,0,8.3,33.4c.377-3.316-.964-4.389-.964-4.389-.832,1.759.428,3.882.428,3.882a5.463,5.463,0,0,0-4.353-1.3m5.37-11.759H7.554v1.555H8.782Z" transform="translate(0)" fill="#002474"/>
  </g>
</svg>
