<svg id="그룹_2703" data-name="그룹 2703" xmlns="http://www.w3.org/2000/svg" xmlns:xlink="http://www.w3.org/1999/xlink" width="102.572" height="54.062" viewBox="0 0 102.572 54.062">
  <defs>
    <clipPath id="clip-path">
      <rect id="사각형_468" data-name="사각형 468" width="102.572" height="54.062" fill="none"/>
    </clipPath>
  </defs>
  <g id="그룹_2702" data-name="그룹 2702" clip-path="url(#clip-path)">
    <path id="패스_761" data-name="패스 761" d="M82.644,75.536a19.175,19.175,0,0,0-4.384-.568c-4.146,0-6.642,2.239-6.642,5.572,0,2.951,2.088,4.422,4.594,5.214.278.092.687.22.96.31,1.115.351,2.006.872,2.006,1.776,0,1.01-1.029,1.664-3.266,1.664a16.856,16.856,0,0,1-4.248-.662v4.1a26.865,26.865,0,0,0,4.854.487c3.442,0,7.379-1.5,7.379-5.981,0-2.172-1.33-4.171-4.249-5.1l-1.241-.4c-.74-.234-2.062-.612-2.062-1.7,0-.857.979-1.461,2.782-1.461a15.429,15.429,0,0,1,3.516.544ZM120.653,84.2A4.651,4.651,0,1,1,116,79.512a4.61,4.61,0,0,1,4.652,4.687M116,74.974A9.23,9.23,0,1,0,125.42,84.2,9.148,9.148,0,0,0,116,74.974M65.587,93.112h-4.5V75.289h4.5" transform="translate(-32.08 -39.368)" fill="#049fd9"/>
    <path id="패스_762" data-name="패스 762" d="M33.039,75.619a13.688,13.688,0,0,0-4.1-.639c-5.473,0-9.491,3.9-9.491,9.225,0,5.743,4.435,9.231,9.491,9.231a14.268,14.268,0,0,0,4.1-.634V88.017a7.887,7.887,0,0,1-3.779.946,4.759,4.759,0,1,1,0-9.512,7.809,7.809,0,0,1,3.779.952" transform="translate(-10.212 -39.374)" fill="#049fd9"/>
    <path id="패스_763" data-name="패스 763" d="M131.9,75.619a13.687,13.687,0,0,0-4.1-.639c-5.473,0-9.491,3.9-9.491,9.225,0,5.743,4.435,9.231,9.491,9.231a14.267,14.267,0,0,0,4.1-.634V88.017a7.887,7.887,0,0,1-3.779.946,4.759,4.759,0,1,1,0-9.512,7.809,7.809,0,0,1,3.779.952" transform="translate(-62.126 -39.374)" fill="#049fd9"/>
    <path id="패스_764" data-name="패스 764" d="M29,2.225a2.233,2.233,0,0,0-4.466,0V25.892a2.233,2.233,0,0,0,4.466,0Zm-12.265,8.4a2.233,2.233,0,0,0-4.466,0v10.82a2.233,2.233,0,0,0,4.466,0ZM4.466,16.767a2.233,2.233,0,0,0-4.466,0v4.679a2.233,2.233,0,0,0,4.466,0" fill="#049fd9"/>
    <path id="패스_765" data-name="패스 765" d="M51.656,2.225a2.233,2.233,0,0,1,4.466,0V25.892a2.233,2.233,0,0,1-4.466,0Zm12.265,8.4a2.233,2.233,0,0,1,4.466,0v10.82a2.233,2.233,0,0,1-4.466,0Zm12.265,6.141a2.233,2.233,0,0,1,4.466,0v4.679a2.233,2.233,0,0,1-4.466,0" transform="translate(-27.126)" fill="#049fd9"/>
    <path id="패스_766" data-name="패스 766" d="M154.939,2.225a2.233,2.233,0,0,1,4.466,0V25.892a2.233,2.233,0,0,1-4.466,0Zm12.265,8.4a2.233,2.233,0,0,1,4.466,0v10.82a2.233,2.233,0,0,1-4.466,0Zm12.265,6.141a2.233,2.233,0,0,1,4.466,0v4.679a2.233,2.233,0,0,1-4.466,0" transform="translate(-81.363)" fill="#049fd9"/>
    <path id="패스_767" data-name="패스 767" d="M132.279,2.225a2.233,2.233,0,0,0-4.466,0V25.892a2.233,2.233,0,0,0,4.466,0Zm-12.265,8.4a2.233,2.233,0,0,0-4.466,0v10.82a2.233,2.233,0,0,0,4.466,0Zm-12.265,6.141a2.233,2.233,0,0,0-4.466,0v4.679a2.233,2.233,0,0,0,4.466,0" transform="translate(-54.237)" fill="#049fd9"/>
  </g>
</svg>
