<svg id="그룹_2535" data-name="그룹 2535" xmlns="http://www.w3.org/2000/svg" xmlns:xlink="http://www.w3.org/1999/xlink" width="167.113" height="20.247" viewBox="0 0 167.113 20.247">
  <defs>
    <clipPath id="clip-path">
      <rect id="사각형_385" data-name="사각형 385" width="167.113" height="20.247" fill="none"/>
    </clipPath>
  </defs>
  <g id="그룹_2534" data-name="그룹 2534" clip-path="url(#clip-path)">
    <path id="패스_574" data-name="패스 574" d="M12.5,0H0L4.35,7.806a3.3,3.3,0,0,0,3.171,1.5h2.994L7.961,4.458h3.958c3.237,0,5.709,1.735,6.255,4.85h5.56A11.278,11.278,0,0,0,12.5,0" fill="#0059a8"/>
    <path id="패스_575" data-name="패스 575" d="M18.174,126.626c-.546,3.113-3.018,4.85-6.255,4.85H7.961l2.555-4.85H7.521a3.3,3.3,0,0,0-3.171,1.5L0,135.934H12.5a11.278,11.278,0,0,0,11.231-9.308h-5.56" transform="translate(0 -115.687)" fill="#00bdf0"/>
    <path id="패스_576" data-name="패스 576" d="M287.572,34.26c-2,0-3.27,1.013-3.27,2.859l0,.423h6.708V49.064h4.863V37.542H302.6V34.26H287.572m50.836,0H328.37a4.191,4.191,0,0,0-4.191,4.191v6.421a4.19,4.19,0,0,0,4.191,4.191h10.036a4.192,4.192,0,0,0,4.193-4.191V38.451a4.191,4.191,0,0,0-4.191-4.191Zm-8.333,3.282h6.631a1.035,1.035,0,0,1,1.033,1.035v6.171a1.034,1.034,0,0,1-1.033,1.033h-6.631a1.034,1.034,0,0,1-1.033-1.033V38.577a1.034,1.034,0,0,1,1.033-1.034m-12.088,6.8h.555a3.619,3.619,0,0,0,2.631-.973,4.02,4.02,0,0,0,1.049-2.921v-2a4.192,4.192,0,0,0-4.193-4.191h-10a4.191,4.191,0,0,0-4.193,4.191V49.064h4.841V37.542h6.5a2.453,2.453,0,0,1,1.788.491,1.613,1.613,0,0,1,.39,1.2v.476a1.647,1.647,0,0,1-.381,1.226,2.327,2.327,0,0,1-1.691.46H310.86c-.381,0-.686.049-.761.2s.1.405.389.681l7.071,6.792h5.5s-4.834-4.492-5.071-4.717m33.649,1.19h-.867v2.934h.867a1.387,1.387,0,0,0,1.562-1.493,1.437,1.437,0,0,0-1.562-1.442Zm-.007,2.566h-.44v-2.2h.491A1.023,1.023,0,0,1,352.752,47a.987.987,0,0,1-1.124,1.106m3.726-.938c0-.584-.248-.887-.861-.887a1.366,1.366,0,0,0-.708.2l.022.336a1.008,1.008,0,0,1,.622-.219c.4,0,.531.188.531.56-.157-.009-.266-.009-.422-.009-.407,0-1,.168-1,.706,0,.467.325.668.786.668a.8.8,0,0,0,.664-.327H355v.275h.37a3.489,3.489,0,0,1-.018-.42Zm-.394.474a.541.541,0,0,1-.6.564.38.38,0,0,1-.4-.348c0-.378.531-.412.745-.412.086,0,.17.009.254.009v.188m1.819-1.361a.994.994,0,0,0-1,1.084,1.025,1.025,0,0,0,1.109,1.16,1.685,1.685,0,0,0,.677-.137v-.4a1.275,1.275,0,0,1-.661.213.7.7,0,0,1-.706-.715h1.531c0-.69-.232-1.21-.947-1.21Zm-.584.916a.594.594,0,0,1,.577-.6.54.54,0,0,1,.533.6H356.2m3.485-.547h-.007a.708.708,0,0,0-.708-.369,1.03,1.03,0,0,0-.958,1.141.941.941,0,0,0,.918,1.053.9.9,0,0,0,.717-.33h.009v.21a.648.648,0,0,1-.664.735,1.614,1.614,0,0,1-.774-.193l-.04.369a2.206,2.206,0,0,0,.766.144c.772,0,1.108-.372,1.108-1.026V46.328h-.367Zm-.653,1.507c-.372,0-.6-.354-.6-.757,0-.367.2-.8.6-.8.418,0,.624.381.624.828a.668.668,0,0,1-.624.728m3.087-.832c0,.52-.2.881-.651.881-.343-.02-.454-.265-.454-.765V46.328h-.394V47.6c0,.579.248.922.8.922a.767.767,0,0,0,.7-.39h.009v.339h.383V46.328h-.4v.993m3.684.655-.921-2.44h-.693v2.934h.421V45.933h.007l.973,2.538H366l.972-2.538h.005v2.538h.422V45.537H366.7l-.9,2.44m3.069-1.7a.994.994,0,0,0-1,1.084,1.024,1.024,0,0,0,1.109,1.16,1.684,1.684,0,0,0,.677-.137v-.4a1.287,1.287,0,0,1-.661.213.7.7,0,0,1-.708-.715h1.531c0-.69-.232-1.21-.945-1.21Zm-.586.916a.6.6,0,0,1,.577-.6.54.54,0,0,1,.533.6h-1.109m2.527.628V46.646h.568v-.317h-.568v-.622l-.394.124v.5h-.483v.317h.483V47.9c0,.427.252.62.661.62a1.208,1.208,0,0,0,.334-.058v-.336a.49.49,0,0,1-.268.075.341.341,0,0,1-.332-.381m1.339-1.16h-.009v-.332h-.37v2.142h.394V47.5c0-.538.232-.874.586-.874a.544.544,0,0,1,.217.038v-.354a1.123,1.123,0,0,0-.259-.029.646.646,0,0,0-.558.383m2.1-.383a1.057,1.057,0,0,0-1.091,1.122,1.091,1.091,0,1,0,2.181,0,1.057,1.057,0,0,0-1.089-1.122Zm0,1.925a.72.72,0,0,1-.673-.8.681.681,0,1,1,1.341,0,.717.717,0,0,1-.668.8m2.628-1.925a.853.853,0,0,0-.726.352h-.009v-.3h-.378v3.027h.4V48.179h.007a.774.774,0,0,0,.715.343c.648,0,.92-.573.92-1.161a.957.957,0,0,0-.925-1.084Zm-.088,1.925c-.445,0-.629-.442-.629-.8,0-.4.206-.807.633-.807s.6.409.589.794c.007.338-.17.812-.593.812m2.388-1.925a1.058,1.058,0,0,0-1.093,1.122,1.091,1.091,0,1,0,2.18,0,1.056,1.056,0,0,0-1.087-1.122Zm0,1.925a.718.718,0,0,1-.672-.8.681.681,0,1,1,1.339,0,.718.718,0,0,1-.668.8m1.564.268h.394V45.318h-.394v3.153m1.064,0h.394V46.328H381.8Zm-.026-2.622h.447V45.4h-.447Zm1.611,1.973V46.646h.567v-.317h-.567v-.622l-.4.124v.5h-.484v.317h.484V47.9c0,.427.252.62.661.62a1.223,1.223,0,0,0,.336-.058v-.336a.5.5,0,0,1-.27.075.339.339,0,0,1-.33-.381m2.628-.657c0-.584-.248-.887-.863-.887a1.365,1.365,0,0,0-.706.2l.02.336a1.013,1.013,0,0,1,.624-.219c.394,0,.529.188.529.56-.157-.009-.265-.009-.42-.009-.409,0-1,.168-1,.706,0,.467.323.668.785.668a.8.8,0,0,0,.664-.327h.009v.275h.37a3.268,3.268,0,0,1-.016-.42Zm-.4.474a.541.541,0,0,1-.6.564.378.378,0,0,1-.4-.348c0-.378.529-.412.744-.412.084,0,.168.009.252.009v.188m2.053-1.361a.776.776,0,0,0-.7.39h-.007v-.339h-.383v2.142h.4V47.48c0-.522.2-.883.651-.883.345.022.454.265.454.765v1.109h.4V47.2c0-.575-.248-.92-.8-.92m4.388-.741h-2.244v.37h.912v2.564h.421V45.907h.91v-.371m.345,1.124H392.4v-.332h-.372v2.142h.4V47.5c0-.538.23-.874.584-.874a.565.565,0,0,1,.219.038v-.354a1.156,1.156,0,0,0-.261-.029.651.651,0,0,0-.56.383m2.823.5c0-.584-.25-.887-.863-.887a1.355,1.355,0,0,0-.706.2l.02.336a1.008,1.008,0,0,1,.622-.219c.4,0,.531.188.531.56-.155-.009-.265-.009-.42-.009-.409,0-1,.168-1,.706,0,.467.323.668.786.668a.789.789,0,0,0,.662-.327h.011v.275h.37a3.251,3.251,0,0,1-.016-.42Zm-.4.474a.541.541,0,0,1-.6.564.379.379,0,0,1-.4-.348c0-.378.531-.412.745-.412.084,0,.168.009.254.009v.188m2.051-1.361a.774.774,0,0,0-.7.39h-.007v-.339h-.383v2.142h.394V47.48c0-.522.2-.883.653-.883.345.022.454.265.454.765v1.109h.394V47.2c0-.575-.248-.92-.8-.92m1.6.58c0-.177.179-.261.38-.261a1.146,1.146,0,0,1,.416.109l.035-.345a1.674,1.674,0,0,0-.493-.084c-.423,0-.757.213-.757.661,0,.6.931.567.931.958,0,.232-.224.307-.405.307a1.026,1.026,0,0,1-.489-.152l-.024.354a1.234,1.234,0,0,0,.59.117.674.674,0,0,0,.748-.668c0-.686-.931-.558-.931-1m1.356,1.613h.4V46.328h-.4Zm-.026-2.622h.445V45.4h-.445Zm1.609,1.973V46.646h.568v-.317h-.568v-.622l-.394.124v.5h-.483v.317h.484V47.9c0,.427.252.62.66.62a1.235,1.235,0,0,0,.336-.058v-.336a.5.5,0,0,1-.27.075.34.34,0,0,1-.332-.381m3.461.332a1.148,1.148,0,0,1,.022-2.3,1.176,1.176,0,0,1,.6.162l.034-.407a1.616,1.616,0,0,0-.66-.126,1.462,1.462,0,0,0-1.553,1.5,1.445,1.445,0,0,0,1.549,1.531,1.816,1.816,0,0,0,.668-.1l-.026-.409a1.432,1.432,0,0,1-.639.144m1.976-1.876a1.059,1.059,0,0,0-1.095,1.122,1.092,1.092,0,1,0,2.182,0,1.056,1.056,0,0,0-1.087-1.122Zm0,1.925a.719.719,0,0,1-.673-.8.681.681,0,1,1,1.341,0,.718.718,0,0,1-.668.8m1.89-1.542h-.009v-.332h-.369v2.142h.394V47.5c0-.538.232-.874.586-.874a.554.554,0,0,1,.219.038v-.354a1.141,1.141,0,0,0-.261-.029.654.654,0,0,0-.56.383m2.266-.383a.853.853,0,0,0-.726.352h-.009v-.3H409.9v3.027h.394V48.179h.011a.769.769,0,0,0,.714.343c.648,0,.92-.573.92-1.161s-.3-1.084-.925-1.084Zm-.087,1.925c-.445,0-.631-.442-.631-.8,0-.4.208-.807.637-.807s.6.409.588.794c.009.338-.168.812-.593.812m2.389-1.925a1.058,1.058,0,0,0-1.093,1.122,1.091,1.091,0,1,0,2.18,0,1.056,1.056,0,0,0-1.087-1.122Zm0,1.925a.719.719,0,0,1-.673-.8.681.681,0,1,1,1.341,0,.717.717,0,0,1-.668.8m1.892-1.542H415.2v-.332h-.369v2.142h.394V47.5c0-.538.232-.874.586-.874a.55.55,0,0,1,.217.038v-.354a1.128,1.128,0,0,0-.261-.029.646.646,0,0,0-.558.383m2.821.5c0-.584-.248-.887-.861-.887a1.366,1.366,0,0,0-.708.2l.022.336a1,1,0,0,1,.622-.219c.4,0,.529.188.529.56-.155-.009-.265-.009-.42-.009-.409,0-1,.168-1,.706,0,.467.323.668.786.668a.8.8,0,0,0,.664-.327h.007v.275h.37a3.631,3.631,0,0,1-.016-.42Zm-.4.474a.541.541,0,0,1-.6.564.378.378,0,0,1-.4-.348c0-.378.531-.412.744-.412.084,0,.168.009.252.009v.188m1.531.183V46.646h.567v-.317h-.567v-.622l-.394.124v.5h-.484v.317h.484V47.9c0,.427.25.62.659.62a1.236,1.236,0,0,0,.338-.058v-.336a.507.507,0,0,1-.27.075.34.34,0,0,1-.332-.381m.983-1.973h.445V45.4h-.445Zm.026,2.622h.4V46.328h-.4Zm1.963-2.193a1.058,1.058,0,0,0-1.093,1.122,1.092,1.092,0,1,0,2.184,0,1.059,1.059,0,0,0-1.091-1.122Zm0,1.925a.719.719,0,0,1-.673-.8.682.682,0,1,1,1.343,0,.719.719,0,0,1-.67.8m2.606-1.925a.777.777,0,0,0-.7.39h-.007v-.339h-.383v2.142h.4V47.48c0-.522.2-.883.653-.883.345.022.452.265.452.765v1.109h.4V47.2c0-.575-.248-.92-.8-.92M384.961,40.63a3.423,3.423,0,0,1-2.467-3.584V35.322h-1.527V37.1A3.411,3.411,0,0,1,378.5,40.63l.714.872a5.12,5.12,0,0,0,2.518-1.768,5.117,5.117,0,0,0,2.516,1.768l.714-.872m-19.805,3.529V40.511h3.777V39.389h-1.48a6.668,6.668,0,0,0,.319-1.868h0v-2.2h-6.728v1.117h5.2v.832a8.673,8.673,0,0,1-.213,2.122h-6.189v1.122h3.783v3.648h1.527M407.447,42.3h-3.69V40.285h2.569v-1.12h-5.3V36.442h5.3V35.322h-7.071v.261s.239.141.239.73v3.339a.634.634,0,0,0,.633.633h2.1V42.3h-3.868v1.122h9.083V42.3m-29.013,0h-3.691V40.285h2.569v-1.12h-5.3V36.442h5.3V35.322H370.24v.261s.241.141.241.73v3.339a.634.634,0,0,0,.635.633h2.1V42.3h-3.867v1.122h9.085V42.3m13.087-4.169a4.679,4.679,0,0,0,2.347,1.394l.71-.881c-1.341-.4-2-.976-2.21-2.011h1.744v-1.12h-1.827v-.794h-1.527v.794H388.9v1.12h1.774c-.212,1.035-.872,1.608-2.212,2.011l.71.881a4.678,4.678,0,0,0,2.346-1.394m20.885,2.089a2.4,2.4,0,0,0-2.62,2.089,2.688,2.688,0,0,0,5.24,0A2.4,2.4,0,0,0,412.407,40.223Zm0,3.058a.975.975,0,1,1,1.075-.969,1.028,1.028,0,0,1-1.075.969m4.54-4.4h-1.6a5.2,5.2,0,0,0,.369-1.8V35.322h-6.676v1.122h5.151v.622a6.894,6.894,0,0,1-.257,1.812h-1.254V37.247H410.91v.261s.241.144.241.73v.64h-3.294V40h9.089V38.878m8.589-1.179V34.922h-1.768v.259s.241.14.241.73v8.248h1.527V38.822h1.319V37.7h-1.319m-4.567-.653V35.322h-1.524V37.1a3.417,3.417,0,0,1-2.469,3.531l.713.872a5.121,5.121,0,0,0,2.518-1.768,5.117,5.117,0,0,0,2.516,1.768l.714-.872a3.425,3.425,0,0,1-2.469-3.584m-65.625,7.113h1.434V38.787h.606v5.372h1.438V34.922h-1.677v.259s.239.14.239.73v1.755h-.606V34.922h-1.671v.259s.215.131.237.651v4.235a6.114,6.114,0,0,1-2.109.3H352.3V36.678h2.166v-1.12h-3.936v.261s.243.14.243.73v4.3a.634.634,0,0,0,.633.633h1.836v0a6.185,6.185,0,0,0,2.106-.3v2.971" transform="translate(-259.742 -31.3)" fill="#0059a8"/>
    <path id="패스_577" data-name="패스 577" d="M1464.594,42.915v1.024h-1.5v1.12h1.5v1.567h1.525v-4.7h-1.765v.259s.239.142.239.73m1.525,6.662V46.9h-6.894V47.99h5.368v.5h-5.368v.259s.241.146.241.734v1.046a.636.636,0,0,0,.635.637h6.018V50.073h-5.126v-.5h5.126m-11.291-6.662v8.248h1.527V41.926h-1.768v.259s.241.141.241.73" transform="translate(-1328.928 -38.304)" fill="#0059a8"/>
  </g>
</svg>
