<svg id="그룹_2533" data-name="그룹 2533" xmlns="http://www.w3.org/2000/svg" xmlns:xlink="http://www.w3.org/1999/xlink" width="123.52" height="50.988" viewBox="0 0 123.52 50.988">
  <defs>
    <clipPath id="clip-path">
      <rect id="사각형_384" data-name="사각형 384" width="123.519" height="50.989" fill="none"/>
    </clipPath>
  </defs>
  <g id="그룹_2532" data-name="그룹 2532" clip-path="url(#clip-path)">
    <path id="패스_537" data-name="패스 537" d="M227.7,84.06v4.774h6.039a1.132,1.132,0,0,1,.913.348,1.3,1.3,0,0,1,.281.838,1.23,1.23,0,0,1-.281.808,1.131,1.131,0,0,1-.913.346h-20.4a.985.985,0,0,1-.881-.346,1.211,1.211,0,0,1-.252-.808,1.281,1.281,0,0,1,.252-.838.986.986,0,0,1,.881-.348h5.725V84.06h2.705v4.774h3.324V84.06Z" transform="translate(-132.822 -52.615)" fill="#636162"/>
    <path id="패스_538" data-name="패스 538" d="M232.085,105.827a5.721,5.721,0,1,0,6.206,5.7,5.969,5.969,0,0,0-6.206-5.7m0,9.05a3.362,3.362,0,1,1,3.647-3.348,3.508,3.508,0,0,1-3.647,3.348" transform="translate(-141.383 -66.24)" fill="#636162"/>
    <path id="패스_539" data-name="패스 539" d="M232.085,60.182a5.721,5.721,0,1,0,6.206,5.7,5.968,5.968,0,0,0-6.206-5.7m0,9.052a3.363,3.363,0,1,1,3.647-3.352,3.509,3.509,0,0,1-3.647,3.352" transform="translate(-141.383 -37.669)" fill="#636162"/>
    <path id="패스_540" data-name="패스 540" d="M313.7,69.168a1.024,1.024,0,0,0-.818-.321h-2.849V61.368A1.213,1.213,0,0,0,308.8,60.2c-.006,0-.093-.007-.134-.007s-.107.005-.159.008a1.211,1.211,0,0,0-1.221,1.168v17.21a1.21,1.21,0,0,0,1.221,1.169c.052,0,.1.007.16.008.039,0,.128-.006.134-.006a1.214,1.214,0,0,0,1.231-1.17V71.121h2.849a.917.917,0,0,0,.818-.376,1.375,1.375,0,0,0,.232-.75,1.5,1.5,0,0,0-.232-.828" transform="translate(-192.338 -37.676)" fill="#636162"/>
    <path id="패스_541" data-name="패스 541" d="M298.531,112.792c0-.045-.005-.088-.009-.132a1.043,1.043,0,0,0-.648-.922.983.983,0,0,0-.137-.037l-.038,0a1.544,1.544,0,0,0-.176-.014c-.015,0-.028,0-.043,0h-7.6c-1.26,0-1.165-.784-1.165-.784v-4.817a1.14,1.14,0,0,0-1.1-1.09c-.1-.009-.183-.015-.265-.015l-.086,0a1.158,1.158,0,0,0-1.167,1.115v5.613a2,2,0,0,0,.232,1.018,1.9,1.9,0,0,0,.556.668,2.117,2.117,0,0,0,.785.426,5.016,5.016,0,0,0,.932.108h8.885a1.105,1.105,0,0,0,.652-.2.933.933,0,0,0,.211-.241l.019-.036c.014-.027.027-.054.04-.083.021-.048.04-.1.056-.146,0-.015.009-.029.013-.043.011-.041.02-.082.028-.123s.012-.064.016-.1a1.285,1.285,0,0,0,.012-.156s0-.009,0-.013" transform="translate(-179.073 -65.705)" fill="#636162"/>
    <path id="패스_542" data-name="패스 542" d="M278.9,73.012a12.637,12.637,0,0,1-3.7-3.581,7.442,7.442,0,0,1-1.326-4.306V63.641a1.2,1.2,0,0,0-1.022-1.15h0a2.054,2.054,0,0,0-.221-.037,1.372,1.372,0,0,0-.144-.013h-.051c-.026,0-.052,0-.077,0s-.07,0-.1.009a1.259,1.259,0,0,0-1.241,1.185c0,.011,0,.02,0,.031v1.154h0v.3a7.442,7.442,0,0,1-1.327,4.306,12.613,12.613,0,0,1-3.7,3.581.874.874,0,0,0-.425.722,1.161,1.161,0,0,0,.367.769,1.256,1.256,0,0,0,.9.374,1.359,1.359,0,0,0,.707-.2,12.493,12.493,0,0,0,2.857-2.362,11.115,11.115,0,0,0,2.051-2.787,11.114,11.114,0,0,0,2.051,2.787,12.5,12.5,0,0,0,2.856,2.362,1.279,1.279,0,0,0,.708.2,1.255,1.255,0,0,0,.9-.374,1.158,1.158,0,0,0,.367-.769.821.821,0,0,0-.424-.722" transform="translate(-166.216 -39.083)" fill="#636162"/>
    <path id="패스_543" data-name="패스 543" d="M49.9,71.86a1.427,1.427,0,0,1,.569-1.188,1.847,1.847,0,0,1,1.319-.4H55a.547.547,0,0,0,.556-.612V67.7a1.761,1.761,0,0,0-.05-.394.762.762,0,0,0-.174-.195,1.16,1.16,0,0,0-.247-.045H50.77a.811.811,0,0,1-.666-.24.754.754,0,0,1-.248-.611.893.893,0,0,1,.248-.656.822.822,0,0,1,.666-.262h4.417c.4,0,.766.021,1.087.045a3.086,3.086,0,0,1,.814.218,1.8,1.8,0,0,1,.569.438,1.694,1.694,0,0,1,.2.853v3.69a1.373,1.373,0,0,1-.567,1.2,2.623,2.623,0,0,1-1.482.394H52.046v2.774a1.568,1.568,0,0,0,.074.588c.048.133.271.175.715.175h7.623a1.1,1.1,0,0,1,.692.218.929.929,0,0,1,.224.636,1,1,0,0,1-.224.678.838.838,0,0,1-.669.282H52a2.62,2.62,0,0,1-1.484-.393,1.308,1.308,0,0,1-.618-1.247Z" transform="translate(-31.206 -40.869)" fill="#636162"/>
    <rect id="사각형_383" data-name="사각형 383" width="3.529" height="1.686" transform="translate(30.388 30.135)" fill="#636162"/>
    <path id="패스_544" data-name="패스 544" d="M9.608,65.574a1.75,1.75,0,0,0-1.258-.459H1.769a1.748,1.748,0,0,0-1.258.459A1.5,1.5,0,0,0,0,66.754v6.191a1.512,1.512,0,0,0,.532,1.178,1.747,1.747,0,0,0,1.257.46H8.331a1.748,1.748,0,0,0,1.258-.46,1.513,1.513,0,0,0,.531-1.178V66.754a1.5,1.5,0,0,0-.512-1.179M7.876,72.593a.242.242,0,0,1-.243.242H2.476a.243.243,0,0,1-.243-.242V67.281a.243.243,0,0,1,.243-.243H7.633a.243.243,0,0,1,.243.243Z" transform="translate(0 -40.757)" fill="#636162"/>
    <path id="패스_545" data-name="패스 545" d="M162.471,73.379a11.1,11.1,0,0,1-3.234-3.146,6.556,6.556,0,0,1-1.159-3.782v-2.49a.645.645,0,0,0-.369-.591,2.243,2.243,0,0,0-.854-.226H156.8a2.243,2.243,0,0,0-.854.226.644.644,0,0,0-.369.591v2.49a6.553,6.553,0,0,1-1.159,3.782,11.091,11.091,0,0,1-3.234,3.146.735.735,0,0,0-.371.633,1.022,1.022,0,0,0,.32.676,1.1,1.1,0,0,0,.79.328,1.187,1.187,0,0,0,.618-.175,10.987,10.987,0,0,0,2.495-2.074,9.763,9.763,0,0,0,1.791-2.448,9.759,9.759,0,0,0,1.791,2.448,10.977,10.977,0,0,0,2.5,2.074,1.176,1.176,0,0,0,.618.175,1.1,1.1,0,0,0,.789-.328,1.02,1.02,0,0,0,.32-.676.768.768,0,0,0-.371-.633" transform="translate(-94.398 -39.523)" fill="#636162"/>
    <path id="패스_546" data-name="패스 546" d="M35.221,16.807a3.406,3.406,0,0,0-3.407,3.406,3.415,3.415,0,0,0,1.25,2.438,2.887,2.887,0,0,1,1,2v5.255a.99.99,0,0,0,1,.956l.118.006c.043,0,.082,0,.123-.006a.991.991,0,0,0,1-.957V24.675a2.859,2.859,0,0,1,1.024-1.992,3.436,3.436,0,0,0,1.3-2.469,3.406,3.406,0,0,0-3.406-3.406m0,4.979a1.574,1.574,0,1,1,1.574-1.573,1.573,1.573,0,0,1-1.574,1.573" transform="translate(-19.913 -10.52)" fill="#ef750e"/>
    <path id="패스_547" data-name="패스 547" d="M186.982,16.807a3.406,3.406,0,0,0-3.406,3.406,3.415,3.415,0,0,0,1.25,2.438,2.888,2.888,0,0,1,1,2v5.255a.99.99,0,0,0,1,.956l.117.006c.043,0,.082,0,.123-.006a.989.989,0,0,0,1-.957V24.675a2.86,2.86,0,0,1,1.024-1.992,3.436,3.436,0,0,0,1.3-2.469,3.406,3.406,0,0,0-3.407-3.406m0,4.979a1.574,1.574,0,1,1,1.574-1.573,1.573,1.573,0,0,1-1.574,1.573" transform="translate(-114.905 -10.52)" fill="#a3c441"/>
    <path id="패스_548" data-name="패스 548" d="M120.125,22.161A3.272,3.272,0,0,0,117.97,28a2.889,2.889,0,0,1,1,2v5.4a.99.99,0,0,0,1,.955l.118.006c.044,0,.082,0,.123-.006a.99.99,0,0,0,1-.957V30.029a2.862,2.862,0,0,1,1.024-1.993,3.269,3.269,0,0,0-2.109-5.875m0,4.98a1.574,1.574,0,1,1,1.574-1.574,1.574,1.574,0,0,1-1.574,1.574" transform="translate(-73.057 -13.871)" fill="#ef750e"/>
    <path id="패스_549" data-name="패스 549" d="M87.566,29.687a3.272,3.272,0,0,0-2.156,5.844,2.886,2.886,0,0,1,1,2v.438a.99.99,0,0,0,1,.956l.118.006c.043,0,.082,0,.122-.006a.991.991,0,0,0,1-.957v-.417a2.856,2.856,0,0,1,1.023-1.992,3.269,3.269,0,0,0-2.109-5.876m0,4.979a1.574,1.574,0,1,1,1.573-1.573,1.573,1.573,0,0,1-1.573,1.573" transform="translate(-52.677 -18.582)" fill="#a3c441"/>
    <path id="패스_550" data-name="패스 550" d="M74.237,0A3.407,3.407,0,0,0,70.83,3.406a3.414,3.414,0,0,0,1.251,2.437,2.889,2.889,0,0,1,1,2V19.39a.99.99,0,0,0,1,.956l.117.006c.043,0,.082,0,.123-.006a.99.99,0,0,0,1-.957V7.867a2.858,2.858,0,0,1,1.024-1.992,3.437,3.437,0,0,0,1.3-2.469A3.407,3.407,0,0,0,74.237,0m0,4.98A1.574,1.574,0,1,1,75.81,3.406a1.573,1.573,0,0,1-1.573,1.573" transform="translate(-44.334 0.001)" fill="#00a7de"/>
    <path id="패스_551" data-name="패스 551" d="M39.06,60.209s-.076-.006-.109-.006-.087,0-.131.007a.99.99,0,0,0-1,.955V79.579a.99.99,0,0,0,1,.955c.043,0,.086.007.131.007s.1-.005.109-.006a.991.991,0,0,0,1.006-.956V61.165a.991.991,0,0,0-1.006-.956" transform="translate(-23.674 -37.683)" fill="#636162"/>
    <path id="패스_552" data-name="패스 552" d="M190.814,60.209s-.076-.006-.109-.006-.087,0-.131.007a.989.989,0,0,0-1,.955V79.579a.989.989,0,0,0,1,.955c.043,0,.086.007.131.007s.1-.005.109-.006a.992.992,0,0,0,1.007-.956V61.165a.992.992,0,0,0-1.007-.956" transform="translate(-118.661 -37.683)" fill="#636162"/>
    <path id="패스_553" data-name="패스 553" d="M91.409,60.209s-.077-.006-.11-.006-.088,0-.131.007a.989.989,0,0,0-1,.955V79.579a.99.99,0,0,0,1,.955c.044,0,.086.007.131.007s.1-.005.11-.006a.99.99,0,0,0,1.006-.956V61.165a.991.991,0,0,0-1.006-.956" transform="translate(-56.44 -37.683)" fill="#636162"/>
    <path id="패스_554" data-name="패스 554" d="M78.081,60.209s-.076-.006-.109-.006-.087,0-.131.007a.988.988,0,0,0-1,.955V84.037a.988.988,0,0,0,1,.955c.043,0,.086.006.131.006s.1-.005.11-.006a.99.99,0,0,0,1.006-.956V61.165a.991.991,0,0,0-1.006-.956" transform="translate(-48.099 -37.683)" fill="#636162"/>
    <path id="패스_555" data-name="패스 555" d="M119.177,91.43a.8.8,0,0,0-.772-.813h-8.159V86.358H108v4.259H99.978a.8.8,0,0,0-.772.813s0,.062,0,.088,0,.071.006.105a.8.8,0,0,0,.771.806H118.4a.8.8,0,0,0,.772-.806c0-.035.005-.069.005-.106s0-.084,0-.088" transform="translate(-62.092 -54.054)" fill="#636162"/>
    <path id="패스_556" data-name="패스 556" d="M121.5,73a.8.8,0,0,0-.745-.79c-.027,0-.074-.008-.1-.008l-9.73.006a.243.243,0,0,1-.243-.243V67.239a.243.243,0,0,1,.243-.242h9.456l.09,0a.8.8,0,0,0,.746-.814.358.358,0,0,0,0-.044c0-.061,0-.119-.008-.178a.822.822,0,0,0-.6-.76,1.648,1.648,0,0,0-.239-.021H110.217a1.75,1.75,0,0,0-1.259.46,1.5,1.5,0,0,0-.511,1.179V72.4a1.513,1.513,0,0,0,.532,1.178,1.745,1.745,0,0,0,1.257.46h10.394a1.061,1.061,0,0,0,.42-.091l.038-.018a.739.739,0,0,0,.08-.053l.027-.018a0,0,0,0,1,0,0h0a.95.95,0,0,0,.309-.647s0-.034,0-.06c0-.05,0-.1-.007-.148" transform="translate(-67.88 -40.796)" fill="#636162"/>
    <path id="패스_557" data-name="패스 557" d="M214,41.827l.245-1.389h-1.424l-.245,1.389h-.464l.546-3.1h.465l-.221,1.252h1.425l.22-1.252h.465l-.546,3.1Z" transform="translate(-132.764 -24.243)" fill="#636162"/>
    <path id="패스_558" data-name="패스 558" d="M221.947,43.04l.04-.23a1.09,1.09,0,0,1-.686.279.616.616,0,0,1-.667-.783.958.958,0,0,1,1.058-.752,1.171,1.171,0,0,1,.5.088l.03-.172c.045-.253-.085-.394-.368-.394a1.321,1.321,0,0,0-.632.146l-.116-.345a1.628,1.628,0,0,1,.833-.208c.518,0,.827.252.735.778l-.281,1.592Zm.174-.991a1.03,1.03,0,0,0-.513-.1c-.292,0-.5.133-.539.345-.04.23.079.385.38.385a.893.893,0,0,0,.613-.3Z" transform="translate(-138.091 -25.456)" fill="#636162"/>
    <path id="패스_559" data-name="패스 559" d="M228.935,41.2a.6.6,0,0,0-.334-.084c-.288,0-.492.2-.562.6l-.233,1.327h-.456l.409-2.322h.456l-.039.221a.784.784,0,0,1,.578-.269.586.586,0,0,1,.377.1Z" transform="translate(-142.304 -25.456)" fill="#636162"/>
    <path id="패스_560" data-name="패스 560" d="M235.226,43.04l.232-1.314c.083-.469-.034-.637-.334-.637s-.486.217-.552.593l-.239,1.357h-.455l.232-1.314c.082-.469-.034-.637-.335-.637s-.485.217-.551.593l-.24,1.357h-.456l.409-2.322h.456l-.039.221a.789.789,0,0,1,.6-.269.541.541,0,0,1,.576.34.98.98,0,0,1,.772-.34c.539,0,.734.354.613,1.039l-.235,1.331Z" transform="translate(-145.545 -25.456)" fill="#636162"/>
    <path id="패스_561" data-name="패스 561" d="M243.962,43.089c-.583,0-.937-.482-.809-1.207a1.328,1.328,0,0,1,1.248-1.212c.593,0,.952.472.824,1.2a1.334,1.334,0,0,1-1.264,1.221m.345-1.986c-.345,0-.611.305-.692.765-.089.509.1.787.441.787s.631-.349.706-.773c.084-.474-.088-.779-.455-.779" transform="translate(-152.179 -25.457)" fill="#636162"/>
    <path id="패스_562" data-name="패스 562" d="M251.334,43.04l.232-1.314c.082-.469-.065-.637-.365-.637s-.516.217-.582.593l-.239,1.357h-.455l.409-2.322h.456l-.039.221a.853.853,0,0,1,.631-.269c.539,0,.765.354.643,1.039l-.235,1.331Z" transform="translate(-156.433 -25.456)" fill="#636162"/>
    <path id="패스_563" data-name="패스 563" d="M256.958,41.635l.409-2.322h.456l-.41,2.322Zm.693-2.623a.24.24,0,0,1-.245-.292.369.369,0,0,1,.348-.3.242.242,0,0,1,.241.3.368.368,0,0,1-.343.292" transform="translate(-160.837 -24.051)" fill="#636162"/>
    <path id="패스_564" data-name="패스 564" d="M261.284,43.089c-.584,0-.937-.482-.808-1.207a1.328,1.328,0,0,1,1.249-1.212c.592,0,.951.472.823,1.2a1.335,1.335,0,0,1-1.264,1.221m.345-1.986c-.345,0-.61.305-.692.765-.09.509.1.787.441.787s.632-.349.708-.773c.083-.474-.089-.779-.457-.779" transform="translate(-163.022 -25.457)" fill="#636162"/>
    <path id="패스_565" data-name="패스 565" d="M268.848,43.122l.039-.221a.854.854,0,0,1-.631.269c-.54,0-.765-.353-.644-1.039l.235-1.331h.456l-.231,1.313c-.083.469.064.637.365.637s.515-.217.582-.593l.24-1.357h.455l-.41,2.322Z" transform="translate(-167.485 -25.538)" fill="#636162"/>
    <path id="패스_566" data-name="패스 566" d="M274.808,43.089a1.358,1.358,0,0,1-.836-.3l.269-.345a1.039,1.039,0,0,0,.636.23c.288,0,.44-.093.47-.257s-.157-.26-.471-.389c-.466-.195-.618-.362-.553-.73a.822.822,0,0,1,.9-.632,1.179,1.179,0,0,1,.742.257l-.261.349a.862.862,0,0,0-.566-.2c-.222,0-.335.088-.356.212s.045.2.369.336c.483.2.723.341.646.778a.889.889,0,0,1-.993.686" transform="translate(-171.486 -25.457)" fill="#636162"/>
    <path id="패스_567" data-name="패스 567" d="M286.079,40.6l-.217,1.225H285.4l.217-1.225-.78-1.871h.544l.331.853c.073.191.177.5.209.615.074-.114.281-.411.426-.61l.639-.858h.535Z" transform="translate(-178.285 -24.243)" fill="#636162"/>
    <path id="패스_568" data-name="패스 568" d="M291.766,43.089c-.584,0-.937-.482-.809-1.207a1.328,1.328,0,0,1,1.249-1.212c.593,0,.952.472.823,1.2a1.334,1.334,0,0,1-1.263,1.221m.345-1.986c-.345,0-.611.305-.692.765-.089.509.1.787.441.787s.631-.349.707-.773c.083-.474-.089-.779-.456-.779" transform="translate(-182.101 -25.457)" fill="#636162"/>
    <path id="패스_569" data-name="패스 569" d="M299.137,43.04l.232-1.314c.083-.469-.065-.637-.365-.637s-.516.217-.583.593l-.24,1.357h-.455l.41-2.322h.455l-.039.221a.856.856,0,0,1,.631-.269c.539,0,.765.354.644,1.039l-.235,1.331Z" transform="translate(-186.354 -25.456)" fill="#636162"/>
    <path id="패스_570" data-name="패스 570" d="M305.422,43.894l-.093-.345c.66-.031.833-.208.917-.689l.007-.04a1.05,1.05,0,0,1-.649.269c-.5,0-.83-.362-.673-1.247.141-.8.645-1.171,1.121-1.171a.663.663,0,0,1,.533.264l.038-.216h.456l-.371,2.1a1.134,1.134,0,0,1-1.286,1.074m1.091-2.5a.6.6,0,0,0-.49-.306c-.327,0-.548.248-.634.739-.1.584.038.841.373.841a.881.881,0,0,0,.579-.3Z" transform="translate(-190.84 -25.457)" fill="#636162"/>
    <path id="패스_571" data-name="패스 571" d="M312.266,43.089a1.358,1.358,0,0,1-.837-.3l.269-.345a1.042,1.042,0,0,0,.637.23c.287,0,.44-.093.47-.257s-.158-.26-.471-.389c-.466-.195-.618-.362-.553-.73a.823.823,0,0,1,.9-.632,1.178,1.178,0,0,1,.741.257l-.261.349a.863.863,0,0,0-.566-.2c-.222,0-.335.088-.356.212s.045.2.369.336c.483.2.723.341.646.778a.888.888,0,0,1-.992.686" transform="translate(-194.931 -25.457)" fill="#636162"/>
    <path id="패스_572" data-name="패스 572" d="M319.093,43.04l.041-.23a1.091,1.091,0,0,1-.686.279.617.617,0,0,1-.667-.783.959.959,0,0,1,1.057-.752,1.164,1.164,0,0,1,.5.088l.031-.172c.046-.253-.085-.394-.368-.394a1.319,1.319,0,0,0-.631.146l-.116-.345a1.625,1.625,0,0,1,.832-.208c.518,0,.827.252.734.778l-.28,1.592Zm.175-.991a1.033,1.033,0,0,0-.513-.1c-.291,0-.5.133-.539.345-.04.23.078.385.379.385a.893.893,0,0,0,.614-.3Z" transform="translate(-198.897 -25.456)" fill="#636162"/>
    <path id="패스_573" data-name="패스 573" d="M325.908,43.04l.232-1.314c.082-.469-.065-.637-.366-.637s-.516.217-.582.593l-.239,1.357H324.5l.409-2.322h.456l-.039.221a.857.857,0,0,1,.633-.269c.539,0,.764.354.643,1.039l-.235,1.331Z" transform="translate(-203.111 -25.456)" fill="#636162"/>
  </g>
</svg>
