<svg xmlns="http://www.w3.org/2000/svg" xmlns:xlink="http://www.w3.org/1999/xlink" width="119.55" height="31.246" viewBox="0 0 119.55 31.246">
  <defs>
    <clipPath id="clip-path">
      <rect id="사각형_452" data-name="사각형 452" width="119.55" height="31.246" fill="none"/>
    </clipPath>
  </defs>
  <g id="그룹_2688" data-name="그룹 2688" transform="translate(0 -0.001)">
    <g id="그룹_2687" data-name="그룹 2687" transform="translate(0 0)" clip-path="url(#clip-path)">
      <path id="패스_750" data-name="패스 750" d="M234.191,14.948a11.3,11.3,0,0,1-21.972-3.691A11.037,11.037,0,0,1,223.475,0a11.315,11.315,0,0,1,10.987,7.924c.27,1.26-.135,1.4-.811,1.53a3.979,3.979,0,0,1-2.476-.405,8.851,8.851,0,0,1-1.8-1.936,6.727,6.727,0,0,0-5.9-3.287,7.407,7.407,0,0,0,0,14.813,7.3,7.3,0,0,0,6.3-3.692,3.934,3.934,0,0,1,2.341-1.666c1.8-.4,2.207.135,2.207.135s.4.136-.135,1.531" transform="translate(-139.766 0)" fill="#005386"/>
      <path id="패스_751" data-name="패스 751" d="M83.947,3.827a7.407,7.407,0,0,1,0,14.813v3.873A11.038,11.038,0,0,0,95.2,11.256,11.01,11.01,0,0,0,83.947,0Zm0,14.813a7.408,7.408,0,0,1,0-14.813V0A11.037,11.037,0,0,0,72.691,11.256,11.065,11.065,0,0,0,83.947,22.513Z" transform="translate(-47.874 0)" fill="#005386"/>
      <path id="패스_752" data-name="패스 752" d="M295.482,3.827a7.408,7.408,0,0,1,0,14.813v3.873a11.065,11.065,0,0,0,11.256-11.256A11.037,11.037,0,0,0,295.482,0Zm0,0h0V0a11.01,11.01,0,0,0-11.256,11.256,11.038,11.038,0,0,0,11.256,11.256V18.64a7.407,7.407,0,0,1,0-14.813" transform="translate(-187.189 0)" fill="#005386"/>
      <path id="패스_753" data-name="패스 753" d="M159.739,13.281c1.4.135,1.666.72,1.261,1.8-.81,2.072-3.692,3.692-6.3,3.692a7.355,7.355,0,0,1-5.763-2.747,4.519,4.519,0,0,0-4.007-1.08c-.675.271-.4,1.352-.135,1.936a11.518,11.518,0,0,0,19.631.27c2.071-3.423,1.216-7.7-3.692-7.7l-10.986-.135c-1.666,0-1.8-.946-1.4-2.071a7.5,7.5,0,0,1,6.619-3.557c2.882,0,4.368,1.8,5.358,2.746a4.7,4.7,0,0,0,4.1.811c.54-.27.405-.946,0-1.756A10.952,10.952,0,0,0,154.7,0a11.4,11.4,0,0,0-9.635,5.042c-1.891,3.061-1.756,8.1,5.088,8.1Z" transform="translate(-94.849 0)" fill="#005386"/>
      <path id="패스_754" data-name="패스 754" d="M11.265,22.512A11.065,11.065,0,0,0,22.521,11.256,11.037,11.037,0,0,0,11.265,0V3.827a7.342,7.342,0,0,1,7.249,7.43,7.42,7.42,0,0,1-7.249,7.383ZM11.265,0A11.01,11.01,0,0,0,.009,11.256v14.9a6.521,6.521,0,0,0,.675,3.287,4.225,4.225,0,0,0,2.612,1.8c.675-.134.811-.99.811-.99V20.036a11.762,11.762,0,0,0,7.159,2.477V18.64a7.428,7.428,0,0,1-7.294-7.383,7.351,7.351,0,0,1,7.294-7.43Z" transform="translate(0 0)" fill="#005386"/>
    </g>
  </g>
</svg>
