<svg id="그룹_2517" data-name="그룹 2517" xmlns="http://www.w3.org/2000/svg" xmlns:xlink="http://www.w3.org/1999/xlink" width="120.919" height="33.152" viewBox="0 0 120.919 33.152">
  <defs>
    <clipPath id="clip-path">
      <rect id="사각형_326" data-name="사각형 326" width="120.919" height="33.152" fill="none"/>
    </clipPath>
  </defs>
  <g id="그룹_2506" data-name="그룹 2506" transform="translate(0 0)" clip-path="url(#clip-path)">
    <path id="패스_376" data-name="패스 376" d="M23.375,5.726a.764.764,0,0,1,.155.285c.094.289.361.462.393.756.011.1.139.137.2.179.071.094.022.2.161.334.066.041.016.147.027.245.066.043.134.087.2.131a2.612,2.612,0,0,1-.037,3.028,1.062,1.062,0,0,0-.262.422c-.055.055-.172.116-.229.17.012.1.078.14.149.236-.3.077-.333.327-.562.5l-.245.022a2.9,2.9,0,0,1-.518.346c-.055.055-.039.2-.034.252a1.8,1.8,0,0,1-1.136.355c-.059.006-.1.158-.165.164-.307.029-.679.014-.985.042-.128-.037-.2-.128-.329-.167a.966.966,0,0,1-.372-.014,3.389,3.389,0,0,0-.647-.238c-.127-.039-.36.083-.492,0A5.28,5.28,0,0,1,17.6,11.675c-.15-.234-.4-.308-.494-.548-.011-.1.036-.25-.093-.288-.257-.076-.149-.234-.166-.383a1.161,1.161,0,0,0-.227-.375c-.077-.141.024-.348-.057-.539-.006-.049.05-.1.045-.154-.095-.288.057-.6.029-.845a1.424,1.424,0,0,1,.067-.5,4.367,4.367,0,0,1,.572-1c-.007-.048-.017-.147-.022-.2.055-.055.117-.06.173-.116a2.436,2.436,0,0,1,.358-.677c.218-.269.564-.5.842-.774a2.627,2.627,0,0,0,.557-.549c.055-.055.25.026.307-.028.167-.163.417-.138.59-.254s.138.136.316.069a.7.7,0,0,0,.294-.125c.178-.067.378.063.568.094a.873.873,0,0,1,.573.145c.266.175.878.115.977.455.149.233.415.406.564.639" transform="translate(-4.952 -1.308)" fill="#b20023"/>
    <path id="패스_377" data-name="패스 377" d="M33.928,8.3a1.063,1.063,0,0,0-.062-.409c-.017-.154.106-.323.052-.533-.033-.055-.113-.123-.1-.17a2.453,2.453,0,0,0,.086-.969A.684.684,0,0,0,33.8,6c.008-.047.027-.141.044-.237a2.174,2.174,0,0,0-.174-.78c-.025-.1-.1-.171-.121-.322-.034-.057-.112-.125-.1-.172a3.382,3.382,0,0,0-.192-1.177c-.1-.465-.536-.76-.675-1.234.007-.048.151-.029.2-.019A2.425,2.425,0,0,1,33.6,3.229c.06.164.034.3.105.419a2.349,2.349,0,0,1,.4,1.274c-.008.048.087.018.121.076a.316.316,0,0,0,.009.2c.225.246.087.511.132.768a.639.639,0,0,0,.093.219c-.008.049-.121.173-.131.218a1.085,1.085,0,0,1,.211.836c.208.1.113.372.163.58a.158.158,0,0,0,.123.076.717.717,0,0,0,.137-.266,4.183,4.183,0,0,0-.026-1.092.4.4,0,0,1,.034-.437c-.086-.02-.114-.124-.147-.181-.156-.627-.221-1.329-.405-1.97a.173.173,0,0,0,.06-.086,8.615,8.615,0,0,0-.7-1.655c-.032-.1-.2-.223-.273-.329,0,0,.006-.048.011-.1a.859.859,0,0,1,.5.4,3.044,3.044,0,0,1,.561,1.047,8.444,8.444,0,0,1,.372.977,1.9,1.9,0,0,0,.3.52,1.692,1.692,0,0,1,.042.457c.062.362.172.713.241,1.075a1.261,1.261,0,0,1,.036.8c-.121.417.156.874.269,1.244a.615.615,0,0,1-.086.476c-.008.046.069.113.06.161-.078.18-.015.343-.051.533-.051.037.06.161,0,.245-.051.039-.094.031-.147.069-.069.133-.008.294-.034.437-.139.264-.069.625-.328.816-.1.028-.1.076-.157.114.044.009.079.067.112.124-.051.037-.1.027-.147.066-.016.094.168.212.2.268-.069.38-.353.713-.345,1.161-.018.094-.043.236-.06.332-.087.226-.252.389-.338.616-.017.1-.2.105-.217.2-.112.123-.1.323-.182.5-.06.085-.189.057-.294.133a2.164,2.164,0,0,0-.182.5c-.13.218-.287.454-.417.672a2.771,2.771,0,0,1-.664.852.315.315,0,0,0-.191.057,1.194,1.194,0,0,1-.59.6c-.044-.008-.109.2-.161.236a5.158,5.158,0,0,1-.565.466c-.091.028-.143.067-.245-.1A5.116,5.116,0,0,1,29.6,19.247c-.243.142-.491.126-.653.287a13.482,13.482,0,0,1-1.472,1.156c-.041-.01-.2.232-.2.232-.172.015-.074.032-.232-.006,0,0-.008.269-.224.313-.458.09-.579.621-.613.841-.02.109-.095.036-.148.08s-.017.109-.069.154a2.941,2.941,0,0,0-.536.553c-.05.044-.086-.022-.138.023a1.943,1.943,0,0,0-.381.609,4.832,4.832,0,0,1-.722,1.205c-.071.08.161.389.144.494-.067.146-.2.17-.263.316-.059.363-.076.768-.137,1.152a2.041,2.041,0,0,0,.076.975,6.72,6.72,0,0,1,0,.92c.02.222.17.461.146.675.007.329-.067.286,0,.562a1.39,1.39,0,0,0-.025.432c-.014.217-.048.351-.06.564-.047.054-.14.154-.143.209a2.186,2.186,0,0,1-.756,1.37c-.231.148-.429.372-.691.354a6.164,6.164,0,0,0-.718.306,2.431,2.431,0,0,1-1.07.06,1.518,1.518,0,0,1-1.02-.634c-.167-.187-.455-.118-.564-.405-.034-.114-.271-.172-.311-.233a3.219,3.219,0,0,1-.489-.668c-.109-.286-.03-.482-.16-.761-.135-.171-.193-.291-.327-.463-.179-.226.042-.552-.09-.776a.625.625,0,0,1-.223-.285,5.547,5.547,0,0,0-.2-.778,6.522,6.522,0,0,1,.027-1.573c.011-.055-.147-.134-.139-.189a8.61,8.61,0,0,0,.129-1.186c.04-.219.021-.395.219-.581,0,0-.093-.077-.083-.132a5.113,5.113,0,0,0,.177-.893c.011-.054.125-.088.136-.144a2.954,2.954,0,0,1-.025-.953c.022-.111.3-.273.372-.373a.661.661,0,0,1,.064-.385c.027-.047.1-.033.157-.077.009-.055-.028-.12-.018-.175.028-.165.3-.283.326-.393a2.871,2.871,0,0,1,.493-.834,1.523,1.523,0,0,1,.214-.4c.05-.038.078,0,.087-.051s-.016-.151-.009-.2c.11-.124.263-.236.287-.379A1.524,1.524,0,0,1,20,18.725a1.835,1.835,0,0,0,.532-.522c.109-.124.237-.095.347-.219a3.459,3.459,0,0,0,.321-.571,5,5,0,0,1,.888-.789,7.272,7.272,0,0,1,.821-.409c.254-.189.406-.55.652-.693.151-.113.328-.124.482-.238s.278-.333.506-.381a2.167,2.167,0,0,0,.618-.18c.3-.179.173-.231.468-.412a7.36,7.36,0,0,1,.787-.457.249.249,0,0,0,.118-.172,3.783,3.783,0,0,1,.84-.639c.093-.029.2.095.312-.029.06-.086-.06-.161,0-.247a5.123,5.123,0,0,1,.472-.494c.052-.037.173.039.267.009.053-.038.069-.132.122-.17.062-.087-.053-.208.008-.294.07-.135.139-.266.234-.294.148-.067.347-.172.321-.276a.617.617,0,0,1,.311-.477c.008-.046.018-.1.025-.143.112-.123.217-.2.329-.321.121-.171.068-.38.139-.514a1.583,1.583,0,0,0,.5-.778c-.017-.152-.112-.371-.044-.505.06-.084.251-.141.269-.236a3.011,3.011,0,0,0-.069-.608c.025-.142.181-.257.164-.409a11.309,11.309,0,0,0-.052-1.2c.137-.018.156-.114.172-.21a8.209,8.209,0,0,0-.284-.9c-.01-.2.154-.362.146-.561a.87.87,0,0,0-.322-.465c-.147-.181-.051-.455-.1-.664-.043-.257-.236-.448-.27-.751-.018-.152-.2-.142-.259-.3a2.624,2.624,0,0,1-.1-.665c-.027-.105-.165-.086-.243-.152-.175-.285-.113-.865-.494-1C28.961.2,28.79.161,28.727,0a.585.585,0,0,1,.563.37c.034.056.164.086.208.095.114.123.105.418.226.495.155.132.388.085.449.247.087.265.287.407.383.627a.394.394,0,0,0,.05.208c.158.133.175.285.285.408.261.3.521.609.4,1.026-.076.181.158.134.228.247.173.284.1.665.329.911a3.32,3.32,0,0,0,.339,1.359,1.673,1.673,0,0,0,.088,1.462s.138-.018.148-.066c.042-.237.475-.317.4-.431A4.929,4.929,0,0,1,32.61,5.89a5.112,5.112,0,0,0-.018-1.141c-.034-.057-.069-.114-.1-.17a1.5,1.5,0,0,1-.062-.656c-.025-.1-.1-.17-.128-.276.008-.046.025-.141.033-.189.1-.028.218.048.3.068.079.065.007.2.043.255.139.227.346.323.389.58-.008.046-.024.142-.033.19.035.3.216.542.26.8.018.153-.111.37-.051.532a2.364,2.364,0,0,1,.175,1.272c-.036.19.206.343.137.475s.019.153-.052.286c-.008.048-.1.075-.111.123.129.276-.067.693-.11.932-.008.047.147.1.179-.077.02-.105.2-.105.294-.132a.56.56,0,0,0,.173-.457m.933.949c.008-.242.122-.417.078-.673-.087-.266-.283,0-.422.016a1.291,1.291,0,0,1-.145.806c-.06.086-.1.323.034.3.217.048.448-.16.456-.454m-.371,1.3a.25.25,0,0,0-.049-.294c-.12-.076-.278.038-.346.171s-.018.342.165.332c.042.01.169-.122.231-.209" transform="translate(-5.148 0)" fill="#0070be"/>
    <path id="패스_378" data-name="패스 378" d="M37.862,3.092c.231.174.322.466.5.7l-.02.1c-.318.274-.6-.184-.684-.448a2.085,2.085,0,0,0-.495-.75c.011-.048.019-.1.029-.143-.114-.123-.26-.3-.114-.371.06-.085.165.086.286.162.182.238.216.541.494.75" transform="translate(-11.068 -0.645)" fill="#0070be"/>
    <path id="패스_379" data-name="패스 379" d="M39.788,1.523c0,.048-.075.131-.086.178a1.987,1.987,0,0,1-.432-.512c-.042-.013-.128-.034-.161-.093-.042-.012-.034-.058-.022-.105.137-.013.247.114.365.2.043.011.1-.024.14-.013a.444.444,0,0,1,.2.35" transform="translate(-11.682 -0.296)" fill="#0070be"/>
    <path id="패스_380" data-name="패스 380" d="M8.558,14.1a1.013,1.013,0,0,1,.137.132.214.214,0,0,0,.217.017c.071.006.135.193.208.2.105.05.17.234.272.323.069.044.142.111.211.157a2.328,2.328,0,0,0,.264.34c.067.084.178.055.251.06.141.052.2.256.3.384.036,0,.1.128.1.168a1.62,1.62,0,0,0,.241.178c.032.043.028.122.06.165a12.6,12.6,0,0,1,.825,1.143.474.474,0,0,1,.027.123,7.861,7.861,0,0,1,.621.927,4.88,4.88,0,0,1,.181.493c.067.086.137.132.2.217a1.509,1.509,0,0,1,.213.576c0,.077-.058.313-.195.182-.168-.173-.151-.409-.323-.543a.393.393,0,0,0-.078-.186c-.069-.081-.192-.077-.222-.2.009-.119-.125-.217-.193-.3-.172-.246-.423-.338-.629-.587a.129.129,0,0,0-.111.034c-.038.078-.151.191-.048.315.142.087.208.25.386.338.106.084.132.325.2.527a.687.687,0,0,0,.247.21c.1.083.063.21.162.339,0,.041-.041.076-.046.115.066.126.21.1.311.224.076-.072.184-.014.247.1-.117.111-.088.193-.132.31-.123.188.155.37.327.463.11.009.1.207.2.294.064.125.245.14.341.308.031.082-.045.116-.087.192-.008.118.133.17.2.215a.4.4,0,0,1,.13.211c-.111.029-.325-.117-.434-.128-.067-.031-.2-.188-.336-.217-.048-.011-.083.1-.132.093l-.208-.039c-.076-.013-.261-.216-.339-.228s-.2.15-.289.135a1.326,1.326,0,0,1-.442-.121,2.886,2.886,0,0,1-.344-.166c-.071-.039-.051-.132-.117-.174s-.208-.043-.274-.084c-.261-.16-.507-.522-.73-.637-.147-.076-.271-.152-.434-.229-.081-.05-.137-.162-.238-.195-.306-.1-.551-.3-.9-.4a2.36,2.36,0,0,0-1.751.47.21.21,0,0,0-.114.015,3.559,3.559,0,0,1-.394.244,4.731,4.731,0,0,1-.583.276c-.059.034-.065.141-.122.176-.088.052-.244.063-.33.115s-.088.144-.165.2a2.364,2.364,0,0,1-.513.325,8.526,8.526,0,0,1-1.277.233c-.256,0-.434.216-.815.215a2.623,2.623,0,0,1-1.643-.375c-.1-.088-.122-.329-.19-.374-.208-.137-.188-.413-.247-.619-.068-.044-.212-.055-.2-.176a2.987,2.987,0,0,1,.73-1.535c.085-.155.271-.218.285-.416a5.719,5.719,0,0,1,.518-.635c.042-.076-.022-.2.02-.278a9.132,9.132,0,0,1,1.27-1.493c.117-.11.2-.264.385-.289.074.006.144.012.185-.064a.858.858,0,0,1,.355-.37c.421-.286.771-.716,1.251-.8.074-.034.117-.109.191-.145.08-.073.217.018.292-.015.357-.161.682-.505,1.049-.556.074-.034.118-.11.152-.107.325.028.708-.26,1.014.044a1.2,1.2,0,0,1,.859.148m2.489,3.482c0-.039,0-.079,0-.118-.141-.087-.2-.329-.385-.376-.035,0-.109.034-.111.074a1.194,1.194,0,0,0,.195.606c.042-.156.149-.151.217-.029a.321.321,0,0,0,.081-.156" transform="translate(0 -4.129)" fill="#25832a"/>
    <path id="패스_381" data-name="패스 381" d="M58.8,20.9l-1.485,1.546L53.188,18.42a9.5,9.5,0,0,1-1.941,2.452A12.991,12.991,0,0,1,49,22.51l-1.444-1.649a8.654,8.654,0,0,0,2.084-1.423,8.3,8.3,0,0,0,1.414-1.71,6.985,6.985,0,0,0,1.059-3.66V11.218h2.278v2.441a9.708,9.708,0,0,1-.092,1.364c-.061.434-.14.855-.234,1.262Zm4.719,7H61.366V17h-4.5V14.92h4.5V9.388h2.157Z" transform="translate(-14.216 -2.807)" fill="#1a1311"/>
    <path id="패스_382" data-name="패스 382" d="M90.74,19.744H83.029v1.017h3.824v4.78H79.469v.917h7.873v2.072H77.232V23.567H84.6v-.813H77.13V20.761h3.723V19.744H73.3V17.71H90.74Zm-4.07-6.551a3.4,3.4,0,0,1-.376,1.6,4.093,4.093,0,0,1-1.005,1.252,5,5,0,0,1-1.538.793,6.587,6.587,0,0,1-3.763.019,4.844,4.844,0,0,1-1.537-.773,3.767,3.767,0,0,1-1.027-1.23,3.5,3.5,0,0,1-.376-1.638,3.7,3.7,0,0,1,.365-1.658,3.8,3.8,0,0,1,1.017-1.272,4.47,4.47,0,0,1,1.507-.813,6.382,6.382,0,0,1,3.774,0,4.7,4.7,0,0,1,1.537.813,3.8,3.8,0,0,1,1.036,1.251,3.55,3.55,0,0,1,.386,1.659m-2.237-.02a1.746,1.746,0,0,0-.773-1.505,3.074,3.074,0,0,0-1.83-.55,3.037,3.037,0,0,0-1.841.54,1.762,1.762,0,0,0-.743,1.515,1.7,1.7,0,0,0,.743,1.465,3.089,3.089,0,0,0,1.841.528,3.356,3.356,0,0,0,1.83-.487,1.656,1.656,0,0,0,.773-1.506" transform="translate(-21.915 -2.746)" fill="#1a1311"/>
    <path id="패스_383" data-name="패스 383" d="M116.876,21.4H99.462V19.344h17.414Zm-3.784,7.456h-2.177V24.614h-7.792V22.539h9.969Zm-.041-10.569h-9.846V10.272h9.724v2.055h-7.568V13.2h7.325v2.075h-7.325v.956h7.69Z" transform="translate(-29.734 -3.071)" fill="#1a1311"/>
    <path id="패스_384" data-name="패스 384" d="M134.7,18.848h-8.278V10.385h2.155v2.44h3.946v-2.44H134.7Zm-2.177-3.968H128.58v1.913h3.946Zm8.3,13.712h-9.988V23.485H138.1V22.429h-7.363V20.373h9.6V25.48h-7.221v1.058h7.709Zm.163-8.809h-2.136V17.81h-3.5V15.775h3.5V14.311h-3.5V12.256h3.5V9.388h2.136Z" transform="translate(-37.795 -2.807)" fill="#1a1311"/>
    <path id="패스_385" data-name="패스 385" d="M161.331,20.963l-1.483,1.546-4.11-4.049a9.054,9.054,0,0,1-1.922,2.472,12.3,12.3,0,0,1-2.29,1.638l-1.443-1.648a9.953,9.953,0,0,0,2.105-1.484,8.709,8.709,0,0,0,1.415-1.689,7.5,7.5,0,0,0,.782-1.811,6.766,6.766,0,0,0,.254-1.811V11.218h2.278v2.5a9.439,9.439,0,0,1-.092,1.352c-.06.427-.139.838-.235,1.232Zm4.455,6.937H163.61V9.388h2.176Z" transform="translate(-44.867 -2.807)" fill="#1a1311"/>
    <path id="패스_386" data-name="패스 386" d="M51.165,44.589a.936.936,0,0,1-.376.819,1.771,1.771,0,0,1-1.028.266,2.14,2.14,0,0,1-.252-.015l-.248-.036c-.083-.018-.163-.036-.24-.054s-.152-.039-.221-.059v-.547c.041.017.094.037.154.065a1.867,1.867,0,0,0,.219.073,2.607,2.607,0,0,0,.287.062,2.087,2.087,0,0,0,.352.026,1.4,1.4,0,0,0,.28-.026.7.7,0,0,0,.243-.092.469.469,0,0,0,.23-.424.494.494,0,0,0-.059-.253.532.532,0,0,0-.151-.176.977.977,0,0,0-.2-.131c-.076-.037-.148-.072-.218-.11-.121-.053-.247-.115-.382-.184a2.616,2.616,0,0,1-.381-.235,1.158,1.158,0,0,1-.288-.3.681.681,0,0,1-.116-.393.844.844,0,0,1,.346-.741,1.514,1.514,0,0,1,.886-.24,1.935,1.935,0,0,1,.259.018c.085.011.17.027.252.043l.226.057c.074.021.139.036.2.05v.552a2.018,2.018,0,0,0-.392-.143,2.59,2.59,0,0,0-.579-.088.758.758,0,0,0-.428.114.379.379,0,0,0-.169.338.343.343,0,0,0,.046.183.509.509,0,0,0,.123.137.875.875,0,0,0,.175.113c.067.034.136.069.21.109l.382.179c.081.05.172.1.271.152a1.832,1.832,0,0,1,.282.184,1,1,0,0,1,.216.282.962.962,0,0,1,.1.423" transform="translate(-14.578 -12.522)" fill="#1a1311"/>
    <path id="패스_387" data-name="패스 387" d="M55.1,45.644H52.943V41.968h2.1v.489H53.506v1.018h1.476v.491H53.506v1.186H55.1Z" transform="translate(-15.827 -12.546)" fill="#1a1311"/>
    <path id="패스_388" data-name="패스 388" d="M59.833,43.772a2.677,2.677,0,0,1-.1.727,1.793,1.793,0,0,1-.3.606,1.476,1.476,0,0,1-.522.414,1.938,1.938,0,0,1-1.492.008,1.47,1.47,0,0,1-.522-.4,1.788,1.788,0,0,1-.318-.6,2.58,2.58,0,0,1-.106-.75,2.424,2.424,0,0,1,.106-.716,1.864,1.864,0,0,1,.318-.6,1.526,1.526,0,0,1,.522-.414,1.652,1.652,0,0,1,.73-.154,1.725,1.725,0,0,1,.728.146,1.469,1.469,0,0,1,.525.4,1.778,1.778,0,0,1,.316.6,2.524,2.524,0,0,1,.106.742m-.557-.006a2.163,2.163,0,0,0-.067-.545A1.443,1.443,0,0,0,59,42.77a1.084,1.084,0,0,0-.348-.3,1.024,1.024,0,0,0-.5-.116.967.967,0,0,0-.463.109,1,1,0,0,0-.351.3,1.4,1.4,0,0,0-.224.451,1.956,1.956,0,0,0-.076.566,2.28,2.28,0,0,0,.064.546,1.383,1.383,0,0,0,.2.46,1.033,1.033,0,0,0,.348.319.973.973,0,0,0,.5.121A.991.991,0,0,0,59,44.8a1.444,1.444,0,0,0,.207-.459,2.338,2.338,0,0,0,.067-.573" transform="translate(-16.885 -12.522)" fill="#1a1311"/>
    <path id="패스_389" data-name="패스 389" d="M64.7,44.257a2.048,2.048,0,0,1-.062.478,1.363,1.363,0,0,1-.215.468,1.188,1.188,0,0,1-.416.355,1.41,1.41,0,0,1-.666.14,1.466,1.466,0,0,1-.677-.137,1.087,1.087,0,0,1-.407-.348,1.3,1.3,0,0,1-.2-.468A2.463,2.463,0,0,1,62,44.257v-2.29h.572v2.281a1.975,1.975,0,0,0,.032.348.872.872,0,0,0,.119.311.618.618,0,0,0,.235.22.75.75,0,0,0,.383.086.8.8,0,0,0,.376-.081.694.694,0,0,0,.241-.22.92.92,0,0,0,.131-.311,1.663,1.663,0,0,0,.036-.353V41.967H64.7Z" transform="translate(-18.535 -12.546)" fill="#1a1311"/>
    <path id="패스_390" data-name="패스 390" d="M69.168,45.633H66.95V41.968h.569v3.174h1.65Z" transform="translate(-20.015 -12.547)" fill="#1a1311"/>
    <path id="패스_391" data-name="패스 391" d="M76.487,45.638h-.52V42.78h-.011l-.962,2.858h-.516l-.957-2.858h-.015v2.858h-.521v-3.67h.773l.977,2.958h.02l.965-2.958h.767Z" transform="translate(-21.819 -12.547)" fill="#1a1311"/>
    <path id="패스_392" data-name="패스 392" d="M81.27,45.644H79.119V41.968h2.1v.489H79.68v1.018h1.479v.491H79.68v1.186h1.59Z" transform="translate(-23.653 -12.546)" fill="#1a1311"/>
    <path id="패스_393" data-name="패스 393" d="M85.023,42.47H84v3.189h-.563V42.47H82.417v-.486h2.606Z" transform="translate(-24.639 -12.551)" fill="#1a1311"/>
    <path id="패스_394" data-name="패스 394" d="M89.193,45.644h-.578l-.149-.707a1.634,1.634,0,0,0-.206-.536.7.7,0,0,0-.334-.292.689.689,0,0,1-.092,0h-.39v-.489h.292a1.677,1.677,0,0,0,.288-.024.688.688,0,0,0,.249-.089.454.454,0,0,0,.179-.179.617.617,0,0,0,.066-.306.479.479,0,0,0-.075-.28.489.489,0,0,0-.2-.175.833.833,0,0,0-.264-.094,1.576,1.576,0,0,0-.3-.027h-.426v3.188h-.552V41.958h.981a2.63,2.63,0,0,1,.508.05,1.382,1.382,0,0,1,.454.165.925.925,0,0,1,.329.325,1.186,1.186,0,0,1-.028,1.112,1.041,1.041,0,0,1-.389.337,1.623,1.623,0,0,1,.276.329,1.3,1.3,0,0,1,.186.473Z" transform="translate(-25.922 -12.543)" fill="#1a1311"/>
    <path id="패스_395" data-name="패스 395" d="M94.1,43.772a2.733,2.733,0,0,1-.095.727,1.81,1.81,0,0,1-.3.606,1.456,1.456,0,0,1-.519.414,1.934,1.934,0,0,1-1.49.008,1.456,1.456,0,0,1-.525-.4,1.774,1.774,0,0,1-.318-.6,2.556,2.556,0,0,1-.107-.75,2.4,2.4,0,0,1,.107-.716,1.849,1.849,0,0,1,.318-.6,1.51,1.51,0,0,1,.525-.414,1.641,1.641,0,0,1,.728-.154,1.723,1.723,0,0,1,.728.146,1.451,1.451,0,0,1,.525.4,1.8,1.8,0,0,1,.316.6,2.524,2.524,0,0,1,.106.742m-.556-.006a2.132,2.132,0,0,0-.069-.545,1.4,1.4,0,0,0-.207-.451,1.074,1.074,0,0,0-.349-.3,1.011,1.011,0,0,0-.495-.116.955.955,0,0,0-.462.109.984.984,0,0,0-.349.3,1.4,1.4,0,0,0-.228.451,2.031,2.031,0,0,0-.076.566,2.392,2.392,0,0,0,.064.546,1.356,1.356,0,0,0,.2.46,1.046,1.046,0,0,0,.346.319.982.982,0,0,0,.5.121,1.024,1.024,0,0,0,.491-.111,1.013,1.013,0,0,0,.353-.308,1.4,1.4,0,0,0,.207-.459,2.3,2.3,0,0,0,.069-.573" transform="translate(-27.129 -12.522)" fill="#1a1311"/>
    <path id="패스_396" data-name="패스 396" d="M98.731,43.057a1.058,1.058,0,0,1-.125.542,1,1,0,0,1-.32.343,1.2,1.2,0,0,1-.436.183,2.3,2.3,0,0,1-.479.052h-.3v-.5h.3a1.61,1.61,0,0,0,.285-.027.766.766,0,0,0,.253-.091.574.574,0,0,0,.176-.192.609.609,0,0,0,.069-.309.471.471,0,0,0-.077-.28.565.565,0,0,0-.195-.184.885.885,0,0,0-.269-.1,1.583,1.583,0,0,0-.3-.03h-.423v3.186h-.552V41.968h.982a2.6,2.6,0,0,1,.508.051,1.379,1.379,0,0,1,.452.172.952.952,0,0,1,.454.865" transform="translate(-28.799 -12.546)" fill="#1a1311"/>
    <path id="패스_397" data-name="패스 397" d="M103.434,43.772a2.7,2.7,0,0,1-.1.727,1.8,1.8,0,0,1-.3.606,1.432,1.432,0,0,1-.521.414,1.931,1.931,0,0,1-1.489.008,1.439,1.439,0,0,1-.524-.4,1.737,1.737,0,0,1-.317-.6,2.51,2.51,0,0,1-.109-.75,2.359,2.359,0,0,1,.109-.716,1.808,1.808,0,0,1,.317-.6,1.492,1.492,0,0,1,.524-.414,1.641,1.641,0,0,1,.729-.154,1.712,1.712,0,0,1,.727.146,1.415,1.415,0,0,1,.523.4,1.771,1.771,0,0,1,.319.6,2.5,2.5,0,0,1,.107.742m-.557-.006a2.1,2.1,0,0,0-.07-.545,1.368,1.368,0,0,0-.206-.451,1.06,1.06,0,0,0-.349-.3,1,1,0,0,0-.494-.116.964.964,0,0,0-.463.109.994.994,0,0,0-.348.3,1.354,1.354,0,0,0-.226.451,1.956,1.956,0,0,0-.076.566,2.28,2.28,0,0,0,.062.546,1.4,1.4,0,0,0,.2.46,1.035,1.035,0,0,0,.347.319.978.978,0,0,0,.5.121.99.99,0,0,0,.843-.419,1.37,1.37,0,0,0,.206-.459,2.271,2.271,0,0,0,.07-.573" transform="translate(-29.919 -12.522)" fill="#1a1311"/>
    <path id="패스_398" data-name="패스 398" d="M107.885,45.633h-2.219V41.968h.566v3.174h1.652Z" transform="translate(-31.589 -12.547)" fill="#1a1311"/>
    <rect id="사각형_325" data-name="사각형 325" width="0.576" height="3.676" transform="translate(76.651 29.422)" fill="#1a1311"/>
    <path id="패스_399" data-name="패스 399" d="M113.387,42.47h-1.026v3.189H111.8V42.47H110.78v-.486h2.607Z" transform="translate(-33.118 -12.551)" fill="#1a1311"/>
    <path id="패스_400" data-name="패스 400" d="M117.662,45.634h-.62l-.374-1.08h-1.277l-.4,1.08h-.569l1.314-3.676h.6ZM116.5,44.065l-.444-1.448h-.021l-.486,1.448Z" transform="translate(-34.208 -12.543)" fill="#1a1311"/>
    <path id="패스_401" data-name="패스 401" d="M122.185,45.644h-.66L120.11,42.8h-.02v2.839h-.542V41.968h.674l1.407,2.852h.015V41.968h.542Z" transform="translate(-35.739 -12.546)" fill="#1a1311"/>
    <path id="패스_402" data-name="패스 402" d="M129.43,43.061h-.577a.907.907,0,0,0-.056-.343.535.535,0,0,0-.154-.219.6.6,0,0,0-.228-.118,1.083,1.083,0,0,0-.257-.041,1.049,1.049,0,0,0-.44.094,1,1,0,0,0-.352.273,1.285,1.285,0,0,0-.237.435,1.841,1.841,0,0,0-.085.582,2.363,2.363,0,0,0,.046.431,1.5,1.5,0,0,0,.179.48,1.217,1.217,0,0,0,.375.4,1.144,1.144,0,0,0,.642.172,1.853,1.853,0,0,0,.3-.024,1.436,1.436,0,0,0,.271-.069V44.13h-.88v-.5h1.442v1.79l-.123.02-.167.072a1.779,1.779,0,0,1-.227.076,2.151,2.151,0,0,1-.308.059,3.041,3.041,0,0,1-.406.024,1.561,1.561,0,0,1-1.305-.619,1.941,1.941,0,0,1-.308-.632,2.589,2.589,0,0,1-.1-.712,2.317,2.317,0,0,1,.1-.688,1.7,1.7,0,0,1,.316-.586,1.577,1.577,0,0,1,.527-.4,1.683,1.683,0,0,1,.741-.153,1.577,1.577,0,0,1,.484.074,1.178,1.178,0,0,1,.405.222,1.075,1.075,0,0,1,.276.372,1.224,1.224,0,0,1,.1.519" transform="translate(-37.81 -12.519)" fill="#1a1311"/>
    <path id="패스_403" data-name="패스 403" d="M134.714,43.769a2.655,2.655,0,0,1-.1.729,1.755,1.755,0,0,1-.3.6,1.417,1.417,0,0,1-.52.415,1.721,1.721,0,0,1-.761.154,1.742,1.742,0,0,1-.728-.146,1.463,1.463,0,0,1-.524-.4,1.719,1.719,0,0,1-.317-.6,2.506,2.506,0,0,1-.107-.752,2.35,2.35,0,0,1,.107-.714,1.789,1.789,0,0,1,.317-.6,1.548,1.548,0,0,1,.524-.416,1.679,1.679,0,0,1,.728-.152,1.728,1.728,0,0,1,.728.145,1.47,1.47,0,0,1,.523.4,1.7,1.7,0,0,1,.318.6,2.423,2.423,0,0,1,.108.74m-.557,0a2.118,2.118,0,0,0-.071-.544,1.42,1.42,0,0,0-.2-.452,1.068,1.068,0,0,0-.349-.3,1.008,1.008,0,0,0-.5-.115.965.965,0,0,0-.462.109,1,1,0,0,0-.35.3,1.358,1.358,0,0,0-.226.45,1.932,1.932,0,0,0-.077.565,2.258,2.258,0,0,0,.065.548,1.34,1.34,0,0,0,.2.458,1.019,1.019,0,0,0,.348.319.98.98,0,0,0,.5.12.976.976,0,0,0,.845-.417,1.4,1.4,0,0,0,.2-.461,2.292,2.292,0,0,0,.071-.573" transform="translate(-39.271 -12.521)" fill="#1a1311"/>
    <path id="패스_404" data-name="패스 404" d="M139.468,41.965l-1.283,3.676h-.614l-1.289-3.676h.6l.975,2.975.041,0,.976-2.97Z" transform="translate(-40.742 -12.546)" fill="#1a1311"/>
    <path id="패스_405" data-name="패스 405" d="M143.464,45.641h-2.153V41.965h2.1v.491h-1.54v1.017h1.478v.489h-1.478V45.15h1.591Z" transform="translate(-42.245 -12.546)" fill="#1a1311"/>
    <path id="패스_406" data-name="패스 406" d="M147.67,45.643h-.58l-.148-.705a1.643,1.643,0,0,0-.205-.536.692.692,0,0,0-.334-.292.829.829,0,0,1-.093,0h-.387v-.49h.292a2,2,0,0,0,.287-.022.688.688,0,0,0,.25-.09.442.442,0,0,0,.178-.179.621.621,0,0,0,.065-.306.5.5,0,0,0-.072-.283.507.507,0,0,0-.2-.174.878.878,0,0,0-.263-.093,1.621,1.621,0,0,0-.3-.029h-.425v3.19h-.552V41.958h.982a2.673,2.673,0,0,1,.509.048,1.43,1.43,0,0,1,.452.165.914.914,0,0,1,.328.326,1.176,1.176,0,0,1-.027,1.111,1.037,1.037,0,0,1-.387.338,1.782,1.782,0,0,1,.275.329,1.324,1.324,0,0,1,.184.474Z" transform="translate(-43.403 -12.543)" fill="#1a1311"/>
    <path id="패스_407" data-name="패스 407" d="M152.188,45.641h-.658L150.114,42.8h-.02v2.838h-.543V41.965h.676l1.4,2.852h.015V41.965h.541Z" transform="translate(-44.709 -12.546)" fill="#1a1311"/>
    <path id="패스_408" data-name="패스 408" d="M157.93,45.635h-.522V42.778H157.4l-.958,2.857h-.518l-.956-2.857h-.015v2.857h-.521v-3.67h.772l.975,2.959h.022l.965-2.959h.768Z" transform="translate(-46.167 -12.546)" fill="#1a1311"/>
    <path id="패스_409" data-name="패스 409" d="M162.713,45.641h-2.152V41.965h2.1v.491h-1.541v1.017H162.6v.489h-1.478V45.15h1.591Z" transform="translate(-48 -12.546)" fill="#1a1311"/>
    <path id="패스_410" data-name="패스 410" d="M167.062,45.641H166.4L164.986,42.8h-.02v2.838h-.543V41.965h.676l1.4,2.852h.016V41.965h.542Z" transform="translate(-49.155 -12.546)" fill="#1a1311"/>
    <path id="패스_411" data-name="패스 411" d="M171.352,42.467h-1.027v3.189h-.562V42.467h-1.017v-.485h2.607Z" transform="translate(-50.447 -12.551)" fill="#1a1311"/>
  </g>
</svg>
